/* XPM */
static char *result[] = {
/* columns rows colors chars-per-pixel */
"32 32 6 1 ",
"+ c black",
". c #8C4121",
"X c #FFC30E",
"o c #FFEA61",
"O c white",
"  c None",
/* pixels */
"            ++++++++            ",
"            ++++++++            ",
"        ++++XXXXXX..++++        ",
"        ++++XXXXXX..++++        ",
"      ++XXXXOOooooooOO..++      ",
"      ++XXXXOOooooooOO..++      ",
"    ++XXOOOOooooooOOOOOO..++    ",
"    ++XXOOOOooooooOOOOOO..++    ",
"    ++XXOOoo....XXOOOOoo..++    ",
"    ++XXOOoo....XXOOOOoo..++    ",
"  ++XXOOoo..OOOOOOXXooooXX..++  ",
"  ++XXOOoo..OOOOOOXXooooXX..++  ",
"  ++XXooXXOOOOOOOOooXXooXX..++  ",
"  ++XXooXXOOOOOOOOooXXooXX..++  ",
"  ++XXooXXOOOOOOooooXXooXX..++  ",
"  ++XXooXXOOOOOOooooXXooXX..++  ",
"  ++XXOOXXOOOOooooooXXooXX..++  ",
"  ++XXOOXXOOOOooooooXXooXX..++  ",
"  ++OOOOXXOOooooooooXXooXX..++  ",
"  ++OOOOXXOOooooooooXXooXX..++  ",
"  ++OOOOOOXXoooooo..ooooXX..++  ",
"  ++OOOOOOXXoooooo..ooooXX..++  ",
"    ++OOooooXX....ooooXX..++    ",
"    ++OOooooXX....ooooXX..++    ",
"    ++..ooooooooooooooXX..++    ",
"    ++..ooooooooooooooXX..++    ",
"      ++....ooooooXXXX..++      ",
"      ++....ooooooXXXX..++      ",
"        ++++XXXXXX..++++        ",
"        ++++XXXXXX..++++        ",
"            ++++++++            ",
"            ++++++++            "
};
