/* XPM */
static char *result[] = {
/* columns rows colors chars-per-pixel */
"32 32 6 1 ",
"+ c black",
". c #8C4121",
"X c #FFC30E",
"o c #FFEA61",
"O c white",
"  c None",
/* pixels */
"             ++++++             ",
"             ++++++             ",
"           ++XX....++           ",
"           ++XX....++           ",
"         ++OOooooXXXX++         ",
"         ++OOooooXXXX++         ",
"         ++OOXXoo....++         ",
"         ++OOXXoo....++         ",
"       ++OOoo..ooooXXXX++       ",
"       ++OOoo..ooooXXXX++       ",
"       ++OO..oo..ooXXXX++       ",
"       ++OO..oo..ooXXXX++       ",
"       ++oo..ooXXooXXXX++       ",
"       ++oo..ooXXooXXXX++       ",
"       ++oo..ooXXooXXXX++       ",
"       ++oo..ooXXooXXXX++       ",
"       ++oo..ooXXooXXXX++       ",
"       ++oo..ooXXooXXXX++       ",
"       ++oo..ooXXOOXXXX++       ",
"       ++oo..ooXXOOXXXX++       ",
"       ++oo..ooOOOOXXXX++       ",
"       ++oo..ooOOOOXXXX++       ",
"       ++ooXXOOOOooXXXX++       ",
"       ++ooXXOOOOooXXXX++       ",
"         ++OOOOoo....++         ",
"         ++OOOOoo....++         ",
"         ++OOooooXXXX++         ",
"         ++OOooooXXXX++         ",
"           ++XX....++           ",
"           ++XX....++           ",
"             ++++++             ",
"             ++++++             "
};
