/* XPM */
static char *result[] = {
/* columns rows colors chars-per-pixel */
"32 32 6 1 ",
"  c None",
". c black",
"X c #8C4121",
"o c #FFC30E",
"O c #FFEA61",
"+ c white",
/* pixels */
"             ......             ",
"             ......             ",
"           ..ooooXX..           ",
"           ..ooooXX..           ",
"         ..++++XXooXX..         ",
"         ..++++XXooXX..         ",
"         ..OOOOXXooXX..         ",
"         ..OOOOXXooXX..         ",
"       ..++++XXooooooXX..       ",
"       ..++++XXooooooXX..       ",
"       ..++++XXooXXOOXX..       ",
"       ..++++XXooXXOOXX..       ",
"       ..++++XXooXXOOXX..       ",
"       ..++++XXooXXOOXX..       ",
"       ..++OOXXOOXXOOXX..       ",
"       ..++OOXXOOXXOOXX..       ",
"       ..OOOOXXOOXXOOXX..       ",
"       ..OOOOXXOOXXOOXX..       ",
"       ..OOOOXXOOooOOXX..       ",
"       ..OOOOXXOOooOOXX..       ",
"       ..OOOOXXOOooOOXX..       ",
"       ..OOOOXXOOooOOXX..       ",
"       ..OOOOXXOOOOOOXX..       ",
"       ..OOOOXXOOOOOOXX..       ",
"         ..ooooXXOOXX..         ",
"         ..ooooXXOOXX..         ",
"         ..OOOOXXOOXX..         ",
"         ..OOOOXXOOXX..         ",
"           ..ooooXX..           ",
"           ..ooooXX..           ",
"             ......             ",
"             ......             "
};
