/* XPM */
static char *result[] = {
/* columns rows colors chars-per-pixel */
"32 32 10 1 ",
"+ c black",
". c #8C4121",
"X c #FFC30E",
"o c #FFEA61",
"O c white",
"g c #FFC30E",
"h c #FFD154",
"i c #F57AF5",
"j c #FFDF8F",
"k c #FCAEFC",
/* pixels */
"kkiikkiikkii++++++++kkiikkiikkii",
"gggggggggggg++++++++gggggggggggg",
"jjjjjjhg++++XXXXXX..++++jjjjjjjj",
"jjjjjjhg++++XXXXXX..++++jjjjjjjj",
"jjjjjj++XXXXOOooooooOO..++jjjjjj",
"hhhhhh++XXXXOOooooooOO..++hhhhhh",
"gggg++XXOOOOooooooOOOOOO..++gggg",
"iikk++XXOOOOooooooOOOOOO..++iikk",
"kkii++XXOOoo....XXOOOOoo..++kkii",
"gggg++XXOOoo....XXOOOOoo..++gggg",
"jj++XXOOoo..OOOOOOXXooooXX..++jj",
"jj++XXOOoo..OOOOOOXXooooXX..++jj",
"jj++XXooXXOOOOOOOOooXXooXX..++jj",
"hh++XXooXXOOOOOOOOooXXooXX..++hh",
"gg++XXooXXOOOOOOooooXXooXX..++gg",
"ii++XXooXXOOOOOOooooXXooXX..++kk",
"kk++XXOOXXOOOOooooooXXooXX..++ii",
"gg++XXOOXXOOOOooooooXXooXX..++gg",
"jj++OOOOXXOOooooooooXXooXX..++jj",
"jj++OOOOXXOOooooooooXXooXX..++jj",
"jj++OOOOOOXXoooooo..ooooXX..++jj",
"hh++OOOOOOXXoooooo..ooooXX..++hh",
"gggg++OOooooXX....ooooXX..++gggg",
"iikk++OOooooXX....ooooXX..++iikk",
"kkii++..ooooooooooooooXX..++kkii",
"gggg++..ooooooooooooooXX..++gggg",
"jjjjjj++....ooooooXXXX..++jjjjjj",
"jjjjjj++....ooooooXXXX..++jjjjjj",
"jjjjjjhg++++XXXXXX..++++jjjjjjjj",
"hhhhhhhg++++XXXXXX..++++hhhhhhhh",
"gggggggggggg++++++++gggggggggggg",
"iikkiikkiikk++++++++iikkiikkiikk"
};
