/* XPM */
static char *result[] = {
/* columns rows colors chars-per-pixel */
"32 32 6 1 ",
"  c None",
". c black",
"X c #8C4121",
"o c #FFC30E",
"O c #FFEA61",
"+ c white",
/* pixels */
"            ......              ",
"            ......              ",
"          ..oooooo..            ",
"          ..oooooo..            ",
"          ..OOOOOO..            ",
"          ..OOOOOO..            ",
"          ..OOOOOO..            ",
"          ..OOOOOO..            ",
"          ..++++++..            ",
"          ..++++++..            ",
"          ..++++++..            ",
"          ..++++++..            ",
"          ..++++++..            ",
"          ..++++++..            ",
"          ..OOOOOO..            ",
"          ..OOOOOO..            ",
"          ..OOOOOO..            ",
"          ..OOOOOO..            ",
"          ..oooooo..            ",
"          ..oooooo..            ",
"          ..oooooo..            ",
"          ..oooooo..            ",
"          ..oooooo..            ",
"          ..oooooo..            ",
"          ..XXXXXX..            ",
"          ..XXXXXX..            ",
"          ..oooooo..            ",
"          ..oooooo..            ",
"          ..XXXXXX..            ",
"          ..XXXXXX..            ",
"            ......              ",
"            ......              "
};
