/* XPM */
static char *result[] = {
/* columns rows colors chars-per-pixel */
"32 32 6 1 ",
"0 c black",
". c #8C4121",
"X c #FFC30E",
"o c #FFEA61",
"O c white",
"  c None",
/* pixels */
"            00000000            ",
"            00000000            ",
"        0000oo......0000        ",
"        0000oo......0000        ",
"      00OO....XXXXoo....00      ",
"      00OO....XXXXoo....00      ",
"    00OO..XXXXoooooooooo..00    ",
"    00OO..XXXXoooooooooo..00    ",
"    00OO..XXoooo....oooo..00    ",
"    00OO..XXoooo....oooo..00    ",
"  00OO..XXoooo..XXXX..oooo..00  ",
"  00OO..XXoooo..XXXX..oooo..00  ",
"  00OO..XXoo..XXXXXXooXXoo..00  ",
"  00OO..XXoo..XXXXXXooXXoo..00  ",
"  00OO..XXoo..XXXXooooXXoo..00  ",
"  00OO..XXoo..XXXXooooXXoo..00  ",
"  00O0..XXoo..XXooooooXXoo..00  ",
"  00OO..XXoo..XXooooooXXoo..00  ",
"  00oo..XXoo..ooooooooXXoo..00  ",
"  00oo..XXoo..ooooooooXXoo..00  ",
"  00oo..XXooooXXooooXXoooo..00  ",
"  00oo..XXooooXXooooXXoooo..00  ",
"    00oo..XXooooXXXXoooo..00    ",
"    00oo..XXooooXXXXoooo..00    ",
"    00oo..XXXXoooooooooo..00    ",
"    00oo..XXXXoooooooooo..00    ",
"      00oo....XXXXXX....00      ",
"      00oo....XXXXXX....00      ",
"        0000oo......0000        ",
"        0000oo......0000        ",
"            00000000            ",
"            00000000            "
};
