/* XPM */
static char *result[] = {
/* columns rows colors chars-per-pixel */
"32 32 6 1 ",
"+ c black",
". c #8C4121",
"X c #FFC20E",
"o c #FFEA61",
"O c white",
"  c None",
/* pixels */
"            ++++++++            ",
"            ++++++++            ",
"        ++++XXXXXXXX++++        ",
"        ++++XXXXXXXX++++        ",
"      ++XXXXOOoooooo....++      ",
"      ++XXXXOOoooooo....++      ",
"    ++XXOOOOoooooooooooo..++    ",
"    ++XXOOOOoooooooooooo..++    ",
"  ++XXOOoooo........oooooo..++  ",
"  ++XXOOoooo........oooooo..++  ",
"  ++XXOOoo..XXXXXXXX..oooo..++  ",
"  ++XXOOoo..XXXXXXXX..oooo..++  ",
"++XXOOoo..XXXXXXXXooooXXoooo..++",
"++XXOOoo..XXXXXXXXooooXXoooo..++",
"++XXoooo..XXXXXXooooooXXoooo..++",
"++XXoooo..XXXXXXooooooXXoooo..++",
"++XXoooo..XXXXooooooOOXXoooo..++",
"++XXoooo..XXXXooooooOOXXoooo..++",
"++XXoooo..XXooooooOOOOXXoooo..++",
"++XXoooo..XXooooooOOOOXXoooo..++",
"  ++XXoooo..ooooOOOOXXoooo..++  ",
"  ++XXoooo..ooooOOOOXXoooo..++  ",
"  ++XXooooooXXXXXXXXoooooo..++  ",
"  ++XXooooooXXXXXXXXoooooo..++  ",
"    ++XXoooooooooooooooo..++    ",
"    ++XXoooooooooooooooo..++    ",
"      ++XXXXoooooooo....++      ",
"      ++XXXXoooooooo....++      ",
"        ++++XXXXXXXX++++        ",
"        ++++XXXXXXXX++++        ",
"            ++++++++            ",
"            ++++++++            "
};
