/* XPM */
static char *result[] = {
/* columns rows colors chars-per-pixel */
"32 32 8 1 ",
"  c #FFC20E",
". c #FFC30E",
"X c #FFD154",
"o c #F57AF5",
"O c #00B7EF",
"+ c #FFDF8F",
"@ c #FCAEFC",
"# c white",
/* pixels */
"@@oo@@oo@@oo@@oo@OOo@Ooo@@oo@@oo",
"................O  OO           ",
"++++++X.++++++O###++++XOOO++++++",
"++++++X.+++++##OOOO+++X OOO+++++",
"+++++OX.+++OOOOOOOOOO+X ++OO++++",
"XXXOOOXOXOOOOOO#####OOOOOXXXXXXX",
"...OO..O.OOO###OOOOO##O  O      ",
"ooOOooO@OO##OOOOOOOOOO##ooOOoo@@",
"@@oo@OooO#OOOO#######OOO@@oo@@oo",
".....O.OO#OO##OOOOOOO#OOO       ",
"O++++OOO#OO#OOOOOOOOOO#OOO#+++++",
"+O+++OO#OO#OOO#######OO#OO#+++++",
"+O++OOO#OO#OO#OOOOOOO#OO#OO#++++",
"OXXOOO#OO#OO#OO####OO#OO#OO#OXXX",
"O.#OOO#OO#OO#O#OOOO#O#OO#OO#OO  ",
"oO#OOO#OO#OO#O#O#OO#O#OO#OO#OO@@",
"@@#OOO#OO#OO#O#OO#O#O#OO#OO#OO#o",
"..O#OO#OO#OO#OO##OO#O#OO#OO#OO.O",
"+++#OOO#OO#OO#OOOO#OO#OO#OO#O++O",
"++++OOO#OO#OOO#####OO#OO#OO#++O+",
"+++++OOO#OO#OOOOOOOO#OOO#OO+++O+",
"XXXXXOOOO#OO########OO##OOOXXXXO",
".......OO##OOOOOOOOOO##OO.O.....",
"oo@@oo@OOOO#OOOOOOOO#OOOOoO@oo@@",
"@@ooOOoo@OOO########OOOo@@Oo@@oo",
"......O...#OOOOOOOOOO#...O..OO..",
"+++OO+XOOOO##OOOOOO##OX.O++OO+++",
"++++OOX.++++O######O++X.O+OOO+++",
"++++OOX.+++++OOOOOO+++X.++O+++++",
"XXXXXOO.XXXXXXOOOOXXXXX.XXXXXXXX",
"...........OO..#................",
"oo@@oo@@ooO@oOO@oo@@oo@@oo@@oo@@"
};
