/* XPM */
static char *result[] = {
/* columns rows colors chars-per-pixel */
"32 32 12 1 ",
"g c #FFC30E",
"h c #FFD154",
"i c #F57AF5",
"j c #FFDF8F",
"k c #FCAEFC",
". c black",
"X c #22B14C",
"o c #A8E61D",
"O c #4D6DF3",
"+ c #00B7EF",
"@ c #E6B798",
"# c white",
/* pixels */
"kkiikkiikkiik...........kkiikkii",
"ggggggggggggg...........gggggggg",
"jjjjjjhgjjj..###########..jjjjjj",
"jjjjjjhgjjj..###########..jjjjjj",
"jjjjjjhgj..###############..jjjj",
"hhhhhhhgh..###############..hhhh",
"ggggggggg..############@@@..gggg",
"iikkiikki..###########@@@@..iikk",
"kkiikkiik..##########@@..@..kkii",
"ggggggggg..##########@@..@..gggg",
"jjjjjjhgj..##########@@@@@..jjjj",
"jjjjjjhgj..##########@@@@@..jjjj",
"jjjjjjhgj..##########@@@@...jjjj",
"hhhhhhhgh..##########@@@@...hhhh",
"ggggggg....###########@@@@..gggg",
"iikkii..ooo############@@@..iikk",
"kkiik..ooooXXXXXXXXXXX####..kkii",
"gggg..oooooXXXXXXXXXXX####..gggg",
"jjjj.ooooooXXX+++@@@XX++++..jjjj",
"jjjj.XoooooXX++++@@@XX++++..jjjj",
"jjjj.ooooooXX++++@@@X+++++..jjjj",
"hhhh.XXXXXXXX++XX@@@++++++..hhhh",
"gggg..XXXXXXX+X++@@@++++++..gggg",
"iikki..XXXXXXX+++@@@++++++..iikk",
"kkiikk.....+++++++++++++++..kkii",
"ggggggggg..+++++++++++++++..gggg",
"jjjjjjhgj..OOOOOOOOOOOOOOO..jjjj",
"jjjjjjhgjjj..OOOOOOOOOOO..jjjjjj",
"jjjjjjhgjjjjj..OOOOOOO..jjjjjjjj",
"hhhhhhhghhhhh..OOOOOOO..hhhhhhhh",
"ggggggggggggggg.......gggggggggg",
"iikkiikkiikkiik.......kkiikkiikk"
};
