/* XPM */
static char *result[] = {
/* columns rows colors chars-per-pixel */
"32 32 12 1 ",
"g c #FFC30E",
"h c #FFD154",
"i c #F57AF5",
"j c #FFDF8F",
"k c #FCAEFC",
". c black",
"X c #22B14C",
"o c #A8E61D",
"O c #4D6DF3",
"+ c #00B7EF",
"@ c #E6B798",
"# c white",
/* pixels */
"kkiik....kiikkiikkiikki....ikkii",
"ggggg....gggggggggggggg....ggggg",
"jjj..####..............####..jjj",
"jjj..####..............####..jjj",
"jjj..######################..jjj",
"hhh..######################..hhh",
"ggg..######################..ggg",
"iik..######################..ikk",
"kki..######################..kii",
"ggg..######################..ggg",
"jjj..######################..jjj",
"jjj..######################..jjj",
"jjj..######################..jjj",
"hhh..######################..hhh",
"ggg..######################..ggg",
"iik..##oooooooooooooooooo##..ikk",
"k..XXXXooooooooooooooooooXXXX..i",
"g..XXXXooooooooooooooooooXXXX..g",
"j..@@XXooooooooXXooooooooXX@@..j",
"j..@@XXooooooooXXooooooooXX@@..j",
"j..@@XXooooooooooooooooooXX@@..j",
"h..@@XXXXXXXXXXXXXXXXXXXXXX@@..h",
"g..@@++XXXXXXXXXXXXXXXXXX++@@..g",
"i..@@++XXXXXXXXXXXXXXXXXX++@@..k",
"kki..++XXXXXXXXXXXXXXXXXX++..kii",
"ggg..++++++++++++++++++++++..ggg",
"jjj..OOOOOOOOOOOOOOOOOOOOOO..jjj",
"jjj..OOOOOOOOOOOOOOOOOOOOOO..jjj",
"jjj..OOOOOO..........OOOOOO..jjj",
"hhh..OOOOOO..........OOOOOO..hhh",
"ggggg......gggggggggg......ggggg",
"iikki......kiikkiikki......kiikk"
};
