/* XPM */
static char *result[] = {
/* columns rows colors chars-per-pixel */
"32 32 8 1 ",
"  c None",
". c black",
"X c #22B14C",
"o c #A8E61D",
"O c #4D6DF3",
"+ c #00B7EF",
"@ c #E6B798",
"# c white",
/* pixels */
"        ...........             ",
"        ...........             ",
"      ..###########..           ",
"      ..###########..           ",
"    ..############## ..         ",
"    ..###############..         ",
"    ..@@@############..         ",
"    ..@@@@###########..         ",
"    ..@..@@##########..         ",
"    ..@..@@##########..         ",
"    ..@@@@@##########..         ",
"    ..@@@@@##########..         ",
"    ...@@@@##########..         ",
"    ...@@@@##########..         ",
"    ..@@@@###########....       ",
"    ..@@@############ooo..      ",
"    ..####XXXXXXXXXXXoooo..     ",
"    ..####XXXXXXXXXXXooooo..    ",
"    ..++++XX@@@+++XXXoooooo.    ",
"    ..++++XX@@@++++XXoooooX.    ",
"    ..+++++X@@@++++XXoooooo.    ",
"    ..++++++@@@XX++XXXXXXXX.    ",
"    ..++++++@@@++X+XXXXXXX..    ",
"    ..++++++@@@+++XXXXXXX..     ",
"    ..+++++++++++++++.....      ",
"    ..+++++++++++++++..         ",
"    ..OOOOOOOOOOOOOOO..         ",
"      ..OOOOOOOOOOO..           ",
"        ..OOOOOOO..             ",
"        ..OOOOOOO..             ",
"          .......               ",
"          .......               "
};
