/* XPM */
static char *result[] = {
/* columns rows colors chars-per-pixel */
"32 32 7 1 ",
"  c None",
". c black",
"X c #22B14C",
"o c #4D6DF3",
"O c #00B7EF",
"+ c #E6B798",
"@ c white",
/* pixels */
"     ....              ....     ",
"     ....              ....     ",
"   ..@@@@..............@@@@..   ",
"   ..@@@@..............@@@@..   ",
"   ..@@@@@@@@@@@@@@@@@@@@@@..   ",
"   ..@@@@@@@@@@@@@@@@@@@@@@..   ",
"   ..@@@@++++++++++++++@@@@..   ",
"   ..@@@@++++++++++++++@@@@..   ",
"   ..@@++++++++++++++++++@@..   ",
"   ..@@++++++++++++++++++@@..   ",
"   ..@@++..++++++++++..++@@..   ",
"   ..@@++..++++++++++..++@@..   ",
"   ..@@++++++......++++++@@..   ",
"   ..@@++++++......++++++@@..   ",
"   ..@@@@++++++++++++++@@@@..   ",
"   ..@@@@++++++++++++++@@@@..   ",
" ..XXXX@@@@@@@@@@@@@@@@@@XXXX.. ",
" ..XXXX@@@@@@@@@@@@@@@@@@XXXX.. ",
" ..++XXOOOOOOOOOOOOOOOOOOXX++.. ",
" ..++XXOOOOOOOOOOOOOOOOOOXX++.. ",
" ..++XXOOOOOOOOOOOOOOOOOOXX++.. ",
" ..++XXOOOOOOOOOOOOOOOOOOXX++.. ",
" ..++OOOOOOOOOOOOOOOOOOOOOO++.. ",
" ..++OOOOOOOOOOOOOOOOOOOOOO++.. ",
"   ..OOOOOOOOOOOOOOOOOOOOOO..   ",
"   ..OOOOOOOOOOOOOOOOOOOOOO..   ",
"   ..oooooooooooooooooooooo..   ",
"   ..oooooooooooooooooooooo..   ",
"   ..oooooo..........oooooo..   ",
"   ..oooooo..........oooooo..   ",
"     ......          ......     ",
"     ......          ......     "
};
