/* XPM */
static char *result[] = {
/* columns rows colors chars-per-pixel */
"32 32 12 1 ",
"g c #FFC30E",
"h c #FFD154",
"i c #F57AF5",
"j c #FFDF8F",
"k c #FCAEFC",
". c black",
"X c #22B14C",
"o c #A8E61D",
"O c #4D6DF3",
"+ c #00B7EF",
"@ c #E6B798",
"# c white",
/* pixels */
"kkiikkii...........ikkiikkiikkii",
"gggggggg...........ggggggggggggg",
"jjjjjj..###########..jhgjjjjjjjj",
"jjjjjj..###########..jhgjjjjjjjj",
"jjjj..############## ..gjjjjjjjj",
"hhhh..###############..ghhhhhhhh",
"gggg..@@@############..ggggggggg",
"iikk..@@@@###########..kiikkiikk",
"kkii..@..@@##########..ikkiikkii",
"gggg..@..@@##########..ggggggggg",
"jjjj..@@@@@##########..gjjjjjjjj",
"jjjj..@@@@@##########..gjjjjjjjj",
"jjjj...@@@@##########..gjjjjjjjj",
"hhhh...@@@@##########..ghhhhhhhh",
"gggg..@@@@###########....ggggggg",
"iikk..@@@############ooo..kkiikk",
"kkii..####XXXXXXXXXXXoooo..ikkii",
"gggg..####XXXXXXXXXXXooooo..gggg",
"jjjj..++++XX@@@+++XXXoooooo.jjjj",
"jjjj..++++XX@@@++++XXoooooX.jjjj",
"jjjj..+++++X@@@++++XXoooooo.jjjj",
"hhhh..++++++@@@XX++XXXXXXXX.hhhh",
"gggg..++++++@@@++X+XXXXXXX..gggg",
"iikk..++++++@@@+++XXXXXXX..kiikk",
"kkii..+++++++++++++++.....iikkii",
"gggg..+++++++++++++++..ggggggggg",
"jjjj..OOOOOOOOOOOOOOO..gjjjjjjjj",
"jjjjjj..OOOOOOOOOOO..jhgjjjjjjjj",
"jjjjjjhg..OOOOOOO..jjjhgjjjjjjjj",
"hhhhhhhg..OOOOOOO..hhhhghhhhhhhh",
"gggggggggg.......ggggggggggggggg",
"iikkiikkii.......ikkiikkiikkiikk"
};
