/* XPM */
static char *result[] = {
/* columns rows colors chars-per-pixel */
"32 32 5 1 ",
"g c #FFC30E",
"h c #FFD154",
"i c #F57AF5",
"j c #FFDF8F",
"k c #FCAEFC",
/* pixels */
"kkiikkiikkiikkiikkiikkiikkiikkii",
"gggggggggggggggggggggggggggggggg",
"jjjjjjhgjjjjjjjjjjjjjjhgjjjjjjjj",
"jjjjjjhgjjjjjjjjjjjjjjhgjjjjjjjj",
"jjjjjjhgjjjjjjjjjjjjjjhgjjjjjjjj",
"hhhhhhhghhhhhhhhhhhhhhhghhhhhhhh",
"gggggggggggggggggggggggggggggggg",
"iikkiikkiikkiikkiikkiikkiikkiikk",
"kkiikkiikkiikkiikkiikkiikkiikkii",
"gggggggggggggggggggggggggggggggg",
"jjjjjjhgjjjjjjjjjjjjjjhgjjjjjjjj",
"jjjjjjhgjjjjjjjjjjjjjjhgjjjjjjjj",
"jjjjjjhgjjjjjjjjjjjjjjhgjjjjjjjj",
"hhhhhhhghhhhhhhhhhhhhhhghhhhhhhh",
"gggggggggggggggggggggggggggggggg",
"iikkiikkiikkiikkiikkiikkiikkiikk",
"kkiikkiikkiikkiikkiikkiikkiikkii",
"gggggggggggggggggggggggggggggggg",
"jjjjjjhgjjjjjjjjjjjjjjhgjjjjjjjj",
"jjjjjjhgjjjjjjjjjjjjjjhgjjjjjjjj",
"jjjjjjhgjjjjjjjjjjjjjjhgjjjjjjjj",
"hhhhhhhghhhhhhhhhhhhhhhghhhhhhhh",
"gggggggggggggggggggggggggggggggg",
"iikkiikkiikkiikkiikkiikkiikkiikk",
"kkiikkiikkiikkiikkiikkiikkiikkii",
"gggggggggggggggggggggggggggggggg",
"jjjjjjhgjjjjjjjjjjjjjjhgjjjjjjjj",
"jjjjjjhgjjjjjjjjjjjjjjhgjjjjjjjj",
"jjjjjjhgjjjjjjjjjjjjjjhgjjjjjjjj",
"hhhhhhhghhhhhhhhhhhhhhhghhhhhhhh",
"gggggggggggggggggggggggggggggggg",
"iikkiikkiikkiikkiikkiikkiikkiikk"
};
