/* XPM */
static char *result[] = {
/* columns rows colors chars-per-pixel */
"32 32 7 1 ",
"  c None",
". c black",
"X c #ED1C24",
"o c #FFF200",
"O c #002FEB",
"+ c #99D9EA",
"@ c white",
/* pixels */
"               ..               ",
"      .       .oo.       .      ",
"     .o.      .oo.      .o.     ",
"     .o.     .oooo.     .o.     ",
"     .oo.    .oXXo.    .oo.     ",
"     .Xoo.  .oXXXXo.  .ooX.     ",
"     .XXoo..ooXXXXoo..ooXX.     ",
"     .XooooooooXXooooooooX.     ",
"     .oooooooooooooooooooo.     ",
"     .@@++@@@++++++@@@++@@.     ",
"     .@@++...++++++...++@@.     ",
"     .@@++...++++++...++@@.     ",
"    ..@@++...++++++...++@@..    ",
"   .@@@@++++++++++++++++@@@@.   ",
"   .@@@@@@@@@@@++@@@@@@@@@@@.   ",
"   .@@@@@@@@@@@++@@@@@@@@@@@.   ",
"   .OO@@@@@@@@@++@@@@@@@@@OO.   ",
"   .OO@@@@@@...++...@@@@@@OO.   ",
"   .OOO@@@@@...++...@@@@@OOO.   ",
"   .OOO@@@..@@@++@@@..@@@OOO.   ",
"   .OO.O@@..@@@@@@@@..@@O.OO.   ",
"   .OO.O@@@@@@@@@@@@@@@@O.OO.   ",
"   .++.OO@@@@@@@@@@@@@@OO.++.   ",
"   .++.OOOO@@@@@@@@@@OOOO.++.   ",
"    ..OOOOOO@@@@@@@@OOOOOO..    ",
"     .OOOOOOOO@@@@OOOOOOOO.     ",
"     .OOOOOOOOO@@OOOOOOOOO.     ",
"     .OOOOOOOOOOOOOOOOOOOO.     ",
"     .OOOOOOOOOOOOOOOOOOOO.     ",
"     .OOOOOOOOOOOOOOOOOOOO.     ",
"     .OOOOOOOOOOOOOOOOOOOO.     ",
"     ......................     "
};
