/* XPM */
static char *result[] = {
/* columns rows colors chars-per-pixel */
"32 32 6 1 ",
"  c None",
". c #73402A",
"X c #BF1FBF",
"o c #E04AE0",
"O c #FFA3FF",
"+ c white",
/* pixels */
"              XXXX              ",
"              XXXX              ",
"          XXXXOOOOXXXX          ",
"          XXXXOOOOXXXX          ",
"        XXOOOOOOOOOOOOXX        ",
"        XXOOOOOOOOOOOOXX        ",
"      XXooOOOOOOooOOOOooXX      ",
"      XXooOOOOOOooOOOOooXX      ",
"    XXOOOOOOOOooOOOOooOOOOXX    ",
"    XXOOOOOOOOooOOOOooOOOOXX    ",
"    XXOOOOooooooOOOOooOOOOXX    ",
"    XXOOOOooooooOOOOooOOOOXX    ",
"  XXOOOOooOOOOXXooooOOOOooOOXX  ",
"  XXOOOOooOOOOXXooooOOOOooOOXX  ",
"XXooOOOOXXXXOOOOOOooOOOOooooOOXX",
"XXooOOOOXXXXOOOOOOooOOOOooooOOXX",
"XXOOooooOOooooXXXXooooooOOXXooXX",
"XXOOooooOOooooXXXXooooooOOXXooXX",
"XXooXXXXooooXXooooOOooXXXXooXXXX",
"XXooXXXXooooXXooooOOooXXXXooXXXX",
"XXXXooooXXXXooooXXXXooooooXXXXXX",
"XXXXooooXXXXooooXXXXooooooXXXXXX",
"  XXXXooooXXXXXXXXXXXXXXXXXXXX  ",
"  XXXXooooXXXXXXXXXXXXXXXXXXXX  ",
"    XXXXXXXXXXXXXXXXXXXXXXXX    ",
"    XXXXXXXXXXXXXXXXXXXXXXXX    ",
"      XXXXXXXXXXXXXXXXXXXX      ",
"      XXXXXXXXXXXXXXXXXXXX      ",
"          ....++++++..          ",
"          ....++++++..          ",
"        ..++..++..++++..        ",
"        ..++..++..++++..        "
};
