/* XPM */
static char *result[] = {
/* columns rows colors chars-per-pixel */
"32 32 10 1 ",
"g c #FFC30E",
"h c #FFD154",
"i c #F57AF5",
"j c #FFDF8F",
"k c #FCAEFC",
". c #73402A",
"X c #BF1FBF",
"o c #E04AE0",
"O c #FFA3FF",
"+ c white",
/* pixels */
"kkiikkiikkiikkXXXXiikkiikkiikkii",
"ggggggggggggggXXXXgggggggggggggg",
"jjjjjjhgjjXXXXOOOOXXXXhgjjjjjjjj",
"jjjjjjhgjjXXXXOOOOXXXXhgjjjjjjjj",
"jjjjjjhgXXOOOOOOOOOOOOXXjjjjjjjj",
"hhhhhhhgXXOOOOOOOOOOOOXXhhhhhhhh",
"ggggggXXooOOOOOOooOOOOooXXgggggg",
"iikkiiXXooOOOOOOooOOOOooXXkkiikk",
"kkiiXXOOOOOOOOooOOOOooOOOOXXkkii",
"ggggXXOOOOOOOOooOOOOooOOOOXXgggg",
"jjjjXXOOOOooooooOOOOooOOOOXXjjjj",
"jjjjXXOOOOooooooOOOOooOOOOXXjjjj",
"jjXXOOOOooOOOOXXooooOOOOooOOXXjj",
"hhXXOOOOooOOOOXXooooOOOOooOOXXhh",
"XXooOOOOXXXXOOOOOOooOOOOooooOOXX",
"XXooOOOOXXXXOOOOOOooOOOOooooOOXX",
"XXOOooooOOooooXXXXooooooOOXXooXX",
"XXOOooooOOooooXXXXooooooOOXXooXX",
"XXooXXXXooooXXooooOOooXXXXooXXXX",
"XXooXXXXooooXXooooOOooXXXXooXXXX",
"XXXXooooXXXXooooXXXXooooooXXXXXX",
"XXXXooooXXXXooooXXXXooooooXXXXXX",
"ggXXXXooooXXXXXXXXXXXXXXXXXXXXgg",
"iiXXXXooooXXXXXXXXXXXXXXXXXXXXkk",
"kkiiXXXXXXXXXXXXXXXXXXXXXXXXkkii",
"ggggXXXXXXXXXXXXXXXXXXXXXXXXgggg",
"jjjjjjXXXXXXXXXXXXXXXXXXXXjjjjjj",
"jjjjjjXXXXXXXXXXXXXXXXXXXXjjjjjj",
"jjjjjjhgjj....++++++..hgjjjjjjjj",
"hhhhhhhghh....++++++..hghhhhhhhh",
"gggggggg..++..++..++++..gggggggg",
"iikkiikk..++..++..++++..iikkiikk"
};
