/* XPM */
static char *result[] = {
/* columns rows colors chars-per-pixel */
"64 64 6 1 ",
"  c black",
". c #8C4121",
"X c #FFC30E",
"o c #FFEA61",
"O c white",
"+ c None",
/* pixels */
"++++++++++++++++++++++++++            ++++++++++++++++++++++++++",
"++++++++++++++++++++++++++            ++++++++++++++++++++++++++",
"++++++++++++++++++++++++++            ++++++++++++++++++++++++++",
"++++++++++++++++++++++++++            ++++++++++++++++++++++++++",
"++++++++++++++++++++++    XXXXXXXX....    ++++++++++++++++++++++",
"++++++++++++++++++++++    XXXXXXXX....    ++++++++++++++++++++++",
"++++++++++++++++++++++    XXXXXXXX....    ++++++++++++++++++++++",
"++++++++++++++++++++++    XXXXXXXX....    ++++++++++++++++++++++",
"++++++++++++++++++    OOOOOOOO....XXXX....    ++++++++++++++++++",
"++++++++++++++++++    OOOOOOOO....XXXX....    ++++++++++++++++++",
"++++++++++++++++++    OOOOOOOO....XXXX....    ++++++++++++++++++",
"++++++++++++++++++    OOOOOOOO....XXXX....    ++++++++++++++++++",
"++++++++++++++++++    oooooooo....XXXX....    ++++++++++++++++++",
"++++++++++++++++++    oooooooo....XXXX....    ++++++++++++++++++",
"++++++++++++++++++    oooooooo....XXXX....    ++++++++++++++++++",
"++++++++++++++++++    oooooooo....XXXX....    ++++++++++++++++++",
"++++++++++++++    OOOOOOOO....XXXXXXXXXXXX....    ++++++++++++++",
"++++++++++++++    OOOOOOOO....XXXXXXXXXXXX....    ++++++++++++++",
"++++++++++++++    OOOOOOOO....XXXXXXXXXXXX....    ++++++++++++++",
"++++++++++++++    OOOOOOOO....XXXXXXXXXXXX....    ++++++++++++++",
"++++++++++++++    OOOOOOOO....XXXX....oooo....    ++++++++++++++",
"++++++++++++++    OOOOOOOO....XXXX....oooo....    ++++++++++++++",
"++++++++++++++    OOOOOOOO....XXXX....oooo....    ++++++++++++++",
"++++++++++++++    OOOOOOOO....XXXX....oooo....    ++++++++++++++",
"++++++++++++++    OOOOOOOO....XXXX....oooo....    ++++++++++++++",
"++++++++++++++    OOOOOOOO....XXXX....oooo....    ++++++++++++++",
"++++++++++++++    OOOOOOOO....XXXX....oooo....    ++++++++++++++",
"++++++++++++++    OOOOOOOO....XXXX....oooo....    ++++++++++++++",
"++++++++++++++    OOOOoooo....oooo....oooo....    ++++++++++++++",
"++++++++++++++    OOOOoooo....oooo....oooo....    ++++++++++++++",
"++++++++++++++    OOOOoooo....oooo....oooo....    ++++++++++++++",
"++++++++++++++    OOOOoooo....oooo....oooo....    ++++++++++++++",
"++++++++++++++    oooooooo....oooo....oooo....    ++++++++++++++",
"++++++++++++++    oooooooo....oooo....oooo....    ++++++++++++++",
"++++++++++++++    oooooooo....oooo....oooo....    ++++++++++++++",
"++++++++++++++    oooooooo....oooo....oooo....    ++++++++++++++",
"++++++++++++++    oooooooo....ooooXXXXoooo....    ++++++++++++++",
"++++++++++++++    oooooooo....ooooXXXXoooo....    ++++++++++++++",
"++++++++++++++    oooooooo....ooooXXXXoooo....    ++++++++++++++",
"++++++++++++++    oooooooo....ooooXXXXoooo....    ++++++++++++++",
"++++++++++++++    oooooooo....ooooXXXXoooo....    ++++++++++++++",
"++++++++++++++    oooooooo....ooooXXXXoooo....    ++++++++++++++",
"++++++++++++++    oooooooo....ooooXXXXoooo....    ++++++++++++++",
"++++++++++++++    oooooooo....ooooXXXXoooo....    ++++++++++++++",
"++++++++++++++    oooooooo....oooooooooooo....    ++++++++++++++",
"++++++++++++++    oooooooo....oooooooooooo....    ++++++++++++++",
"++++++++++++++    oooooooo....oooooooooooo....    ++++++++++++++",
"++++++++++++++    oooooooo....oooooooooooo....    ++++++++++++++",
"++++++++++++++    oooooooo....oooooooooooo....    ++++++++++++++",
"++++++++++++++    oooooooo....oooooooooooo....    ++++++++++++++",
"++++++++++++++++++    XXXXXXXX....oooo....    ++++++++++++++++++",
"++++++++++++++++++    XXXXXXXX....oooo....    ++++++++++++++++++",
"++++++++++++++++++    XXXXXXXX....oooo....    ++++++++++++++++++",
"++++++++++++++++++    XXXXXXXX....oooo....    ++++++++++++++++++",
"++++++++++++++++++    oooooooo....oooo....    ++++++++++++++++++",
"++++++++++++++++++    oooooooo....oooo....    ++++++++++++++++++",
"++++++++++++++++++    oooooooo....oooo....    ++++++++++++++++++",
"++++++++++++++++++    oooooooo....oooo....    ++++++++++++++++++",
"++++++++++++++++++++++    XXXXXXXX....    ++++++++++++++++++++++",
"++++++++++++++++++++++    XXXXXXXX....    ++++++++++++++++++++++",
"++++++++++++++++++++++    XXXXXXXX....    ++++++++++++++++++++++",
"++++++++++++++++++++++    XXXXXXXX....    ++++++++++++++++++++++",
"++++++++++++++++++++++++++            ++++++++++++++++++++++++++",
"++++++++++++++++++++++++++            ++++++++++++++++++++++++++"
};
