/* XPM */
static char *result[] = {
/* columns rows colors chars-per-pixel */
"64 64 6 1 ",
"  c black",
". c #8C4121",
"X c #FFC30E",
"o c #FFEA61",
"O c white",
"+ c None",
/* pixels */
"++++++++++++++++++++++++                ++++++++++++++++++++++++",
"++++++++++++++++++++++++                ++++++++++++++++++++++++",
"++++++++++++++++++++++++                ++++++++++++++++++++++++",
"++++++++++++++++++++++++                ++++++++++++++++++++++++",
"++++++++++++++++        XXXXXXXXXXXX....        ++++++++++++++++",
"++++++++++++++++        XXXXXXXXXXXX....        ++++++++++++++++",
"++++++++++++++++        XXXXXXXXXXXX....        ++++++++++++++++",
"++++++++++++++++        XXXXXXXXXXXX....        ++++++++++++++++",
"++++++++++++    XXXXXXXXOOOOooooooooooooOOOO....    ++++++++++++",
"++++++++++++    XXXXXXXXOOOOooooooooooooOOOO....    ++++++++++++",
"++++++++++++    XXXXXXXXOOOOooooooooooooOOOO....    ++++++++++++",
"++++++++++++    XXXXXXXXOOOOooooooooooooOOOO....    ++++++++++++",
"++++++++    XXXXOOOOOOOOooooooooooooOOOOOOOOOOOO....    ++++++++",
"++++++++    XXXXOOOOOOOOooooooooooooOOOOOOOOOOOO....    ++++++++",
"++++++++    XXXXOOOOOOOOooooooooooooOOOOOOOOOOOO....    ++++++++",
"++++++++    XXXXOOOOOOOOooooooooooooOOOOOOOOOOOO....    ++++++++",
"++++++++    XXXXOOOOoooo........XXXXOOOOOOOOoooo....    ++++++++",
"++++++++    XXXXOOOOoooo........XXXXOOOOOOOOoooo....    ++++++++",
"++++++++    XXXXOOOOoooo........XXXXOOOOOOOOoooo....    ++++++++",
"++++++++    XXXXOOOOoooo........XXXXOOOOOOOOoooo....    ++++++++",
"++++    XXXXOOOOoooo....OOOOOOOOOOOOXXXXooooooooXXXX....    ++++",
"++++    XXXXOOOOoooo....OOOOOOOOOOOOXXXXooooooooXXXX....    ++++",
"++++    XXXXOOOOoooo....OOOOOOOOOOOOXXXXooooooooXXXX....    ++++",
"++++    XXXXOOOOoooo....OOOOOOOOOOOOXXXXooooooooXXXX....    ++++",
"++++    XXXXooooXXXXOOOOOOOOOOOOOOOOooooXXXXooooXXXX....    ++++",
"++++    XXXXooooXXXXOOOOOOOOOOOOOOOOooooXXXXooooXXXX....    ++++",
"++++    XXXXooooXXXXOOOOOOOOOOOOOOOOooooXXXXooooXXXX....    ++++",
"++++    XXXXooooXXXXOOOOOOOOOOOOOOOOooooXXXXooooXXXX....    ++++",
"++++    XXXXooooXXXXOOOOOOOOOOOOooooooooXXXXooooXXXX....    ++++",
"++++    XXXXooooXXXXOOOOOOOOOOOOooooooooXXXXooooXXXX....    ++++",
"++++    XXXXooooXXXXOOOOOOOOOOOOooooooooXXXXooooXXXX....    ++++",
"++++    XXXXooooXXXXOOOOOOOOOOOOooooooooXXXXooooXXXX....    ++++",
"++++    XXXXOOOOXXXXOOOOOOOOooooooooooooXXXXooooXXXX....    ++++",
"++++    XXXXOOOOXXXXOOOOOOOOooooooooooooXXXXooooXXXX....    ++++",
"++++    XXXXOOOOXXXXOOOOOOOOooooooooooooXXXXooooXXXX....    ++++",
"++++    XXXXOOOOXXXXOOOOOOOOooooooooooooXXXXooooXXXX....    ++++",
"++++    OOOOOOOOXXXXOOOOooooooooooooooooXXXXooooXXXX....    ++++",
"++++    OOOOOOOOXXXXOOOOooooooooooooooooXXXXooooXXXX....    ++++",
"++++    OOOOOOOOXXXXOOOOooooooooooooooooXXXXooooXXXX....    ++++",
"++++    OOOOOOOOXXXXOOOOooooooooooooooooXXXXooooXXXX....    ++++",
"++++    OOOOOOOOOOOOXXXXoooooooooooo....ooooooooXXXX....    ++++",
"++++    OOOOOOOOOOOOXXXXoooooooooooo....ooooooooXXXX....    ++++",
"++++    OOOOOOOOOOOOXXXXoooooooooooo....ooooooooXXXX....    ++++",
"++++    OOOOOOOOOOOOXXXXoooooooooooo....ooooooooXXXX....    ++++",
"++++++++    OOOOooooooooXXXX........ooooooooXXXX....    ++++++++",
"++++++++    OOOOooooooooXXXX........ooooooooXXXX....    ++++++++",
"++++++++    OOOOooooooooXXXX........ooooooooXXXX....    ++++++++",
"++++++++    OOOOooooooooXXXX........ooooooooXXXX....    ++++++++",
"++++++++    ....ooooooooooooooooooooooooooooXXXX....    ++++++++",
"++++++++    ....ooooooooooooooooooooooooooooXXXX....    ++++++++",
"++++++++    ....ooooooooooooooooooooooooooooXXXX....    ++++++++",
"++++++++    ....ooooooooooooooooooooooooooooXXXX....    ++++++++",
"++++++++++++    ........ooooooooooooXXXXXXXX....    ++++++++++++",
"++++++++++++    ........ooooooooooooXXXXXXXX....    ++++++++++++",
"++++++++++++    ........ooooooooooooXXXXXXXX....    ++++++++++++",
"++++++++++++    ........ooooooooooooXXXXXXXX....    ++++++++++++",
"++++++++++++++++        XXXXXXXXXXXX....        ++++++++++++++++",
"++++++++++++++++        XXXXXXXXXXXX....        ++++++++++++++++",
"++++++++++++++++        XXXXXXXXXXXX....        ++++++++++++++++",
"++++++++++++++++        XXXXXXXXXXXX....        ++++++++++++++++",
"++++++++++++++++++++++++                ++++++++++++++++++++++++",
"++++++++++++++++++++++++                ++++++++++++++++++++++++",
"++++++++++++++++++++++++                ++++++++++++++++++++++++",
"++++++++++++++++++++++++                ++++++++++++++++++++++++"
};
