/* XPM */
static char *result[] = {
/* columns rows colors chars-per-pixel */
"64 64 6 1 ",
"  c black",
". c #8C4121",
"X c #FFC30E",
"o c #FFEA61",
"O c white",
"+ c None",
/* pixels */
"++++++++++++++++++++++++++            ++++++++++++++++++++++++++",
"++++++++++++++++++++++++++            ++++++++++++++++++++++++++",
"++++++++++++++++++++++++++            ++++++++++++++++++++++++++",
"++++++++++++++++++++++++++            ++++++++++++++++++++++++++",
"++++++++++++++++++++++    XXXX........    ++++++++++++++++++++++",
"++++++++++++++++++++++    XXXX........    ++++++++++++++++++++++",
"++++++++++++++++++++++    XXXX........    ++++++++++++++++++++++",
"++++++++++++++++++++++    XXXX........    ++++++++++++++++++++++",
"++++++++++++++++++    OOOOooooooooXXXXXXXX    ++++++++++++++++++",
"++++++++++++++++++    OOOOooooooooXXXXXXXX    ++++++++++++++++++",
"++++++++++++++++++    OOOOooooooooXXXXXXXX    ++++++++++++++++++",
"++++++++++++++++++    OOOOooooooooXXXXXXXX    ++++++++++++++++++",
"++++++++++++++++++    OOOOXXXXoooo........    ++++++++++++++++++",
"++++++++++++++++++    OOOOXXXXoooo........    ++++++++++++++++++",
"++++++++++++++++++    OOOOXXXXoooo........    ++++++++++++++++++",
"++++++++++++++++++    OOOOXXXXoooo........    ++++++++++++++++++",
"++++++++++++++    OOOOoooo....ooooooooXXXXXXXX    ++++++++++++++",
"++++++++++++++    OOOOoooo....ooooooooXXXXXXXX    ++++++++++++++",
"++++++++++++++    OOOOoooo....ooooooooXXXXXXXX    ++++++++++++++",
"++++++++++++++    OOOOoooo....ooooooooXXXXXXXX    ++++++++++++++",
"++++++++++++++    OOOO....oooo....ooooXXXXXXXX    ++++++++++++++",
"++++++++++++++    OOOO....oooo....ooooXXXXXXXX    ++++++++++++++",
"++++++++++++++    OOOO....oooo....ooooXXXXXXXX    ++++++++++++++",
"++++++++++++++    OOOO....oooo....ooooXXXXXXXX    ++++++++++++++",
"++++++++++++++    oooo....ooooXXXXooooXXXXXXXX    ++++++++++++++",
"++++++++++++++    oooo....ooooXXXXooooXXXXXXXX    ++++++++++++++",
"++++++++++++++    oooo....ooooXXXXooooXXXXXXXX    ++++++++++++++",
"++++++++++++++    oooo....ooooXXXXooooXXXXXXXX    ++++++++++++++",
"++++++++++++++    oooo....ooooXXXXooooXXXXXXXX    ++++++++++++++",
"++++++++++++++    oooo....ooooXXXXooooXXXXXXXX    ++++++++++++++",
"++++++++++++++    oooo....ooooXXXXooooXXXXXXXX    ++++++++++++++",
"++++++++++++++    oooo....ooooXXXXooooXXXXXXXX    ++++++++++++++",
"++++++++++++++    oooo....ooooXXXXooooXXXXXXXX    ++++++++++++++",
"++++++++++++++    oooo....ooooXXXXooooXXXXXXXX    ++++++++++++++",
"++++++++++++++    oooo....ooooXXXXooooXXXXXXXX    ++++++++++++++",
"++++++++++++++    oooo....ooooXXXXooooXXXXXXXX    ++++++++++++++",
"++++++++++++++    oooo....ooooXXXXooooXXXXXXXX    ++++++++++++++",
"++++++++++++++    oooo....ooooXXXXooooXXXXXXXX    ++++++++++++++",
"++++++++++++++    oooo....ooooXXXXOOOOXXXXXXXX    ++++++++++++++",
"++++++++++++++    oooo....ooooXXXXOOOOXXXXXXXX    ++++++++++++++",
"++++++++++++++    oooo....ooooOOOOOOOOXXXXXXXX    ++++++++++++++",
"++++++++++++++    oooo....ooooOOOOOOOOXXXXXXXX    ++++++++++++++",
"++++++++++++++    oooo....ooooOOOOOOOOXXXXXXXX    ++++++++++++++",
"++++++++++++++    oooo....ooooOOOOOOOOXXXXXXXX    ++++++++++++++",
"++++++++++++++    ooooXXXXOOOOOOOOooooXXXXXXXX    ++++++++++++++",
"++++++++++++++    ooooXXXXOOOOOOOOooooXXXXXXXX    ++++++++++++++",
"++++++++++++++    ooooXXXXOOOOOOOOooooXXXXXXXX    ++++++++++++++",
"++++++++++++++    ooooXXXXOOOOOOOOooooXXXXXXXX    ++++++++++++++",
"++++++++++++++++++    OOOOOOOOoooo........    ++++++++++++++++++",
"++++++++++++++++++    OOOOOOOOoooo........    ++++++++++++++++++",
"++++++++++++++++++    OOOOOOOOoooo........    ++++++++++++++++++",
"++++++++++++++++++    OOOOOOOOoooo........    ++++++++++++++++++",
"++++++++++++++++++    OOOOooooooooXXXXXXXX    ++++++++++++++++++",
"++++++++++++++++++    OOOOooooooooXXXXXXXX    ++++++++++++++++++",
"++++++++++++++++++    OOOOooooooooXXXXXXXX    ++++++++++++++++++",
"++++++++++++++++++    OOOOooooooooXXXXXXXX    ++++++++++++++++++",
"++++++++++++++++++++++    XXXX........    ++++++++++++++++++++++",
"++++++++++++++++++++++    XXXX........    ++++++++++++++++++++++",
"++++++++++++++++++++++    XXXX........    ++++++++++++++++++++++",
"++++++++++++++++++++++    XXXX........    ++++++++++++++++++++++",
"++++++++++++++++++++++++++            ++++++++++++++++++++++++++",
"++++++++++++++++++++++++++            ++++++++++++++++++++++++++",
"++++++++++++++++++++++++++            ++++++++++++++++++++++++++",
"++++++++++++++++++++++++++            ++++++++++++++++++++++++++"
};
