/* XPM */
static char *result[] = {
/* columns rows colors chars-per-pixel */
"64 64 10 1 ",
"  c black",
". c #8C4121",
"X c #FFC30E",
"o c #FFEA61",
"O c white",
"g c #FFD454",
"h c #FFDF8F",
"i c #F57AF5",
"j c #FFEBBD",
"k c #FCAEFC",
/* pixels */
"kkkkiiiikkkkiiiikkkkiiii            iiiikkkkiiiikkkkiiiikkkkiiii",
"kkkkiiiikkkkiiiikkkkiiii            iiiikkkkiiiikkkkiiiikkkkiiii",
"gggggggggggggggggggggggg            gggggggggggggggggggggggggggg",
"gggggggggggggggggggggggg            gggggggggggggggggggggggggggg",
"jjjjjjjjjjjjhhggjjjj    XXXXXXXXXXXX    jjjjhhggjjjjjjjjjjjjjjjj",
"jjjjjjjjjjjjhhggjjjj    XXXXXXXXXXXX    jjjjhhggjjjjjjjjjjjjjjjj",
"jjjjjjjjjjjjhhggjjjj    XXXXXXXXXXXX    jjjjhhggjjjjjjjjjjjjjjjj",
"jjjjjjjjjjjjhhggjjjj    XXXXXXXXXXXX    jjjjhhggjjjjjjjjjjjjjjjj",
"jjjjjjjjjjjjhhggjjjj    oooooooooooo    jjjjhhggjjjjjjjjjjjjjjjj",
"jjjjjjjjjjjjhhggjjjj    oooooooooooo    jjjjhhggjjjjjjjjjjjjjjjj",
"hhhhhhhhhhhhhhgghhhh    oooooooooooo    hhhhhhgghhhhhhhhhhhhhhhh",
"hhhhhhhhhhhhhhgghhhh    oooooooooooo    hhhhhhgghhhhhhhhhhhhhhhh",
"gggggggggggggggggggg    oooooooooooo    gggggggggggggggggggggggg",
"gggggggggggggggggggg    oooooooooooo    gggggggggggggggggggggggg",
"iiiikkkkiiiikkkkiiii    oooooooooooo    iiiikkkkiiiikkkkiiiikkkk",
"iiiikkkkiiiikkkkiiii    oooooooooooo    iiiikkkkiiiikkkkiiiikkkk",
"kkkkiiiikkkkiiiikkkk    OOOOOOOOOOOO    kkkkiiiikkkkiiiikkkkiiii",
"kkkkiiiikkkkiiiikkkk    OOOOOOOOOOOO    kkkkiiiikkkkiiiikkkkiiii",
"gggggggggggggggggggg    OOOOOOOOOOOO    gggggggggggggggggggggggg",
"gggggggggggggggggggg    OOOOOOOOOOOO    gggggggggggggggggggggggg",
"jjjjjjjjjjjjhhggjjjj    OOOOOOOOOOOO    jjjjhhggjjjjjjjjjjjjjjjj",
"jjjjjjjjjjjjhhggjjjj    OOOOOOOOOOOO    jjjjhhggjjjjjjjjjjjjjjjj",
"jjjjjjjjjjjjhhggjjjj    OOOOOOOOOOOO    jjjjhhggjjjjjjjjjjjjjjjj",
"jjjjjjjjjjjjhhggjjjj    OOOOOOOOOOOO    jjjjhhggjjjjjjjjjjjjjjjj",
"jjjjjjjjjjjjhhggjjjj    OOOOOOOOOOOO    jjjjhhggjjjjjjjjjjjjjjjj",
"jjjjjjjjjjjjhhggjjjj    OOOOOOOOOOOO    jjjjhhggjjjjjjjjjjjjjjjj",
"hhhhhhhhhhhhhhgghhhh    OOOOOOOOOOOO    hhhhhhgghhhhhhhhhhhhhhhh",
"hhhhhhhhhhhhhhgghhhh    OOOOOOOOOOOO    hhhhhhgghhhhhhhhhhhhhhhh",
"gggggggggggggggggggg    oooooooooooo    gggggggggggggggggggggggg",
"gggggggggggggggggggg    oooooooooooo    gggggggggggggggggggggggg",
"iiiikkkkiiiikkkkiiii    oooooooooooo    iiiikkkkiiiikkkkiiiikkkk",
"iiiikkkkiiiikkkkiiii    oooooooooooo    iiiikkkkiiiikkkkiiiikkkk",
"kkkkiiiikkkkiiiikkkk    oooooooooooo    kkkkiiiikkkkiiiikkkkiiii",
"kkkkiiiikkkkiiiikkkk    oooooooooooo    kkkkiiiikkkkiiiikkkkiiii",
"gggggggggggggggggggg    oooooooooooo    gggggggggggggggggggggggg",
"gggggggggggggggggggg    oooooooooooo    gggggggggggggggggggggggg",
"jjjjjjjjjjjjhhggjjjj    XXXXXXXXXXXX    jjjjhhggjjjjjjjjjjjjjjjj",
"jjjjjjjjjjjjhhggjjjj    XXXXXXXXXXXX    jjjjhhggjjjjjjjjjjjjjjjj",
"jjjjjjjjjjjjhhggjjjj    XXXXXXXXXXXX    jjjjhhggjjjjjjjjjjjjjjjj",
"jjjjjjjjjjjjhhggjjjj    XXXXXXXXXXXX    jjjjhhggjjjjjjjjjjjjjjjj",
"jjjjjjjjjjjjhhggjjjj    XXXXXXXXXXXX    jjjjhhggjjjjjjjjjjjjjjjj",
"jjjjjjjjjjjjhhggjjjj    XXXXXXXXXXXX    jjjjhhggjjjjjjjjjjjjjjjj",
"hhhhhhhhhhhhhhgghhhh    XXXXXXXXXXXX    hhhhhhgghhhhhhhhhhhhhhhh",
"hhhhhhhhhhhhhhgghhhh    XXXXXXXXXXXX    hhhhhhgghhhhhhhhhhhhhhhh",
"gggggggggggggggggggg    XXXXXXXXXXXX    gggggggggggggggggggggggg",
"gggggggggggggggggggg    XXXXXXXXXXXX    gggggggggggggggggggggggg",
"iiiikkkkiiiikkkkiiii    XXXXXXXXXXXX    iiiikkkkiiiikkkkiiiikkkk",
"iiiikkkkiiiikkkkiiii    XXXXXXXXXXXX    iiiikkkkiiiikkkkiiiikkkk",
"kkkkiiiikkkkiiiikkkk    ............    kkkkiiiikkkkiiiikkkkiiii",
"kkkkiiiikkkkiiiikkkk    ............    kkkkiiiikkkkiiiikkkkiiii",
"gggggggggggggggggggg    ............    gggggggggggggggggggggggg",
"gggggggggggggggggggg    ............    gggggggggggggggggggggggg",
"jjjjjjjjjjjjhhggjjjj    XXXXXXXXXXXX    jjjjhhggjjjjjjjjjjjjjjjj",
"jjjjjjjjjjjjhhggjjjj    XXXXXXXXXXXX    jjjjhhggjjjjjjjjjjjjjjjj",
"jjjjjjjjjjjjhhggjjjj    XXXXXXXXXXXX    jjjjhhggjjjjjjjjjjjjjjjj",
"jjjjjjjjjjjjhhggjjjj    XXXXXXXXXXXX    jjjjhhggjjjjjjjjjjjjjjjj",
"jjjjjjjjjjjjhhggjjjj    ............    jjjjhhggjjjjjjjjjjjjjjjj",
"jjjjjjjjjjjjhhggjjjj    ............    jjjjhhggjjjjjjjjjjjjjjjj",
"hhhhhhhhhhhhhhgghhhh    ............    jjjjhhggjjjjjjjjjjjjjjjj",
"hhhhhhhhhhhhhhgghhhh    ............    jjjjhhggjjjjjjjjjjjjjjjj",
"gggggggggggggggggggggggg            gggggggggggggggggggggggggggg",
"gggggggggggggggggggggggg            gggggggggggggggggggggggggggg",
"iiiikkkkiiiikkkkiiiikkkk            kkkkiiiikkkkiiiikkkkiiiikkkk",
"iiiikkkkiiiikkkkiiiikkkk            kkkkiiiikkkkiiiikkkkiiiikkkk"
};
