/* XPM */
static char *result[] = {
/* columns rows colors chars-per-pixel */
"64 64 6 1 ",
"  c black",
". c #8C4121",
"X c #FFC30E",
"o c #FFEA61",
"O c white",
"+ c None",
/* pixels */
"++++++++++++++++++++++++                ++++++++++++++++++++++++",
"++++++++++++++++++++++++                ++++++++++++++++++++++++",
"++++++++++++++++++++++++                ++++++++++++++++++++++++",
"++++++++++++++++++++++++                ++++++++++++++++++++++++",
"++++++++++++++++        XXXXXXXXXXXXXXXX        ++++++++++++++++",
"++++++++++++++++        XXXXXXXXXXXXXXXX        ++++++++++++++++",
"++++++++++++++++        XXXXXXXXXXXXXXXX        ++++++++++++++++",
"++++++++++++++++        XXXXXXXXXXXXXXXX        ++++++++++++++++",
"++++++++++++    XXXXXXXXOOOOoooooooooooo........    ++++++++++++",
"++++++++++++    XXXXXXXXOOOOoooooooooooo........    ++++++++++++",
"++++++++++++    XXXXXXXXOOOOoooooooooooo........    ++++++++++++",
"++++++++++++    XXXXXXXXOOOOoooooooooooo........    ++++++++++++",
"++++++++    XXXXOOOOOOOOoooooooooooooooooooooooo....    ++++++++",
"++++++++    XXXXOOOOOOOOoooooooooooooooooooooooo....    ++++++++",
"++++++++    XXXXOOOOOOOOoooooooooooooooooooooooo....    ++++++++",
"++++++++    XXXXOOOOOOOOoooooooooooooooooooooooo....    ++++++++",
"++++    XXXXOOOOoooooooo................oooooooooooo....    ++++",
"++++    XXXXOOOOoooooooo................oooooooooooo....    ++++",
"++++    XXXXOOOOoooooooo................oooooooooooo....    ++++",
"++++    XXXXOOOOoooooooo................oooooooooooo....    ++++",
"++++    XXXXOOOOoooo....XXXXXXXXXXXXXXXX....oooooooo....    ++++",
"++++    XXXXOOOOoooo....XXXXXXXXXXXXXXXX....oooooooo....    ++++",
"++++    XXXXOOOOoooo....XXXXXXXXXXXXXXXX....oooooooo....    ++++",
"++++    XXXXOOOOoooo....XXXXXXXXXXXXXXXX....oooooooo....    ++++",
"    XXXXOOOOoooo....XXXXXXXXXXXXXXXXooooooooXXXXoooooooo....    ",
"    XXXXOOOOoooo....XXXXXXXXXXXXXXXXooooooooXXXXoooooooo....    ",
"    XXXXOOOOoooo....XXXXXXXXXXXXXXXXooooooooXXXXoooooooo....    ",
"    XXXXOOOOoooo....XXXXXXXXXXXXXXXXooooooooXXXXoooooooo....    ",
"    XXXXoooooooo....XXXXXXXXXXXXooooooooooooXXXXoooooooo....    ",
"    XXXXoooooooo....XXXXXXXXXXXXooooooooooooXXXXoooooooo....    ",
"    XXXXoooooooo....XXXXXXXXXXXXooooooooooooXXXXoooooooo....    ",
"    XXXXoooooooo....XXXXXXXXXXXXooooooooooooXXXXoooooooo....    ",
"    XXXXoooooooo....XXXXXXXXooooooooooooOOOOXXXXoooooooo....    ",
"    XXXXoooooooo....XXXXXXXXooooooooooooOOOOXXXXoooooooo....    ",
"    XXXXoooooooo....XXXXXXXXooooooooooooOOOOXXXXoooooooo....    ",
"    XXXXoooooooo....XXXXXXXXooooooooooooOOOOXXXXoooooooo....    ",
"    XXXXoooooooo....XXXXooooooooooooOOOOOOOOXXXXoooooooo....    ",
"    XXXXoooooooo....XXXXooooooooooooOOOOOOOOXXXXoooooooo....    ",
"    XXXXoooooooo....XXXXooooooooooooOOOOOOOOXXXXoooooooo....    ",
"    XXXXoooooooo....XXXXooooooooooooOOOOOOOOXXXXoooooooo....    ",
"++++    XXXXoooooooo....ooooooooOOOOOOOOXXXXoooooooo....    ++++",
"++++    XXXXoooooooo....ooooooooOOOOOOOOXXXXoooooooo....    ++++",
"++++    XXXXoooooooo....ooooooooOOOOOOOOXXXXoooooooo....    ++++",
"++++    XXXXoooooooo....ooooooooOOOOOOOOXXXXoooooooo....    ++++",
"++++    XXXXooooooooooooXXXXXXXXXXXXXXXXoooooooooooo....    ++++",
"++++    XXXXooooooooooooXXXXXXXXXXXXXXXXoooooooooooo....    ++++",
"++++    XXXXooooooooooooXXXXXXXXXXXXXXXXoooooooooooo....    ++++",
"++++    XXXXooooooooooooXXXXXXXXXXXXXXXXoooooooooooo....    ++++",
"++++++++    XXXXoooooooooooooooooooooooooooooooo....    ++++++++",
"++++++++    XXXXoooooooooooooooooooooooooooooooo....    ++++++++",
"++++++++    XXXXoooooooooooooooooooooooooooooooo....    ++++++++",
"++++++++    XXXXoooooooooooooooooooooooooooooooo....    ++++++++",
"++++++++++++    XXXXXXXXoooooooooooooooo........    ++++++++++++",
"++++++++++++    XXXXXXXXoooooooooooooooo........    ++++++++++++",
"++++++++++++    XXXXXXXXoooooooooooooooo........    ++++++++++++",
"++++++++++++    XXXXXXXXoooooooooooooooo........    ++++++++++++",
"++++++++++++++++        XXXXXXXXXXXXXXXX        ++++++++++++++++",
"++++++++++++++++        XXXXXXXXXXXXXXXX        ++++++++++++++++",
"++++++++++++++++        XXXXXXXXXXXXXXXX        ++++++++++++++++",
"++++++++++++++++        XXXXXXXXXXXXXXXX        ++++++++++++++++",
"++++++++++++++++++++++++                ++++++++++++++++++++++++",
"++++++++++++++++++++++++                ++++++++++++++++++++++++",
"++++++++++++++++++++++++                ++++++++++++++++++++++++",
"++++++++++++++++++++++++                ++++++++++++++++++++++++"
};
