/* XPM */
static char *result[] = {
/* columns rows colors chars-per-pixel */
"64 64 10 1 ",
"  c black",
". c #8C4121",
"X c #FFC30E",
"o c #FFEA61",
"O c white",
"g c #FFD454",
"h c #FFDF8F",
"i c #F57AF5",
"j c #FFEBBD",
"k c #FCAEFC",
/* pixels */
"kkkkiiiikkkkiiiikkkkiiiikk            iikkkkiiiikkkkiiiikkkkiiii",
"kkkkiiiikkkkiiiikkkkiiiikk            iikkkkiiiikkkkiiiikkkkiiii",
"gggggggggggggggggggggggggg            gggggggggggggggggggggggggg",
"gggggggggggggggggggggggggg            gggggggggggggggggggggggggg",
"jjjjjjjjjjjjhhggjjjjjj    XXXXXXXX....    jjhhggjjjjjjjjjjjjjjjj",
"jjjjjjjjjjjjhhggjjjjjj    XXXXXXXX....    jjhhggjjjjjjjjjjjjjjjj",
"jjjjjjjjjjjjhhggjjjjjj    XXXXXXXX....    jjhhggjjjjjjjjjjjjjjjj",
"jjjjjjjjjjjjhhggjjjjjj    XXXXXXXX....    jjhhggjjjjjjjjjjjjjjjj",
"jjjjjjjjjjjjhhggjj    OOOOOOOO....XXXX....    ggjjjjjjjjjjjjjjjj",
"jjjjjjjjjjjjhhggjj    OOOOOOOO....XXXX....    ggjjjjjjjjjjjjjjjj",
"hhhhhhhhhhhhhhgghh    OOOOOOOO....XXXX....    gghhhhhhhhhhhhhhhh",
"hhhhhhhhhhhhhhgghh    OOOOOOOO....XXXX....    gghhhhhhhhhhhhhhhh",
"gggggggggggggggggg    oooooooo....XXXX....    gggggggggggggggggg",
"gggggggggggggggggg    oooooooo....XXXX....    gggggggggggggggggg",
"iiiikkkkiiiikkkkii    oooooooo....XXXX....    kkiiiikkkkiiiikkkk",
"iiiikkkkiiiikkkkii    oooooooo....XXXX....    kkiiiikkkkiiiikkkk",
"kkkkiiiikkkkii    OOOOOOOO....XXXXXXXXXXXX....    kkiiiikkkkiiii",
"kkkkiiiikkkkii    OOOOOOOO....XXXXXXXXXXXX....    kkiiiikkkkiiii",
"gggggggggggggg    OOOOOOOO....XXXXXXXXXXXX....    gggggggggggggg",
"gggggggggggggg    OOOOOOOO....XXXXXXXXXXXX....    gggggggggggggg",
"jjjjjjjjjjjjhh    OOOOOOOO....XXXX....oooo....    jjjjjjjjjjjjjj",
"jjjjjjjjjjjjhh    OOOOOOOO....XXXX....oooo....    jjjjjjjjjjjjjj",
"jjjjjjjjjjjjhh    OOOOOOOO....XXXX....oooo....    jjjjjjjjjjjjjj",
"jjjjjjjjjjjjhh    OOOOOOOO....XXXX....oooo....    jjjjjjjjjjjjjj",
"jjjjjjjjjjjjhh    OOOOOOOO....XXXX....oooo....    jjjjjjjjjjjjjj",
"jjjjjjjjjjjjhh    OOOOOOOO....XXXX....oooo....    jjjjjjjjjjjjjj",
"hhhhhhhhhhhhhh    OOOOOOOO....XXXX....oooo....    hhhhhhhhhhhhhh",
"hhhhhhhhhhhhhh    OOOOOOOO....XXXX....oooo....    hhhhhhhhhhhhhh",
"gggggggggggggg    OOOOoooo....oooo....oooo....    gggggggggggggg",
"gggggggggggggg    OOOOoooo....oooo....oooo....    gggggggggggggg",
"iiiikkkkiiiikk    OOOOoooo....oooo....oooo....    iikkkkiiiikkkk",
"iiiikkkkiiiikk    OOOOoooo....oooo....oooo....    iikkkkiiiikkkk",
"kkkkiiiikkkkii    oooooooo....oooo....oooo....    kkiiiikkkkiiii",
"kkkkiiiikkkkii    oooooooo....oooo....oooo....    kkiiiikkkkiiii",
"gggggggggggggg    oooooooo....oooo....oooo....    gggggggggggggg",
"gggggggggggggg    oooooooo....oooo....oooo....    gggggggggggggg",
"jjjjjjjjjjjjhh    oooooooo....ooooXXXXoooo....    jjjjjjjjjjjjjj",
"jjjjjjjjjjjjhh    oooooooo....ooooXXXXoooo....    jjjjjjjjjjjjjj",
"jjjjjjjjjjjjhh    oooooooo....ooooXXXXoooo....    jjjjjjjjjjjjjj",
"jjjjjjjjjjjjhh    oooooooo....ooooXXXXoooo....    jjjjjjjjjjjjjj",
"jjjjjjjjjjjjhh    oooooooo....ooooXXXXoooo....    jjjjjjjjjjjjjj",
"jjjjjjjjjjjjhh    oooooooo....ooooXXXXoooo....    jjjjjjjjjjjjjj",
"hhhhhhhhhhhhhh    oooooooo....ooooXXXXoooo....    hhhhhhhhhhhhhh",
"hhhhhhhhhhhhhh    oooooooo....ooooXXXXoooo....    hhhhhhhhhhhhhh",
"gggggggggggggg    oooooooo....oooooooooooo....    gggggggggggggg",
"gggggggggggggg    oooooooo....oooooooooooo....    gggggggggggggg",
"iiiikkkkiiiikk    oooooooo....oooooooooooo....    iikkkkiiiikkkk",
"iiiikkkkiiiikk    oooooooo....oooooooooooo....    iikkkkiiiikkkk",
"kkkkiiiikkkkii    oooooooo....oooooooooooo....    kkiiiikkkkiiii",
"kkkkiiiikkkkii    oooooooo....oooooooooooo....    kkiiiikkkkiiii",
"gggggggggggggggggg    XXXXXXXX....oooo....    gggggggggggggggggg",
"gggggggggggggggggg    XXXXXXXX....oooo....    gggggggggggggggggg",
"jjjjjjjjjjjjhhggjj    XXXXXXXX....oooo....    ggjjjjjjjjjjjjjjjj",
"jjjjjjjjjjjjhhggjj    XXXXXXXX....oooo....    ggjjjjjjjjjjjjjjjj",
"jjjjjjjjjjjjhhggjj    oooooooo....oooo....    ggjjjjjjjjjjjjjjjj",
"jjjjjjjjjjjjhhggjj    oooooooo....oooo....    ggjjjjjjjjjjjjjjjj",
"jjjjjjjjjjjjhhggjj    oooooooo....oooo....    ggjjjjjjjjjjjjjjjj",
"jjjjjjjjjjjjhhggjj    oooooooo....oooo....    ggjjjjjjjjjjjjjjjj",
"hhhhhhhhhhhhhhgghhhhhh    XXXXXXXX....    hhhhgghhhhhhhhhhhhhhhh",
"hhhhhhhhhhhhhhgghhhhhh    XXXXXXXX....    hhhhgghhhhhhhhhhhhhhhh",
"gggggggggggggggggggggg    XXXXXXXX....    gggggggggggggggggggggg",
"gggggggggggggggggggggg    XXXXXXXX....    gggggggggggggggggggggg",
"iiiikkkkiiiikkkkiiiikkkkii            kkiiiikkkkiiiikkkkiiiikkkk",
"iiiikkkkiiiikkkkiiiikkkkii            kkiiiikkkkiiiikkkkiiiikkkk"
};
