/* XPM */
static char *result[] = {
/* columns rows colors chars-per-pixel */
"64 64 6 1 ",
"  c black",
". c #8C4121",
"X c #FFC30E",
"o c #FFEA61",
"O c white",
"+ c None",
/* pixels */
"++++++++++++++++++++++++                ++++++++++++++++++++++++",
"++++++++++++++++++++++++                ++++++++++++++++++++++++",
"++++++++++++++++++++++++                ++++++++++++++++++++++++",
"++++++++++++++++++++++++                ++++++++++++++++++++++++",
"++++++++++++++++        OOOO............        ++++++++++++++++",
"++++++++++++++++        OOOO............        ++++++++++++++++",
"++++++++++++++++        OOOO............        ++++++++++++++++",
"++++++++++++++++        OOOO............        ++++++++++++++++",
"++++++++++++    OOOO........XXXXXXXXoooo........    ++++++++++++",
"++++++++++++    OOOO........XXXXXXXXoooo........    ++++++++++++",
"++++++++++++    OOOO........XXXXXXXXoooo........    ++++++++++++",
"++++++++++++    OOOO........XXXXXXXXoooo........    ++++++++++++",
"++++++++    OOOO....XXXXXXXXoooooooooooooooooooo....    ++++++++",
"++++++++    OOOO....XXXXXXXXoooooooooooooooooooo....    ++++++++",
"++++++++    OOOO....XXXXXXXXoooooooooooooooooooo....    ++++++++",
"++++++++    OOOO....XXXXXXXXoooooooooooooooooooo....    ++++++++",
"++++++++    OOOO....XXXXoooooooo........oooooooo....    ++++++++",
"++++++++    OOOO....XXXXoooooooo........oooooooo....    ++++++++",
"++++++++    OOOO....XXXXoooooooo........oooooooo....    ++++++++",
"++++++++    OOOO....XXXXoooooooo........oooooooo....    ++++++++",
"++++    OOOO....XXXXoooooooo....XXXXXXXX....oooooooo....    ++++",
"++++    OOOO....XXXXoooooooo....XXXXXXXX....oooooooo....    ++++",
"++++    OOOO....XXXXoooooooo....XXXXXXXX....oooooooo....    ++++",
"++++    OOOO....XXXXoooooooo....XXXXXXXX....oooooooo....    ++++",
"++++    OOOO....XXXXoooo....XXXXXXXXXXXXooooXXXXoooo....    ++++",
"++++    OOOO....XXXXoooo....XXXXXXXXXXXXooooXXXXoooo....    ++++",
"++++    OOOO....XXXXoooo....XXXXXXXXXXXXooooXXXXoooo....    ++++",
"++++    OOOO....XXXXoooo....XXXXXXXXXXXXooooXXXXoooo....    ++++",
"++++    OOOO....XXXXoooo....XXXXXXXXooooooooXXXXoooo....    ++++",
"++++    OOOO....XXXXoooo....XXXXXXXXooooooooXXXXoooo....    ++++",
"++++    OOOO....XXXXoooo....XXXXXXXXooooooooXXXXoooo....    ++++",
"++++    OOOO....XXXXoooo....XXXXXXXXooooooooXXXXoooo....    ++++",
"++++    OOOO....XXXXoooo....XXXXooooooooooooXXXXoooo....    ++++",
"++++    OOOO....XXXXoooo....XXXXooooooooooooXXXXoooo....    ++++",
"++++    OOOO....XXXXoooo....XXXXooooooooooooXXXXoooo....    ++++",
"++++    OOOO....XXXXoooo....XXXXooooooooooooXXXXoooo....    ++++",
"++++    oooo....XXXXoooo....ooooooooooooooooXXXXoooo....    ++++",
"++++    oooo....XXXXoooo....ooooooooooooooooXXXXoooo....    ++++",
"++++    oooo....XXXXoooo....ooooooooooooooooXXXXoooo....    ++++",
"++++    oooo....XXXXoooo....ooooooooooooooooXXXXoooo....    ++++",
"++++    oooo....XXXXooooooooXXXXooooooooXXXXoooooooo....    ++++",
"++++    oooo....XXXXooooooooXXXXooooooooXXXXoooooooo....    ++++",
"++++    oooo....XXXXooooooooXXXXooooooooXXXXoooooooo....    ++++",
"++++    oooo....XXXXooooooooXXXXooooooooXXXXoooooooo....    ++++",
"++++++++    oooo....XXXXooooooooXXXXXXXXoooooooo....    ++++++++",
"++++++++    oooo....XXXXooooooooXXXXXXXXoooooooo....    ++++++++",
"++++++++    oooo....XXXXooooooooXXXXXXXXoooooooo....    ++++++++",
"++++++++    oooo....XXXXooooooooXXXXXXXXoooooooo....    ++++++++",
"++++++++    oooo....XXXXXXXXoooooooooooooooooooo....    ++++++++",
"++++++++    oooo....XXXXXXXXoooooooooooooooooooo....    ++++++++",
"++++++++    oooo....XXXXXXXXoooooooooooooooooooo....    ++++++++",
"++++++++    oooo....XXXXXXXXoooooooooooooooooooo....    ++++++++",
"++++++++++++    oooo........XXXXXXXXXXXX........    ++++++++++++",
"++++++++++++    oooo........XXXXXXXXXXXX........    ++++++++++++",
"++++++++++++    oooo........XXXXXXXXXXXX........    ++++++++++++",
"++++++++++++    oooo........XXXXXXXXXXXX........    ++++++++++++",
"++++++++++++++++        oooo............        ++++++++++++++++",
"++++++++++++++++        oooo............        ++++++++++++++++",
"++++++++++++++++        oooo............        ++++++++++++++++",
"++++++++++++++++        oooo............        ++++++++++++++++",
"++++++++++++++++++++++++                ++++++++++++++++++++++++",
"++++++++++++++++++++++++                ++++++++++++++++++++++++",
"++++++++++++++++++++++++                ++++++++++++++++++++++++",
"++++++++++++++++++++++++                ++++++++++++++++++++++++"
};
