/* XPM */
static char *result[] = {
/* columns rows colors chars-per-pixel */
"64 64 10 1 ",
"  c black",
". c #8C4121",
"X c #FFC30E",
"o c #FFEA61",
"O c white",
"g c #FFD454",
"h c #FFDF8F",
"i c #F57AF5",
"j c #FFEBBD",
"k c #FCAEFC",
/* pixels */
"kkkkiiiikkkkiiiikkkkiiii                kkkkiiiikkkkiiiikkkkiiii",
"kkkkiiiikkkkiiiikkkkiiii                kkkkiiiikkkkiiiikkkkiiii",
"gggggggggggggggggggggggg                gggggggggggggggggggggggg",
"gggggggggggggggggggggggg                gggggggggggggggggggggggg",
"jjjjjjjjjjjjhhgg        XXXXXXXXXXXXXXXX        jjjjjjjjjjjjjjjj",
"jjjjjjjjjjjjhhgg        XXXXXXXXXXXXXXXX        jjjjjjjjjjjjjjjj",
"jjjjjjjjjjjjhhgg        XXXXXXXXXXXXXXXX        jjjjjjjjjjjjjjjj",
"jjjjjjjjjjjjhhgg        XXXXXXXXXXXXXXXX        jjjjjjjjjjjjjjjj",
"jjjjjjjjjjjj    XXXXXXXXOOOOoooooooooooo........    jjjjjjjjjjjj",
"jjjjjjjjjjjj    XXXXXXXXOOOOoooooooooooo........    jjjjjjjjjjjj",
"hhhhhhhhhhhh    XXXXXXXXOOOOoooooooooooo........    hhhhhhhhhhhh",
"hhhhhhhhhhhh    XXXXXXXXOOOOoooooooooooo........    hhhhhhhhhhhh",
"gggggggg    XXXXOOOOOOOOoooooooooooooooooooooooo....    gggggggg",
"gggggggg    XXXXOOOOOOOOoooooooooooooooooooooooo....    gggggggg",
"iiiikkkk    XXXXOOOOOOOOoooooooooooooooooooooooo....    iiiikkkk",
"iiiikkkk    XXXXOOOOOOOOoooooooooooooooooooooooo....    iiiikkkk",
"kkkk    XXXXOOOOoooooooo................oooooooooooo....    iiii",
"kkkk    XXXXOOOOoooooooo................oooooooooooo....    iiii",
"gggg    XXXXOOOOoooooooo................oooooooooooo....    gggg",
"gggg    XXXXOOOOoooooooo................oooooooooooo....    gggg",
"jjjj    XXXXOOOOoooo....XXXXXXXXXXXXXXXX....oooooooo....    jjjj",
"jjjj    XXXXOOOOoooo....XXXXXXXXXXXXXXXX....oooooooo....    jjjj",
"jjjj    XXXXOOOOoooo....XXXXXXXXXXXXXXXX....oooooooo....    jjjj",
"jjjj    XXXXOOOOoooo....XXXXXXXXXXXXXXXX....oooooooo....    jjjj",
"    XXXXOOOOoooo....XXXXXXXXXXXXXXXXooooooooXXXXoooooooo....    ",
"    XXXXOOOOoooo....XXXXXXXXXXXXXXXXooooooooXXXXoooooooo....    ",
"    XXXXOOOOoooo....XXXXXXXXXXXXXXXXooooooooXXXXoooooooo....    ",
"    XXXXOOOOoooo....XXXXXXXXXXXXXXXXooooooooXXXXoooooooo....    ",
"    XXXXoooooooo....XXXXXXXXXXXXooooooooooooXXXXoooooooo....    ",
"    XXXXoooooooo....XXXXXXXXXXXXooooooooooooXXXXoooooooo....    ",
"    XXXXoooooooo....XXXXXXXXXXXXooooooooooooXXXXoooooooo....    ",
"    XXXXoooooooo....XXXXXXXXXXXXooooooooooooXXXXoooooooo....    ",
"    XXXXoooooooo....XXXXXXXXooooooooooooOOOOXXXXoooooooo....    ",
"    XXXXoooooooo....XXXXXXXXooooooooooooOOOOXXXXoooooooo....    ",
"    XXXXoooooooo....XXXXXXXXooooooooooooOOOOXXXXoooooooo....    ",
"    XXXXoooooooo....XXXXXXXXooooooooooooOOOOXXXXoooooooo....    ",
"    XXXXoooooooo....XXXXooooooooooooOOOOOOOOXXXXoooooooo....    ",
"    XXXXoooooooo....XXXXooooooooooooOOOOOOOOXXXXoooooooo....    ",
"    XXXXoooooooo....XXXXooooooooooooOOOOOOOOXXXXoooooooo....    ",
"    XXXXoooooooo....XXXXooooooooooooOOOOOOOOXXXXoooooooo....    ",
"jjjj    XXXXoooooooo....ooooooooOOOOOOOOXXXXoooooooo....    jjjj",
"jjjj    XXXXoooooooo....ooooooooOOOOOOOOXXXXoooooooo....    jjjj",
"hhhh    XXXXoooooooo....ooooooooOOOOOOOOXXXXoooooooo....    hhhh",
"hhhh    XXXXoooooooo....ooooooooOOOOOOOOXXXXoooooooo....    hhhh",
"gggg    XXXXooooooooooooXXXXXXXXXXXXXXXXoooooooooooo....    gggg",
"gggg    XXXXooooooooooooXXXXXXXXXXXXXXXXoooooooooooo....    gggg",
"iiii    XXXXooooooooooooXXXXXXXXXXXXXXXXoooooooooooo....    kkkk",
"iiii    XXXXooooooooooooXXXXXXXXXXXXXXXXoooooooooooo....    kkkk",
"kkkkiiii    XXXXoooooooooooooooooooooooooooooooo....    kkkkiiii",
"kkkkiiii    XXXXoooooooooooooooooooooooooooooooo....    kkkkiiii",
"gggggggg    XXXXoooooooooooooooooooooooooooooooo....    gggggggg",
"gggggggg    XXXXoooooooooooooooooooooooooooooooo....    gggggggg",
"jjjjjjjjjjjj    XXXXXXXXoooooooooooooooo........    jjjjjjjjjjjj",
"jjjjjjjjjjjj    XXXXXXXXoooooooooooooooo........    jjjjjjjjjjjj",
"jjjjjjjjjjjj    XXXXXXXXoooooooooooooooo........    jjjjjjjjjjjj",
"jjjjjjjjjjjj    XXXXXXXXoooooooooooooooo........    jjjjjjjjjjjj",
"jjjjjjjjjjjjhhgg        XXXXXXXXXXXXXXXX        jjjjjjjjjjjjjjjj",
"jjjjjjjjjjjjhhgg        XXXXXXXXXXXXXXXX        jjjjjjjjjjjjjjjj",
"hhhhhhhhhhhhhhgg        XXXXXXXXXXXXXXXX        hhhhhhhhhhhhhhhh",
"hhhhhhhhhhhhhhgg        XXXXXXXXXXXXXXXX        hhhhhhhhhhhhhhhh",
"gggggggggggggggggggggggg                gggggggggggggggggggggggg",
"gggggggggggggggggggggggg                gggggggggggggggggggggggg",
"iiiikkkkiiiikkkkiiiikkkk                iiiikkkkiiiikkkkiiiikkkk",
"iiiikkkkiiiikkkkiiiikkkk                iiiikkkkiiiikkkkiiiikkkk"
};
