/* XPM */
static char *result[] = {
/* columns rows colors chars-per-pixel */
"64 64 7 1 ",
"  c #FFC30E",
". c #FFD154",
"X c #F57AF5",
"o c #00B7EF",
"O c #FFDF8F",
"+ c #FCAEFC",
"@ c white",
/* pixels */
"++++XXXX++++XXXX++++XXXX++++XXXX++ooooXX++ooXXXX++++XXXX++++XXXX",
"++++XXXX++++XXXX++++XXXX++++XXXX++ooooXX++ooXXXX++++XXXX++++XXXX",
"                                oo    oooo                      ",
"                                oo    oooo                      ",
"OOOOOOOOOOOO..  OOOOOOOOOOOOoo@@@@@@OOOOOOOO..ooooooOOOOOOOOOOOO",
"OOOOOOOOOOOO..  OOOOOOOOOOOOoo@@@@@@OOOOOOOO..ooooooOOOOOOOOOOOO",
"OOOOOOOOOOOO..  OOOOOOOOOO@@@@ooooooooOOOOOO..  ooooooOOOOOOOOOO",
"OOOOOOOOOOOO..  OOOOOOOOOO@@@@ooooooooOOOOOO..  ooooooOOOOOOOOOO",
"OOOOOOOOOOoo..ooOOOOOOooooooooooooooooooooOO..  OOOOooooOOOOOOOO",
"OOOOOOOOOOoo..ooOOOOOOooooooooooooooooooooOO..  OOOOooooOOOOOOOO",
"......oooooo..oo..ooooooooooo@@@@@@@@@@@oooooooooo..............",
"......oooooo..oo..ooooooooooo@@@@@@@@@@@oooooooooo..............",
"      oooo    oo  ooooo@@@@@@ooooooooooo@@@@oo    oo            ",
"      oooo    oo  ooooo@@@@@@ooooooooooo@@@@oo    oo            ",
"XXXXooooXXXXoo++ooo@@@@ooooooooooooooooooooo@@@@XXXXooooXXXX++++",
"XXXXooooXXXXoo++ooo@@@@ooooooooooooooooooooo@@@@XXXXooooXXXX++++",
"++++XXXX++ooXXXXo@@oooooooo@@@@@@@@@@@@@@@oooooo++++XXXX++++XXXX",
"++++XXXX++ooXXXXo@@oooooooo@@@@@@@@@@@@@@@oooooo++++XXXX++++XXXX",
"          oo  ooo@@oooo@@@@ooooooooooooooo@@oooooo              ",
"          oo  ooo@@oooo@@@@ooooooooooooooo@@oooooo              ",
"ooOOOOOOOOooooo@@oooo@@ooooooooooooooooooooo@@oooooo@@OOOOOOOOOO",
"ooOOOOOOOOooooo@@oooo@@ooooooooooooooooooooo@@oooooo@@OOOOOOOOOO",
"OOooOOOOOOooo@@oooo@@ooooooo@@@@@@@@@@@@@@oooo@@oooo@@OOOOOOOOOO",
"OOooOOOOOOooo@@oooo@@ooooooo@@@@@@@@@@@@@@oooo@@oooo@@OOOOOOOOOO",
"OOooOOOOooooo@@oooo@@ooooo@@oooooooooooooo@@oooo@@oooo@@OOOOOOOO",
"OOooOOOOooooo@@oooo@@ooooo@@oooooooooooooo@@oooo@@oooo@@OOOOOOOO",
"ooOOOOooooo@@oooo@@ooooo@@oooo@@@@@@@@oooo@@oooo@@oooo@@oo......",
"ooOOOOooooo@@oooo@@ooooo@@oooo@@@@@@@@oooo@@oooo@@oooo@@oo......",
"oo  @@ooooo@@oooo@@ooooo@@oo@@oooooooo@@oo@@oooo@@oooo@@oooo    ",
"oo  @@ooooo@@oooo@@ooooo@@oo@@oooooooo@@oo@@oooo@@oooo@@oooo    ",
"XXoo@@ooooo@@oooo@@ooooo@@oo@@oo@@oooo@@oo@@oooo@@oooo@@oooo++++",
"XXoo@@ooooo@@oooo@@ooooo@@oo@@oo@@oooo@@oo@@oooo@@oooo@@oooo++++",
"++++@@ooooo@@oooo@@ooooo@@oo@@oooo@@oo@@oo@@oooo@@oooo@@oooo@@XX",
"++++@@ooooo@@oooo@@ooooo@@oo@@oooo@@oo@@oo@@oooo@@oooo@@oooo@@XX",
"    oo@@ooo@@oooo@@ooooo@@oooo@@@@oooo@@oo@@oooo@@oooo@@oooo  oo",
"    oo@@ooo@@oooo@@ooooo@@oooo@@@@oooo@@oo@@oooo@@oooo@@oooo  oo",
"OOOOOO@@ooooo@@oooo@@ooooo@@oooooooo@@oooo@@oooo@@oooo@@ooOOOOoo",
"OOOOOO@@ooooo@@oooo@@ooooo@@oooooooo@@oooo@@oooo@@oooo@@ooOOOOoo",
"OOOOOOOOooooo@@oooo@@ooooooo@@@@@@@@@@oooo@@oooo@@oooo@@OOOOooOO",
"OOOOOOOOooooo@@oooo@@ooooooo@@@@@@@@@@oooo@@oooo@@oooo@@OOOOooOO",
"OOOOOOOOOOooooo@@oooo@@ooooooooooooooooo@@oooooo@@ooooOOOOOOooOO",
"OOOOOOOOOOooooo@@oooo@@ooooooooooooooooo@@oooooo@@ooooOOOOOOooOO",
"..........ooooooo@@oooo@@@@@@@@@@@@@@@@@oooo@@@@oooooo........oo",
"..........ooooooo@@oooo@@@@@@@@@@@@@@@@@oooo@@@@oooooo........oo",
"              ooo@@@@ooooooooooooooooooooo@@@@oooo  oo          ",
"              ooo@@@@ooooooooooooooooooooo@@@@oooo  oo          ",
"XXXX++++XXXX++ooooooo@@ooooooooooooooooo@@ooooooooXXoo++XXXX++++",
"XXXX++++XXXX++ooooooo@@ooooooooooooooooo@@ooooooooXXoo++XXXX++++",
"++++XXXXooooXXXX++ooooo@@@@@@@@@@@@@@@@@ooooooXX++++ooXX++++XXXX",
"++++XXXXooooXXXX++ooooo@@@@@@@@@@@@@@@@@ooooooXX++++ooXX++++XXXX",
"            oo      @@oooooooooooooooooooooo      oo    oooo    ",
"            oo      @@oooooooooooooooooooooo      oo    oooo    ",
"OOOOOOooooOO..oooooooo@@@@oooooooooooooo@@OO..  ooOOOOooooOOOOOO",
"OOOOOOooooOO..oooooooo@@@@oooooooooooooo@@OO..  ooOOOOooooOOOOOO",
"OOOOOOOOoooo..  OOOOOOOOoo@@@@@@@@@@@@@@ooOO..  ooOOooooooOOOOOO",
"OOOOOOOOoooo..  OOOOOOOOoo@@@@@@@@@@@@@@ooOO..  ooOOooooooOOOOOO",
"OOOOOOOOoooo..  OOOOOOOOOOooooooooooooOOOOOO..  OOOOooOOOOOOOOOO",
"OOOOOOOOoooo..  OOOOOOOOOOooooooooooooOOOOOO..  OOOOooOOOOOOOOOO",
"..........oooo  ............oooooooo..........  ................",
"..........oooo  ............oooooooo..........  ................",
"                      oooo    @@                                ",
"                      oooo    @@                                ",
"XXXX++++XXXX++++XXXXoo++XXoooo++XXXX++++XXXX++++XXXX++++XXXX++++",
"XXXX++++XXXX++++XXXXoo++XXoooo++XXXX++++XXXX++++XXXX++++XXXX++++"
};
