/* XPM */
static char *result[] = {
/* columns rows colors chars-per-pixel */
"64 64 12 1 ",
"  c black",
". c #22B14C",
"X c #A8E61D",
"o c #4D6DF3",
"O c #00B7EF",
"+ c #E6B798",
"@ c white",
"g c #FFD454",
"h c #FFDF8F",
"i c #F57AF5",
"j c #FFEBBD",
"k c #FCAEFC",
/* pixels */
"iiiikkkkiiiikkkkiiiikkkkii                      iiiikkkkiiiikkkk",
"iiiikkkkiiiikkkkiiiikkkkii                      iiiikkkkiiiikkkk",
"gggggggggggggggggggggggggg                      gggggggggggggggg",
"gggggggggggggggggggggggggg                      gggggggggggggggg",
"jjjjjjjjjjjjjjjjgghhjj    @@@@@@@@@@@@@@@@@@@@@@    jjjjjjjjjjjj",
"jjjjjjjjjjjjjjjjgghhjj    @@@@@@@@@@@@@@@@@@@@@@    jjjjjjjjjjjj",
"jjjjjjjjjjjjjjjjgghhjj    @@@@@@@@@@@@@@@@@@@@@@    jjjjjjjjjjjj",
"jjjjjjjjjjjjjjjjgghhjj    @@@@@@@@@@@@@@@@@@@@@@    jjjjjjjjjjjj",
"jjjjjjjjjjjjjjjjgg    @@@@@@@@@@@@@@@@@@@@@@@@@@@@@@    jjjjjjjj",
"jjjjjjjjjjjjjjjjgg    @@@@@@@@@@@@@@@@@@@@@@@@@@@@@@    jjjjjjjj",
"hhhhhhhhhhhhhhhhgg    @@@@@@@@@@@@@@@@@@@@@@@@@@@@@@    hhhhhhhh",
"hhhhhhhhhhhhhhhhgg    @@@@@@@@@@@@@@@@@@@@@@@@@@@@@@    hhhhhhhh",
"gggggggggggggggggg    @@@@@@@@@@@@@@@@@@@@@@@@++++++    gggggggg",
"gggggggggggggggggg    @@@@@@@@@@@@@@@@@@@@@@@@++++++    gggggggg",
"kkkkiiiikkkkiiiikk    @@@@@@@@@@@@@@@@@@@@@@++++++++    kkkkiiii",
"kkkkiiiikkkkiiiikk    @@@@@@@@@@@@@@@@@@@@@@++++++++    kkkkiiii",
"iiiikkkkiiiikkkkii    @@@@@@@@@@@@@@@@@@@@++++    ++    iiiikkkk",
"iiiikkkkiiiikkkkii    @@@@@@@@@@@@@@@@@@@@++++    ++    iiiikkkk",
"gggggggggggggggggg    @@@@@@@@@@@@@@@@@@@@++++    ++    gggggggg",
"gggggggggggggggggg    @@@@@@@@@@@@@@@@@@@@++++    ++    gggggggg",
"jjjjjjjjjjjjjjjjgg    @@@@@@@@@@@@@@@@@@@@++++++++++    jjjjjjjj",
"jjjjjjjjjjjjjjjjgg    @@@@@@@@@@@@@@@@@@@@++++++++++    jjjjjjjj",
"jjjjjjjjjjjjjjjjgg    @@@@@@@@@@@@@@@@@@@@++++++++++    jjjjjjjj",
"jjjjjjjjjjjjjjjjgg    @@@@@@@@@@@@@@@@@@@@++++++++++    jjjjjjjj",
"jjjjjjjjjjjjjjjjgg    @@@@@@@@@@@@@@@@@@@@++++++++      jjjjjjjj",
"jjjjjjjjjjjjjjjjgg    @@@@@@@@@@@@@@@@@@@@++++++++      jjjjjjjj",
"hhhhhhhhhhhhhhhhgg    @@@@@@@@@@@@@@@@@@@@++++++++      hhhhhhhh",
"hhhhhhhhhhhhhhhhgg    @@@@@@@@@@@@@@@@@@@@++++++++      hhhhhhhh",
"gggggggggggggg        @@@@@@@@@@@@@@@@@@@@@@++++++++    gggggggg",
"gggggggggggggg        @@@@@@@@@@@@@@@@@@@@@@++++++++    gggggggg",
"kkkkiiiikkkk    XXXXXX@@@@@@@@@@@@@@@@@@@@@@@@++++++    kkkkiiii",
"kkkkiiiikkkk    XXXXXX@@@@@@@@@@@@@@@@@@@@@@@@++++++    kkkkiiii",
"iiiikkkkiiii  XXXXXXXX......................@@@@@@@@    iiiikkkk",
"iiiikkkkiiii  XXXXXXXX......................@@@@@@@@    iiiikkkk",
"gggggggggg  XXXXXXXXXX......................@@@@@@@@    gggggggg",
"gggggggggg  XXXXXXXXXX......................@@@@@@@@    gggggggg",
"jjjjjjjj  XXXXXXXXXXXX......OOOOOO++++++....OOOOOOOO    jjjjjjjj",
"jjjjjjjj  XXXXXXXXXXXX......OOOOOO++++++....OOOOOOOO    jjjjjjjj",
"jjjjjjjj  ..XXXXXXXXXX....OOOOOOOO++++++....OOOOOOOO    jjjjjjjj",
"jjjjjjjj  ..XXXXXXXXXX....OOOOOOOO++++++....OOOOOOOO    jjjjjjjj",
"jjjjjjjj  XXXXXXXXXXXX....OOOOOOOO++++++..OOOOOOOOOO    jjjjjjjj",
"jjjjjjjj  XXXXXXXXXXXX....OOOOOOOO++++++..OOOOOOOOOO    jjjjjjjj",
"hhhhhhhh  ................OOOO....++++++OOOOOOOOOOOO    hhhhhhhh",
"hhhhhhhh  ................OOOO....++++++OOOOOOOOOOOO    hhhhhhhh",
"gggggggg    ..............OO..OOOO++++++OOOOOOOOOOOO    gggggggg",
"gggggggg    ..............OO..OOOO++++++OOOOOOOOOOOO    gggggggg",
"kkkkiiiikk    ..............OOOOOO++++++OOOOOOOOOOOO    kkkkiiii",
"kkkkiiiikk    ..............OOOOOO++++++OOOOOOOOOOOO    kkkkiiii",
"iiiikkkkiiiikk        OOOOOOOOOOOOOOOOOOOOOOOOOOOOOO    iiiikkkk",
"iiiikkkkiiiikk        OOOOOOOOOOOOOOOOOOOOOOOOOOOOOO    iiiikkkk",
"gggggggggggggggggg    OOOOOOOOOOOOOOOOOOOOOOOOOOOOOO    gggggggg",
"gggggggggggggggggg    OOOOOOOOOOOOOOOOOOOOOOOOOOOOOO    gggggggg",
"jjjjjjjjjjjjjjjjgg    oooooooooooooooooooooooooooooo    jjjjjjjj",
"jjjjjjjjjjjjjjjjgg    oooooooooooooooooooooooooooooo    jjjjjjjj",
"jjjjjjjjjjjjjjjjgghhjj    oooooooooooooooooooooo    jjjjjjjjjjjj",
"jjjjjjjjjjjjjjjjgghhjj    oooooooooooooooooooooo    jjjjjjjjjjjj",
"jjjjjjjjjjjjjjjjgghhjjjjjj    oooooooooooooo    gghhjjjjjjjjjjjj",
"jjjjjjjjjjjjjjjjgghhjjjjjj    oooooooooooooo    gghhjjjjjjjjjjjj",
"hhhhhhhhhhhhhhhhgghhhhhhhh    oooooooooooooo    gghhhhhhhhhhhhhh",
"hhhhhhhhhhhhhhhhgghhhhhhhh    oooooooooooooo    gghhhhhhhhhhhhhh",
"gggggggggggggggggggggggggggggg              gggggggggggggggggggg",
"gggggggggggggggggggggggggggggg              gggggggggggggggggggg",
"kkkkiiiikkkkiiiikkkkiiiikkkkii              iiiikkkkiiiikkkkiiii",
"kkkkiiiikkkkiiiikkkkiiiikkkkii              iiiikkkkiiiikkkkiiii"
};
