/* XPM */
static char *result[] = {
/* columns rows colors chars-per-pixel */
"64 64 7 1 ",
"  c black",
". c #22B14C",
"X c #4D6DF3",
"o c #00B7EF",
"O c #E6B798",
"+ c white",
"@ c None",
/* pixels */
"@@@@@@@@@@        @@@@@@@@@@@@@@@@@@@@@@@@@@@@        @@@@@@@@@@",
"@@@@@@@@@@        @@@@@@@@@@@@@@@@@@@@@@@@@@@@        @@@@@@@@@@",
"@@@@@@@@@@        @@@@@@@@@@@@@@@@@@@@@@@@@@@@        @@@@@@@@@@",
"@@@@@@@@@@        @@@@@@@@@@@@@@@@@@@@@@@@@@@@        @@@@@@@@@@",
"@@@@@@    ++++++++                            ++++++++    @@@@@@",
"@@@@@@    ++++++++                            ++++++++    @@@@@@",
"@@@@@@    ++++++++                            ++++++++    @@@@@@",
"@@@@@@    ++++++++                            ++++++++    @@@@@@",
"@@@@@@    ++++++++++++++++++++++++++++++++++++++++++++    @@@@@@",
"@@@@@@    ++++++++++++++++++++++++++++++++++++++++++++    @@@@@@",
"@@@@@@    ++++++++++++++++++++++++++++++++++++++++++++    @@@@@@",
"@@@@@@    ++++++++++++++++++++++++++++++++++++++++++++    @@@@@@",
"@@@@@@    ++++++++OOOOOOOOOOOOOOOOOOOOOOOOOOOO++++++++    @@@@@@",
"@@@@@@    ++++++++OOOOOOOOOOOOOOOOOOOOOOOOOOOO++++++++    @@@@@@",
"@@@@@@    ++++++++OOOOOOOOOOOOOOOOOOOOOOOOOOOO++++++++    @@@@@@",
"@@@@@@    ++++++++OOOOOOOOOOOOOOOOOOOOOOOOOOOO++++++++    @@@@@@",
"@@@@@@    ++++OOOOOOOOOOOOOOOOOOOOOOOOOOOOOOOOOOOO++++    @@@@@@",
"@@@@@@    ++++OOOOOOOOOOOOOOOOOOOOOOOOOOOOOOOOOOOO++++    @@@@@@",
"@@@@@@    ++++OOOOOOOOOOOOOOOOOOOOOOOOOOOOOOOOOOOO++++    @@@@@@",
"@@@@@@    ++++OOOOOOOOOOOOOOOOOOOOOOOOOOOOOOOOOOOO++++    @@@@@@",
"@@@@@@    ++++OOOO    OOOOOOOOOOOOOOOOOOOO    OOOO++++    @@@@@@",
"@@@@@@    ++++OOOO    OOOOOOOOOOOOOOOOOOOO    OOOO++++    @@@@@@",
"@@@@@@    ++++OOOO    OOOOOOOOOOOOOOOOOOOO    OOOO++++    @@@@@@",
"@@@@@@    ++++OOOO    OOOOOOOOOOOOOOOOOOOO    OOOO++++    @@@@@@",
"@@@@@@    ++++OOOOOOOOOOOOOOOOOOOOOOOOOOOOOOOOOOOO++++    @@@@@@",
"@@@@@@    ++++OOOOOOOOOOOOOOOOOOOOOOOOOOOOOOOOOOOO++++    @@@@@@",
"@@@@@@    ++++OOOOOOOOOOOO            OOOOOOOOOOOO++++    @@@@@@",
"@@@@@@    ++++OOOOOOOOOOOO            OOOOOOOOOOOO++++    @@@@@@",
"@@@@@@    ++++++++OOOOOOOO            OOOOOOOO++++++++    @@@@@@",
"@@@@@@    ++++++++OOOOOOOO            OOOOOOOO++++++++    @@@@@@",
"@@@@@@    ++++++++OOOOOOOOOOOOOOOOOOOOOOOOOOOO++++++++    @@@@@@",
"@@@@@@    ++++++++OOOOOOOOOOOOOOOOOOOOOOOOOOOO++++++++    @@@@@@",
"@@    ........++++++++++++++++++++++++++++++++++++........    @@",
"@@    ........++++++++++++++++++++++++++++++++++++........    @@",
"@@    ........++++++++++++++++++++++++++++++++++++........    @@",
"@@    ........++++++++++++++++++++++++++++++++++++........    @@",
"@@    OOOO....oooooooooooooooooooooooooooooooooooo....OOOO    @@",
"@@    OOOO....oooooooooooooooooooooooooooooooooooo....OOOO    @@",
"@@    OOOO....oooooooooooooooooooooooooooooooooooo....OOOO    @@",
"@@    OOOO....oooooooooooooooooooooooooooooooooooo....OOOO    @@",
"@@    OOOO....oooooooooooooooooooooooooooooooooooo....OOOO    @@",
"@@    OOOO....oooooooooooooooooooooooooooooooooooo....OOOO    @@",
"@@    OOOO....oooooooooooooooooooooooooooooooooooo....OOOO    @@",
"@@    OOOO....oooooooooooooooooooooooooooooooooooo....OOOO    @@",
"@@    OOOOooooooooooooooooooooooooooooooooooooooooooooOOOO    @@",
"@@    OOOOooooooooooooooooooooooooooooooooooooooooooooOOOO    @@",
"@@    OOOOooooooooooooooooooooooooooooooooooooooooooooOOOO    @@",
"@@    OOOOooooooooooooooooooooooooooooooooooooooooooooOOOO    @@",
"@@@@@@    oooooooooooooooooooooooooooooooooooooooooooo    @@@@@@",
"@@@@@@    oooooooooooooooooooooooooooooooooooooooooooo    @@@@@@",
"@@@@@@    oooooooooooooooooooooooooooooooooooooooooooo    @@@@@@",
"@@@@@@    oooooooooooooooooooooooooooooooooooooooooooo    @@@@@@",
"@@@@@@    XXXXXXXXXXXXXXXXXXXXXXXXXXXXXXXXXXXXXXXXXXXX    @@@@@@",
"@@@@@@    XXXXXXXXXXXXXXXXXXXXXXXXXXXXXXXXXXXXXXXXXXXX    @@@@@@",
"@@@@@@    XXXXXXXXXXXXXXXXXXXXXXXXXXXXXXXXXXXXXXXXXXXX    @@@@@@",
"@@@@@@    XXXXXXXXXXXXXXXXXXXXXXXXXXXXXXXXXXXXXXXXXXXX    @@@@@@",
"@@@@@@    XXXXXXXXXXXX                    XXXXXXXXXXXX    @@@@@@",
"@@@@@@    XXXXXXXXXXXX                    XXXXXXXXXXXX    @@@@@@",
"@@@@@@    XXXXXXXXXXXX                    XXXXXXXXXXXX    @@@@@@",
"@@@@@@    XXXXXXXXXXXX                    XXXXXXXXXXXX    @@@@@@",
"@@@@@@@@@@            @@@@@@@@@@@@@@@@@@@@            @@@@@@@@@@",
"@@@@@@@@@@            @@@@@@@@@@@@@@@@@@@@            @@@@@@@@@@",
"@@@@@@@@@@            @@@@@@@@@@@@@@@@@@@@            @@@@@@@@@@",
"@@@@@@@@@@            @@@@@@@@@@@@@@@@@@@@            @@@@@@@@@@"
};
