/* XPM */
static char *result[] = {
/* columns rows colors chars-per-pixel */
"64 64 8 1 ",
"  c black",
". c #22B14C",
"X c #A8E61D",
"o c #4D6DF3",
"O c #00B7EF",
"+ c #E6B798",
"@ c white",
"# c None",
/* pixels */
"##########        ############################        ##########",
"##########        ############################        ##########",
"##########        ############################        ##########",
"##########        ############################        ##########",
"######    @@@@@@@@                            @@@@@@@@    ######",
"######    @@@@@@@@                            @@@@@@@@    ######",
"######    @@@@@@@@                            @@@@@@@@    ######",
"######    @@@@@@@@                            @@@@@@@@    ######",
"######    @@@@@@@@@@@@@@@@@@@@@@@@@@@@@@@@@@@@@@@@@@@@    ######",
"######    @@@@@@@@@@@@@@@@@@@@@@@@@@@@@@@@@@@@@@@@@@@@    ######",
"######    @@@@@@@@@@@@@@@@@@@@@@@@@@@@@@@@@@@@@@@@@@@@    ######",
"######    @@@@@@@@@@@@@@@@@@@@@@@@@@@@@@@@@@@@@@@@@@@@    ######",
"######    @@@@@@@@@@@@@@@@@@@@@@@@@@@@@@@@@@@@@@@@@@@@    ######",
"######    @@@@@@@@@@@@@@@@@@@@@@@@@@@@@@@@@@@@@@@@@@@@    ######",
"######    @@@@@@@@@@@@@@@@@@@@@@@@@@@@@@@@@@@@@@@@@@@@    ######",
"######    @@@@@@@@@@@@@@@@@@@@@@@@@@@@@@@@@@@@@@@@@@@@    ######",
"######    @@@@@@@@@@@@@@@@@@@@@@@@@@@@@@@@@@@@@@@@@@@@    ######",
"######    @@@@@@@@@@@@@@@@@@@@@@@@@@@@@@@@@@@@@@@@@@@@    ######",
"######    @@@@@@@@@@@@@@@@@@@@@@@@@@@@@@@@@@@@@@@@@@@@    ######",
"######    @@@@@@@@@@@@@@@@@@@@@@@@@@@@@@@@@@@@@@@@@@@@    ######",
"######    @@@@@@@@@@@@@@@@@@@@@@@@@@@@@@@@@@@@@@@@@@@@    ######",
"######    @@@@@@@@@@@@@@@@@@@@@@@@@@@@@@@@@@@@@@@@@@@@    ######",
"######    @@@@@@@@@@@@@@@@@@@@@@@@@@@@@@@@@@@@@@@@@@@@    ######",
"######    @@@@@@@@@@@@@@@@@@@@@@@@@@@@@@@@@@@@@@@@@@@@    ######",
"######    @@@@@@@@@@@@@@@@@@@@@@@@@@@@@@@@@@@@@@@@@@@@    ######",
"######    @@@@@@@@@@@@@@@@@@@@@@@@@@@@@@@@@@@@@@@@@@@@    ######",
"######    @@@@@@@@@@@@@@@@@@@@@@@@@@@@@@@@@@@@@@@@@@@@    ######",
"######    @@@@@@@@@@@@@@@@@@@@@@@@@@@@@@@@@@@@@@@@@@@@    ######",
"######    @@@@@@@@@@@@@@@@@@@@@@@@@@@@@@@@@@@@@@@@@@@@    ######",
"######    @@@@@@@@@@@@@@@@@@@@@@@@@@@@@@@@@@@@@@@@@@@@    ######",
"######    @@@@XXXXXXXXXXXXXXXXXXXXXXXXXXXXXXXXXXXX@@@@    ######",
"######    @@@@XXXXXXXXXXXXXXXXXXXXXXXXXXXXXXXXXXXX@@@@    ######",
"##    ........XXXXXXXXXXXXXXXXXXXXXXXXXXXXXXXXXXXX........    ##",
"##    ........XXXXXXXXXXXXXXXXXXXXXXXXXXXXXXXXXXXX........    ##",
"##    ........XXXXXXXXXXXXXXXXXXXXXXXXXXXXXXXXXXXX........    ##",
"##    ........XXXXXXXXXXXXXXXXXXXXXXXXXXXXXXXXXXXX........    ##",
"##    ++++....XXXXXXXXXXXXXXXX....XXXXXXXXXXXXXXXX....++++    ##",
"##    ++++....XXXXXXXXXXXXXXXX....XXXXXXXXXXXXXXXX....++++    ##",
"##    ++++....XXXXXXXXXXXXXXXX....XXXXXXXXXXXXXXXX....++++    ##",
"##    ++++....XXXXXXXXXXXXXXXX....XXXXXXXXXXXXXXXX....++++    ##",
"##    ++++....XXXXXXXXXXXXXXXXXXXXXXXXXXXXXXXXXXXX....++++    ##",
"##    ++++....XXXXXXXXXXXXXXXXXXXXXXXXXXXXXXXXXXXX....++++    ##",
"##    ++++............................................++++    ##",
"##    ++++............................................++++    ##",
"##    ++++OOOO....................................OOOO++++    ##",
"##    ++++OOOO....................................OOOO++++    ##",
"##    ++++OOOO....................................OOOO++++    ##",
"##    ++++OOOO....................................OOOO++++    ##",
"######    OOOO....................................OOOO    ######",
"######    OOOO....................................OOOO    ######",
"######    OOOOOOOOOOOOOOOOOOOOOOOOOOOOOOOOOOOOOOOOOOOO    ######",
"######    OOOOOOOOOOOOOOOOOOOOOOOOOOOOOOOOOOOOOOOOOOOO    ######",
"######    oooooooooooooooooooooooooooooooooooooooooooo    ######",
"######    oooooooooooooooooooooooooooooooooooooooooooo    ######",
"######    oooooooooooooooooooooooooooooooooooooooooooo    ######",
"######    oooooooooooooooooooooooooooooooooooooooooooo    ######",
"######    oooooooooooo                    oooooooooooo    ######",
"######    oooooooooooo                    oooooooooooo    ######",
"######    oooooooooooo                    oooooooooooo    ######",
"######    oooooooooooo                    oooooooooooo    ######",
"##########            ####################            ##########",
"##########            ####################            ##########",
"##########            ####################            ##########",
"##########            ####################            ##########"
};
