/* XPM */
static char *result[] = {
/* columns rows colors chars-per-pixel */
"64 64 12 1 ",
"  c black",
". c #22B14C",
"X c #A8E61D",
"o c #4D6DF3",
"O c #00B7EF",
"+ c #E6B798",
"@ c white",
"g c #FFD454",
"h c #FFDF8F",
"i c #F57AF5",
"j c #FFEBBD",
"k c #FCAEFC",
/* pixels */
"kkkkiiiikk        kkiiiikkkkiiiikkkkiiiikkkkii        iikkkkiiii",
"kkkkiiiikk        kkiiiikkkkiiiikkkkiiiikkkkii        iikkkkiiii",
"gggggggggg        gggggggggggggggggggggggggggg        gggggggggg",
"gggggggggg        gggggggggggggggggggggggggggg        gggggggggg",
"jjjjjj    @@@@@@@@                            @@@@@@@@    jjjjjj",
"jjjjjj    @@@@@@@@                            @@@@@@@@    jjjjjj",
"jjjjjj    @@@@@@@@                            @@@@@@@@    jjjjjj",
"jjjjjj    @@@@@@@@                            @@@@@@@@    jjjjjj",
"jjjjjj    @@@@@@@@@@@@@@@@@@@@@@@@@@@@@@@@@@@@@@@@@@@@    jjjjjj",
"jjjjjj    @@@@@@@@@@@@@@@@@@@@@@@@@@@@@@@@@@@@@@@@@@@@    jjjjjj",
"hhhhhh    @@@@@@@@@@@@@@@@@@@@@@@@@@@@@@@@@@@@@@@@@@@@    hhhhhh",
"hhhhhh    @@@@@@@@@@@@@@@@@@@@@@@@@@@@@@@@@@@@@@@@@@@@    hhhhhh",
"gggggg    @@@@@@@@@@@@@@@@@@@@@@@@@@@@@@@@@@@@@@@@@@@@    gggggg",
"gggggg    @@@@@@@@@@@@@@@@@@@@@@@@@@@@@@@@@@@@@@@@@@@@    gggggg",
"iiiikk    @@@@@@@@@@@@@@@@@@@@@@@@@@@@@@@@@@@@@@@@@@@@    iikkkk",
"iiiikk    @@@@@@@@@@@@@@@@@@@@@@@@@@@@@@@@@@@@@@@@@@@@    iikkkk",
"kkkkii    @@@@@@@@@@@@@@@@@@@@@@@@@@@@@@@@@@@@@@@@@@@@    kkiiii",
"kkkkii    @@@@@@@@@@@@@@@@@@@@@@@@@@@@@@@@@@@@@@@@@@@@    kkiiii",
"gggggg    @@@@@@@@@@@@@@@@@@@@@@@@@@@@@@@@@@@@@@@@@@@@    gggggg",
"gggggg    @@@@@@@@@@@@@@@@@@@@@@@@@@@@@@@@@@@@@@@@@@@@    gggggg",
"jjjjjj    @@@@@@@@@@@@@@@@@@@@@@@@@@@@@@@@@@@@@@@@@@@@    jjjjjj",
"jjjjjj    @@@@@@@@@@@@@@@@@@@@@@@@@@@@@@@@@@@@@@@@@@@@    jjjjjj",
"jjjjjj    @@@@@@@@@@@@@@@@@@@@@@@@@@@@@@@@@@@@@@@@@@@@    jjjjjj",
"jjjjjj    @@@@@@@@@@@@@@@@@@@@@@@@@@@@@@@@@@@@@@@@@@@@    jjjjjj",
"jjjjjj    @@@@@@@@@@@@@@@@@@@@@@@@@@@@@@@@@@@@@@@@@@@@    jjjjjj",
"jjjjjj    @@@@@@@@@@@@@@@@@@@@@@@@@@@@@@@@@@@@@@@@@@@@    jjjjjj",
"hhhhhh    @@@@@@@@@@@@@@@@@@@@@@@@@@@@@@@@@@@@@@@@@@@@    hhhhhh",
"hhhhhh    @@@@@@@@@@@@@@@@@@@@@@@@@@@@@@@@@@@@@@@@@@@@    hhhhhh",
"gggggg    @@@@@@@@@@@@@@@@@@@@@@@@@@@@@@@@@@@@@@@@@@@@    gggggg",
"gggggg    @@@@@@@@@@@@@@@@@@@@@@@@@@@@@@@@@@@@@@@@@@@@    gggggg",
"iiiikk    @@@@XXXXXXXXXXXXXXXXXXXXXXXXXXXXXXXXXXXX@@@@    iikkkk",
"iiiikk    @@@@XXXXXXXXXXXXXXXXXXXXXXXXXXXXXXXXXXXX@@@@    iikkkk",
"kk    ........XXXXXXXXXXXXXXXXXXXXXXXXXXXXXXXXXXXX........    ii",
"kk    ........XXXXXXXXXXXXXXXXXXXXXXXXXXXXXXXXXXXX........    ii",
"gg    ........XXXXXXXXXXXXXXXXXXXXXXXXXXXXXXXXXXXX........    gg",
"gg    ........XXXXXXXXXXXXXXXXXXXXXXXXXXXXXXXXXXXX........    gg",
"jj    ++++....XXXXXXXXXXXXXXXX....XXXXXXXXXXXXXXXX....++++    jj",
"jj    ++++....XXXXXXXXXXXXXXXX....XXXXXXXXXXXXXXXX....++++    jj",
"jj    ++++....XXXXXXXXXXXXXXXX....XXXXXXXXXXXXXXXX....++++    jj",
"jj    ++++....XXXXXXXXXXXXXXXX....XXXXXXXXXXXXXXXX....++++    jj",
"jj    ++++....XXXXXXXXXXXXXXXXXXXXXXXXXXXXXXXXXXXX....++++    jj",
"jj    ++++....XXXXXXXXXXXXXXXXXXXXXXXXXXXXXXXXXXXX....++++    jj",
"hh    ++++............................................++++    hh",
"hh    ++++............................................++++    hh",
"gg    ++++OOOO....................................OOOO++++    gg",
"gg    ++++OOOO....................................OOOO++++    gg",
"ii    ++++OOOO....................................OOOO++++    kk",
"ii    ++++OOOO....................................OOOO++++    kk",
"kkkkii    OOOO....................................OOOO    kkiiii",
"kkkkii    OOOO....................................OOOO    kkiiii",
"gggggg    OOOOOOOOOOOOOOOOOOOOOOOOOOOOOOOOOOOOOOOOOOOO    gggggg",
"gggggg    OOOOOOOOOOOOOOOOOOOOOOOOOOOOOOOOOOOOOOOOOOOO    gggggg",
"jjjjjj    oooooooooooooooooooooooooooooooooooooooooooo    jjjjjj",
"jjjjjj    oooooooooooooooooooooooooooooooooooooooooooo    jjjjjj",
"jjjjjj    oooooooooooooooooooooooooooooooooooooooooooo    jjjjjj",
"jjjjjj    oooooooooooooooooooooooooooooooooooooooooooo    jjjjjj",
"jjjjjj    oooooooooooo                    oooooooooooo    jjjjjj",
"jjjjjj    oooooooooooo                    oooooooooooo    jjjjjj",
"hhhhhh    oooooooooooo                    oooooooooooo    hhhhhh",
"hhhhhh    oooooooooooo                    oooooooooooo    hhhhhh",
"gggggggggg            gggggggggggggggggggg            gggggggggg",
"gggggggggg            gggggggggggggggggggg            gggggggggg",
"iiiikkkkii            kkiiiikkkkiiiikkkkii            kkiiiikkkk",
"iiiikkkkii            kkiiiikkkkiiiikkkkii            kkiiiikkkk"
};
