/* XPM */
static char *result[] = {
/* columns rows colors chars-per-pixel */
"64 64 11 1 ",
"  c black",
". c #22B14C",
"X c #4D6DF3",
"o c #00B7EF",
"O c #E6B798",
"+ c white",
"g c #FFD454",
"h c #FFDF8F",
"i c #F57AF5",
"j c #FFEBBD",
"k c #FCAEFC",
/* pixels */
"kkkkiiiikk        kkiiiikkkkiiiikkkkiiiikkkkii        iikkkkiiii",
"kkkkiiiikk        kkiiiikkkkiiiikkkkiiiikkkkii        iikkkkiiii",
"gggggggggg        gggggggggggggggggggggggggggg        gggggggggg",
"gggggggggg        gggggggggggggggggggggggggggg        gggggggggg",
"jjjjjj    ++++++++                            ++++++++    jjjjjj",
"jjjjjj    ++++++++                            ++++++++    jjjjjj",
"jjjjjj    ++++++++                            ++++++++    jjjjjj",
"jjjjjj    ++++++++                            ++++++++    jjjjjj",
"jjjjjj    ++++++++++++++++++++++++++++++++++++++++++++    jjjjjj",
"jjjjjj    ++++++++++++++++++++++++++++++++++++++++++++    jjjjjj",
"hhhhhh    ++++++++++++++++++++++++++++++++++++++++++++    hhhhhh",
"hhhhhh    ++++++++++++++++++++++++++++++++++++++++++++    hhhhhh",
"gggggg    ++++++++OOOOOOOOOOOOOOOOOOOOOOOOOOOO++++++++    gggggg",
"gggggg    ++++++++OOOOOOOOOOOOOOOOOOOOOOOOOOOO++++++++    gggggg",
"iiiikk    ++++++++OOOOOOOOOOOOOOOOOOOOOOOOOOOO++++++++    iikkkk",
"iiiikk    ++++++++OOOOOOOOOOOOOOOOOOOOOOOOOOOO++++++++    iikkkk",
"kkkkii    ++++OOOOOOOOOOOOOOOOOOOOOOOOOOOOOOOOOOOO++++    kkiiii",
"kkkkii    ++++OOOOOOOOOOOOOOOOOOOOOOOOOOOOOOOOOOOO++++    kkiiii",
"gggggg    ++++OOOOOOOOOOOOOOOOOOOOOOOOOOOOOOOOOOOO++++    gggggg",
"gggggg    ++++OOOOOOOOOOOOOOOOOOOOOOOOOOOOOOOOOOOO++++    gggggg",
"jjjjjj    ++++OOOO    OOOOOOOOOOOOOOOOOOOO    OOOO++++    jjjjjj",
"jjjjjj    ++++OOOO    OOOOOOOOOOOOOOOOOOOO    OOOO++++    jjjjjj",
"jjjjjj    ++++OOOO    OOOOOOOOOOOOOOOOOOOO    OOOO++++    jjjjjj",
"jjjjjj    ++++OOOO    OOOOOOOOOOOOOOOOOOOO    OOOO++++    jjjjjj",
"jjjjjj    ++++OOOOOOOOOOOOOOOOOOOOOOOOOOOOOOOOOOOO++++    jjjjjj",
"jjjjjj    ++++OOOOOOOOOOOOOOOOOOOOOOOOOOOOOOOOOOOO++++    jjjjjj",
"hhhhhh    ++++OOOOOOOOOOOO            OOOOOOOOOOOO++++    hhhhhh",
"hhhhhh    ++++OOOOOOOOOOOO            OOOOOOOOOOOO++++    hhhhhh",
"gggggg    ++++++++OOOOOOOO            OOOOOOOO++++++++    gggggg",
"gggggg    ++++++++OOOOOOOO            OOOOOOOO++++++++    gggggg",
"iiiikk    ++++++++OOOOOOOOOOOOOOOOOOOOOOOOOOOO++++++++    iikkkk",
"iiiikk    ++++++++OOOOOOOOOOOOOOOOOOOOOOOOOOOO++++++++    iikkkk",
"kk    ........++++++++++++++++++++++++++++++++++++........    ii",
"kk    ........++++++++++++++++++++++++++++++++++++........    ii",
"gg    ........++++++++++++++++++++++++++++++++++++........    gg",
"gg    ........++++++++++++++++++++++++++++++++++++........    gg",
"jj    OOOO....oooooooooooooooooooooooooooooooooooo....OOOO    jj",
"jj    OOOO....oooooooooooooooooooooooooooooooooooo....OOOO    jj",
"jj    OOOO....oooooooooooooooooooooooooooooooooooo....OOOO    jj",
"jj    OOOO....oooooooooooooooooooooooooooooooooooo....OOOO    jj",
"jj    OOOO....oooooooooooooooooooooooooooooooooooo....OOOO    jj",
"jj    OOOO....oooooooooooooooooooooooooooooooooooo....OOOO    jj",
"hh    OOOO....oooooooooooooooooooooooooooooooooooo....OOOO    hh",
"hh    OOOO....oooooooooooooooooooooooooooooooooooo....OOOO    hh",
"gg    OOOOooooooooooooooooooooooooooooooooooooooooooooOOOO    gg",
"gg    OOOOooooooooooooooooooooooooooooooooooooooooooooOOOO    gg",
"ii    OOOOooooooooooooooooooooooooooooooooooooooooooooOOOO    kk",
"ii    OOOOooooooooooooooooooooooooooooooooooooooooooooOOOO    kk",
"kkkkii    oooooooooooooooooooooooooooooooooooooooooooo    kkiiii",
"kkkkii    oooooooooooooooooooooooooooooooooooooooooooo    kkiiii",
"gggggg    oooooooooooooooooooooooooooooooooooooooooooo    gggggg",
"gggggg    oooooooooooooooooooooooooooooooooooooooooooo    gggggg",
"jjjjjj    XXXXXXXXXXXXXXXXXXXXXXXXXXXXXXXXXXXXXXXXXXXX    jjjjjj",
"jjjjjj    XXXXXXXXXXXXXXXXXXXXXXXXXXXXXXXXXXXXXXXXXXXX    jjjjjj",
"jjjjjj    XXXXXXXXXXXXXXXXXXXXXXXXXXXXXXXXXXXXXXXXXXXX    jjjjjj",
"jjjjjj    XXXXXXXXXXXXXXXXXXXXXXXXXXXXXXXXXXXXXXXXXXXX    jjjjjj",
"jjjjjj    XXXXXXXXXXXX                    XXXXXXXXXXXX    jjjjjj",
"jjjjjj    XXXXXXXXXXXX                    XXXXXXXXXXXX    jjjjjj",
"hhhhhh    XXXXXXXXXXXX                    XXXXXXXXXXXX    hhhhhh",
"hhhhhh    XXXXXXXXXXXX                    XXXXXXXXXXXX    hhhhhh",
"gggggggggg            gggggggggggggggggggg            gggggggggg",
"gggggggggg            gggggggggggggggggggg            gggggggggg",
"iiiikkkkii            kkiiiikkkkiiiikkkkii            kkiiiikkkk",
"iiiikkkkii            kkiiiikkkkiiiikkkkii            kkiiiikkkk"
};
