/* XPM */
static char *result[] = {
/* columns rows colors chars-per-pixel */
"64 64 12 1 ",
"  c black",
". c #22B14C",
"X c #A8E61D",
"o c #4D6DF3",
"O c #00B7EF",
"+ c #E6B798",
"@ c white",
"g c #FFD454",
"h c #FFDF8F",
"i c #F57AF5",
"j c #FFEBBD",
"k c #FCAEFC",
/* pixels */
"kkkkiiiikkkkiiii                      iikkkkiiiikkkkiiiikkkkiiii",
"kkkkiiiikkkkiiii                      iikkkkiiiikkkkiiiikkkkiiii",
"gggggggggggggggg                      gggggggggggggggggggggggggg",
"gggggggggggggggg                      gggggggggggggggggggggggggg",
"jjjjjjjjjjjj    @@@@@@@@@@@@@@@@@@@@@@    jjhhggjjjjjjjjjjjjjjjj",
"jjjjjjjjjjjj    @@@@@@@@@@@@@@@@@@@@@@    jjhhggjjjjjjjjjjjjjjjj",
"jjjjjjjjjjjj    @@@@@@@@@@@@@@@@@@@@@@    jjhhggjjjjjjjjjjjjjjjj",
"jjjjjjjjjjjj    @@@@@@@@@@@@@@@@@@@@@@    jjhhggjjjjjjjjjjjjjjjj",
"jjjjjjjj    @@@@@@@@@@@@@@@@@@@@@@@@@@@@@@    ggjjjjjjjjjjjjjjjj",
"jjjjjjjj    @@@@@@@@@@@@@@@@@@@@@@@@@@@@@@    ggjjjjjjjjjjjjjjjj",
"hhhhhhhh    @@@@@@@@@@@@@@@@@@@@@@@@@@@@@@    gghhhhhhhhhhhhhhhh",
"hhhhhhhh    @@@@@@@@@@@@@@@@@@@@@@@@@@@@@@    gghhhhhhhhhhhhhhhh",
"gggggggg    ++++++@@@@@@@@@@@@@@@@@@@@@@@@    gggggggggggggggggg",
"gggggggg    ++++++@@@@@@@@@@@@@@@@@@@@@@@@    gggggggggggggggggg",
"iiiikkkk    ++++++++@@@@@@@@@@@@@@@@@@@@@@    kkiiiikkkkiiiikkkk",
"iiiikkkk    ++++++++@@@@@@@@@@@@@@@@@@@@@@    kkiiiikkkkiiiikkkk",
"kkkkiiii    ++    ++++@@@@@@@@@@@@@@@@@@@@    iikkkkiiiikkkkiiii",
"kkkkiiii    ++    ++++@@@@@@@@@@@@@@@@@@@@    iikkkkiiiikkkkiiii",
"gggggggg    ++    ++++@@@@@@@@@@@@@@@@@@@@    gggggggggggggggggg",
"gggggggg    ++    ++++@@@@@@@@@@@@@@@@@@@@    gggggggggggggggggg",
"jjjjjjjj    ++++++++++@@@@@@@@@@@@@@@@@@@@    ggjjjjjjjjjjjjjjjj",
"jjjjjjjj    ++++++++++@@@@@@@@@@@@@@@@@@@@    ggjjjjjjjjjjjjjjjj",
"jjjjjjjj    ++++++++++@@@@@@@@@@@@@@@@@@@@    ggjjjjjjjjjjjjjjjj",
"jjjjjjjj    ++++++++++@@@@@@@@@@@@@@@@@@@@    ggjjjjjjjjjjjjjjjj",
"jjjjjjjj      ++++++++@@@@@@@@@@@@@@@@@@@@    ggjjjjjjjjjjjjjjjj",
"jjjjjjjj      ++++++++@@@@@@@@@@@@@@@@@@@@    ggjjjjjjjjjjjjjjjj",
"hhhhhhhh      ++++++++@@@@@@@@@@@@@@@@@@@@    gghhhhhhhhhhhhhhhh",
"hhhhhhhh      ++++++++@@@@@@@@@@@@@@@@@@@@    gghhhhhhhhhhhhhhhh",
"gggggggg    ++++++++@@@@@@@@@@@@@@@@@@@@@@        gggggggggggggg",
"gggggggg    ++++++++@@@@@@@@@@@@@@@@@@@@@@        gggggggggggggg",
"iiiikkkk    ++++++@@@@@@@@@@@@@@@@@@@@@@@@XXXXXX    kkkkiiiikkkk",
"iiiikkkk    ++++++@@@@@@@@@@@@@@@@@@@@@@@@XXXXXX    kkkkiiiikkkk",
"kkkkiiii    @@@@@@@@......................XXXXXXXX  iiiikkkkiiii",
"kkkkiiii    @@@@@@@@......................XXXXXXXX  iiiikkkkiiii",
"gggggggg    @@@@@@@@......................XXXXXXXXXX  gggggggggg",
"gggggggg    @@@@@@@@......................XXXXXXXXXX  gggggggggg",
"jjjjjjjj    OOOOOOOO....++++++OOOOOO......XXXXXXXXXXXX  jjjjjjjj",
"jjjjjjjj    OOOOOOOO....++++++OOOOOO......XXXXXXXXXXXX  jjjjjjjj",
"jjjjjjjj    OOOOOOOO....++++++OOOOOOOO....XXXXXXXXXX..  jjjjjjjj",
"jjjjjjjj    OOOOOOOO....++++++OOOOOOOO....XXXXXXXXXX..  jjjjjjjj",
"jjjjjjjj    OOOOOOOOOO..++++++OOOOOOOO....XXXXXXXXXXXX  jjjjjjjj",
"jjjjjjjj    OOOOOOOOOO..++++++OOOOOOOO....XXXXXXXXXXXX  jjjjjjjj",
"hhhhhhhh    OOOOOOOOOOOO++++++....OOOO................  hhhhhhhh",
"hhhhhhhh    OOOOOOOOOOOO++++++....OOOO................  hhhhhhhh",
"gggggggg    OOOOOOOOOOOO++++++OOOO..OO..............    gggggggg",
"gggggggg    OOOOOOOOOOOO++++++OOOO..OO..............    gggggggg",
"iiiikkkk    OOOOOOOOOOOO++++++OOOOOO..............    kkiiiikkkk",
"iiiikkkk    OOOOOOOOOOOO++++++OOOOOO..............    kkiiiikkkk",
"kkkkiiii    OOOOOOOOOOOOOOOOOOOOOOOOOOOOOO        kkiiiikkkkiiii",
"kkkkiiii    OOOOOOOOOOOOOOOOOOOOOOOOOOOOOO        kkiiiikkkkiiii",
"gggggggg    OOOOOOOOOOOOOOOOOOOOOOOOOOOOOO    gggggggggggggggggg",
"gggggggg    OOOOOOOOOOOOOOOOOOOOOOOOOOOOOO    gggggggggggggggggg",
"jjjjjjjj    oooooooooooooooooooooooooooooo    ggjjjjjjjjjjjjjjjj",
"jjjjjjjj    oooooooooooooooooooooooooooooo    ggjjjjjjjjjjjjjjjj",
"jjjjjjjjjjjj    oooooooooooooooooooooo    jjhhggjjjjjjjjjjjjjjjj",
"jjjjjjjjjjjj    oooooooooooooooooooooo    jjhhggjjjjjjjjjjjjjjjj",
"jjjjjjjjjjjjhhgg    oooooooooooooo    jjjjjjhhggjjjjjjjjjjjjjjjj",
"jjjjjjjjjjjjhhgg    oooooooooooooo    jjjjjjhhggjjjjjjjjjjjjjjjj",
"hhhhhhhhhhhhhhgg    oooooooooooooo    hhhhhhhhgghhhhhhhhhhhhhhhh",
"hhhhhhhhhhhhhhgg    oooooooooooooo    hhhhhhhhgghhhhhhhhhhhhhhhh",
"gggggggggggggggggggg              gggggggggggggggggggggggggggggg",
"gggggggggggggggggggg              gggggggggggggggggggggggggggggg",
"iiiikkkkiiiikkkkiiii              iikkkkiiiikkkkiiiikkkkiiiikkkk",
"iiiikkkkiiiikkkkiiii              iikkkkiiiikkkkiiiikkkkiiiikkkk"
};
