/* XPM */
static char *result[] = {
/* columns rows colors chars-per-pixel */
"64 64 8 1 ",
"  c black",
". c #22B14C",
"X c #A8E61D",
"o c #4D6DF3",
"O c #00B7EF",
"+ c #E6B798",
"@ c white",
"# c None",
/* pixels */
"################                      ##########################",
"################                      ##########################",
"################                      ##########################",
"################                      ##########################",
"############    @@@@@@@@@@@@@@@@@@@@@@    ######################",
"############    @@@@@@@@@@@@@@@@@@@@@@    ######################",
"############    @@@@@@@@@@@@@@@@@@@@@@    ######################",
"############    @@@@@@@@@@@@@@@@@@@@@@    ######################",
"########    @@@@@@@@@@@@@@@@@@@@@@@@@@@@@@    ##################",
"########    @@@@@@@@@@@@@@@@@@@@@@@@@@@@@@    ##################",
"########    @@@@@@@@@@@@@@@@@@@@@@@@@@@@@@    ##################",
"########    @@@@@@@@@@@@@@@@@@@@@@@@@@@@@@    ##################",
"########    ++++++@@@@@@@@@@@@@@@@@@@@@@@@    ##################",
"########    ++++++@@@@@@@@@@@@@@@@@@@@@@@@    ##################",
"########    ++++++++@@@@@@@@@@@@@@@@@@@@@@    ##################",
"########    ++++++++@@@@@@@@@@@@@@@@@@@@@@    ##################",
"########    ++    ++++@@@@@@@@@@@@@@@@@@@@    ##################",
"########    ++    ++++@@@@@@@@@@@@@@@@@@@@    ##################",
"########    ++    ++++@@@@@@@@@@@@@@@@@@@@    ##################",
"########    ++    ++++@@@@@@@@@@@@@@@@@@@@    ##################",
"########    ++++++++++@@@@@@@@@@@@@@@@@@@@    ##################",
"########    ++++++++++@@@@@@@@@@@@@@@@@@@@    ##################",
"########    ++++++++++@@@@@@@@@@@@@@@@@@@@    ##################",
"########    ++++++++++@@@@@@@@@@@@@@@@@@@@    ##################",
"########      ++++++++@@@@@@@@@@@@@@@@@@@@    ##################",
"########      ++++++++@@@@@@@@@@@@@@@@@@@@    ##################",
"########      ++++++++@@@@@@@@@@@@@@@@@@@@    ##################",
"########      ++++++++@@@@@@@@@@@@@@@@@@@@    ##################",
"########    ++++++++@@@@@@@@@@@@@@@@@@@@@@        ##############",
"########    ++++++++@@@@@@@@@@@@@@@@@@@@@@        ##############",
"########    ++++++@@@@@@@@@@@@@@@@@@@@@@@@XXXXXX    ############",
"########    ++++++@@@@@@@@@@@@@@@@@@@@@@@@XXXXXX    ############",
"########    @@@@@@@@......................XXXXXXXX  ############",
"########    @@@@@@@@......................XXXXXXXX  ############",
"########    @@@@@@@@......................XXXXXXXXXX  ##########",
"########    @@@@@@@@......................XXXXXXXXXX  ##########",
"########    OOOOOOOO....++++++OOOOOO......XXXXXXXXXXXX  ########",
"########    OOOOOOOO....++++++OOOOOO......XXXXXXXXXXXX  ########",
"########    OOOOOOOO....++++++OOOOOOOO....XXXXXXXXXX..  ########",
"########    OOOOOOOO....++++++OOOOOOOO....XXXXXXXXXX..  ########",
"########    OOOOOOOOOO..++++++OOOOOOOO....XXXXXXXXXXXX  ########",
"########    OOOOOOOOOO..++++++OOOOOOOO....XXXXXXXXXXXX  ########",
"########    OOOOOOOOOOOO++++++....OOOO................  ########",
"########    OOOOOOOOOOOO++++++....OOOO................  ########",
"########    OOOOOOOOOOOO++++++OOOO..OO..............    ########",
"########    OOOOOOOOOOOO++++++OOOO..OO..............    ########",
"########    OOOOOOOOOOOO++++++OOOOOO..............    ##########",
"########    OOOOOOOOOOOO++++++OOOOOO..............    ##########",
"########    OOOOOOOOOOOOOOOOOOOOOOOOOOOOOO          ############",
"########    OOOOOOOOOOOOOOOOOOOOOOOOOOOOOO          ############",
"########    OOOOOOOOOOOOOOOOOOOOOOOOOOOOOO    ##################",
"########    OOOOOOOOOOOOOOOOOOOOOOOOOOOOOO    ##################",
"########    oooooooooooooooooooooooooooooo    ##################",
"########    oooooooooooooooooooooooooooooo    ##################",
"############    oooooooooooooooooooooo    ######################",
"############    oooooooooooooooooooooo    ######################",
"################    oooooooooooooo    ##########################",
"################    oooooooooooooo    ##########################",
"################    oooooooooooooo    ##########################",
"################    oooooooooooooo    ##########################",
"####################              ##############################",
"####################              ##############################",
"####################              ##############################",
"####################              ##############################"
};
