/* XPM */
static char *result[] = {
/* columns rows colors chars-per-pixel */
"64 64 7 1 ",
"  c black",
". c #ED1C24",
"X c #FFF200",
"o c #002FEB",
"O c #99D9EA",
"+ c white",
"@ c None",
/* pixels */
"@@@@@@@@@@@@@@@@@@@@@@@@@@@@@@    @@@@@@@@@@@@@@@@@@@@@@@@@@@@@@",
"@@@@@@@@@@@@@@@@@@@@@@@@@@@@@@    @@@@@@@@@@@@@@@@@@@@@@@@@@@@@@",
"@@@@@@@@@@@@  @@@@@@@@@@@@@@  XXXX  @@@@@@@@@@@@@@  @@@@@@@@@@@@",
"@@@@@@@@@@@@  @@@@@@@@@@@@@@  XXXX  @@@@@@@@@@@@@@  @@@@@@@@@@@@",
"@@@@@@@@@@  XX  @@@@@@@@@@@@  XXXX  @@@@@@@@@@@@  XX  @@@@@@@@@@",
"@@@@@@@@@@  XX  @@@@@@@@@@@@  XXXX  @@@@@@@@@@@@  XX  @@@@@@@@@@",
"@@@@@@@@@@  XX  @@@@@@@@@@  XXXXXXXX  @@@@@@@@@@  XX  @@@@@@@@@@",
"@@@@@@@@@@  XX  @@@@@@@@@@  XXXXXXXX  @@@@@@@@@@  XX  @@@@@@@@@@",
"@@@@@@@@@@  XXXX  @@@@@@@@  XX....XX  @@@@@@@@  XXXX  @@@@@@@@@@",
"@@@@@@@@@@  XXXX  @@@@@@@@  XX....XX  @@@@@@@@  XXXX  @@@@@@@@@@",
"@@@@@@@@@@  ..XXXX  @@@@  XX........XX  @@@@  XXXX..  @@@@@@@@@@",
"@@@@@@@@@@  ..XXXX  @@@@  XX........XX  @@@@  XXXX..  @@@@@@@@@@",
"@@@@@@@@@@  ....XXXX    XXXX........XXXX    XXXX....  @@@@@@@@@@",
"@@@@@@@@@@  ....XXXX    XXXX........XXXX    XXXX....  @@@@@@@@@@",
"@@@@@@@@@@  ..XXXXXXXXXXXXXXXX....XXXXXXXXXXXXXXXX..  @@@@@@@@@@",
"@@@@@@@@@@  ..XXXXXXXXXXXXXXXX....XXXXXXXXXXXXXXXX..  @@@@@@@@@@",
"@@@@@@@@@@  XXXXXXXXXXXXXXXXXXXXXXXXXXXXXXXXXXXXXXXX  @@@@@@@@@@",
"@@@@@@@@@@  XXXXXXXXXXXXXXXXXXXXXXXXXXXXXXXXXXXXXXXX  @@@@@@@@@@",
"@@@@@@@@@@  ++++OOOO++++++OOOOOOOOOOOO++++++OOOO++++  @@@@@@@@@@",
"@@@@@@@@@@  ++++OOOO++++++OOOOOOOOOOOO++++++OOOO++++  @@@@@@@@@@",
"@@@@@@@@@@  ++++OOOO      OOOOOOOOOOOO      OOOO++++  @@@@@@@@@@",
"@@@@@@@@@@  ++++OOOO      OOOOOOOOOOOO      OOOO++++  @@@@@@@@@@",
"@@@@@@@@@@  ++++OOOO      OOOOOOOOOOOO      OOOO++++  @@@@@@@@@@",
"@@@@@@@@@@  ++++OOOO      OOOOOOOOOOOO      OOOO++++  @@@@@@@@@@",
"@@@@@@@@@@  ++++OOOO      OOOOOOOOOOOO      OOOO++++  @@@@@@@@@@",
"@@@@@@@@@@  ++++OOOO      OOOOOOOOOOOO      OOOO++++  @@@@@@@@@@",
"@@@@@@@@    ++++OOOOOOOOOOOOOOOOOOOOOOOOOOOOOOOO++++    @@@@@@@@",
"@@@@@@@@    ++++OOOOOOOOOOOOOOOOOOOOOOOOOOOOOOOO++++    @@@@@@@@",
"@@@@@@  ++++++++++++++++++++++OOOO++++++++++++++++++++++  @@@@@@",
"@@@@@@  ++++++++++++++++++++++OOOO++++++++++++++++++++++  @@@@@@",
"@@@@@@  ++++++++++++++++++++++OOOO++++++++++++++++++++++  @@@@@@",
"@@@@@@  ++++++++++++++++++++++OOOO++++++++++++++++++++++  @@@@@@",
"@@@@@@  ++++++++++++++++++++++OOOO++++++++++++++++++++++  @@@@@@",
"@@@@@@  ++++++++++++++++++++++OOOO++++++++++++++++++++++  @@@@@@",
"@@@@@@  oooo++++++++++++++++++OOOO++++++++++++++++++oooo  @@@@@@",
"@@@@@@  oooo++++++++++++++++++OOOO++++++++++++++++++oooo  @@@@@@",
"@@@@@@  oooo++++++++++++      OOOO      ++++++++++++oooo  @@@@@@",
"@@@@@@  oooo++++++++++++      OOOO      ++++++++++++oooo  @@@@@@",
"@@@@@@  oooooo++++++++++      OOOO      ++++++++++oooooo  @@@@@@",
"@@@@@@  oooooo++++++++++      OOOO      ++++++++++oooooo  @@@@@@",
"@@@@@@  oooooo++++++    ++++++OOOO++++++    ++++++oooooo  @@@@@@",
"@@@@@@  oooooo++++++    ++++++OOOO++++++    ++++++oooooo  @@@@@@",
"@@@@@@  oooo  oo++++    ++++++++++++++++    ++++oo  oooo  @@@@@@",
"@@@@@@  oooo  oo++++    ++++++++++++++++    ++++oo  oooo  @@@@@@",
"@@@@@@  oooo  oo++++++++++++++++++++++++++++++++oo  oooo  @@@@@@",
"@@@@@@  oooo  oo++++++++++++++++++++++++++++++++oo  oooo  @@@@@@",
"@@@@@@  OOOO  oooo++++++++++++++++++++++++++++oooo  OOOO  @@@@@@",
"@@@@@@  OOOO  oooo++++++++++++++++++++++++++++oooo  OOOO  @@@@@@",
"@@@@@@  OOOO  oooooooo++++++++++++++++++++oooooooo  OOOO  @@@@@@",
"@@@@@@  OOOO  oooooooo++++++++++++++++++++oooooooo  OOOO  @@@@@@",
"@@@@@@@@    oooooooooooo++++++++++++++++oooooooooooo    @@@@@@@@",
"@@@@@@@@    oooooooooooo++++++++++++++++oooooooooooo    @@@@@@@@",
"@@@@@@@@@@  oooooooooooooooo++++++++oooooooooooooooo  @@@@@@@@@@",
"@@@@@@@@@@  oooooooooooooooo++++++++oooooooooooooooo  @@@@@@@@@@",
"@@@@@@@@@@  oooooooooooooooooo++++oooooooooooooooooo  @@@@@@@@@@",
"@@@@@@@@@@  oooooooooooooooooo++++oooooooooooooooooo  @@@@@@@@@@",
"@@@@@@@@@@  oooooooooooooooooooooooooooooooooooooooo  @@@@@@@@@@",
"@@@@@@@@@@  oooooooooooooooooooooooooooooooooooooooo  @@@@@@@@@@",
"@@@@@@@@@@  oooooooooooooooooooooooooooooooooooooooo  @@@@@@@@@@",
"@@@@@@@@@@  oooooooooooooooooooooooooooooooooooooooo  @@@@@@@@@@",
"@@@@@@@@@@  oooooooooooooooooooooooooooooooooooooooo  @@@@@@@@@@",
"@@@@@@@@@@  oooooooooooooooooooooooooooooooooooooooo  @@@@@@@@@@",
"@@@@@@@@@@                                            @@@@@@@@@@",
"@@@@@@@@@@                                            @@@@@@@@@@"
};
