/* XPM */
static char *result[] = {
/* columns rows colors chars-per-pixel */
"64 64 6 1 ",
"  c #73402A",
". c #BF1FBF",
"X c #E04AE0",
"o c #FFA3FF",
"O c white",
"+ c None",
/* pixels */
"++++++++++++++++++++++++++++........++++++++++++++++++++++++++++",
"++++++++++++++++++++++++++++........++++++++++++++++++++++++++++",
"++++++++++++++++++++++++++++........++++++++++++++++++++++++++++",
"++++++++++++++++++++++++++++........++++++++++++++++++++++++++++",
"++++++++++++++++++++........oooooooo........++++++++++++++++++++",
"++++++++++++++++++++........oooooooo........++++++++++++++++++++",
"++++++++++++++++++++........oooooooo........++++++++++++++++++++",
"++++++++++++++++++++........oooooooo........++++++++++++++++++++",
"++++++++++++++++....oooooooooooooooooooooooo....++++++++++++++++",
"++++++++++++++++....oooooooooooooooooooooooo....++++++++++++++++",
"++++++++++++++++....oooooooooooooooooooooooo....++++++++++++++++",
"++++++++++++++++....oooooooooooooooooooooooo....++++++++++++++++",
"++++++++++++....XXXXooooooooooooXXXXooooooooXXXX....++++++++++++",
"++++++++++++....XXXXooooooooooooXXXXooooooooXXXX....++++++++++++",
"++++++++++++....XXXXooooooooooooXXXXooooooooXXXX....++++++++++++",
"++++++++++++....XXXXooooooooooooXXXXooooooooXXXX....++++++++++++",
"++++++++....ooooooooooooooooXXXXooooooooXXXXoooooooo....++++++++",
"++++++++....ooooooooooooooooXXXXooooooooXXXXoooooooo....++++++++",
"++++++++....ooooooooooooooooXXXXooooooooXXXXoooooooo....++++++++",
"++++++++....ooooooooooooooooXXXXooooooooXXXXoooooooo....++++++++",
"++++++++....ooooooooXXXXXXXXXXXXooooooooXXXXoooooooo....++++++++",
"++++++++....ooooooooXXXXXXXXXXXXooooooooXXXXoooooooo....++++++++",
"++++++++....ooooooooXXXXXXXXXXXXooooooooXXXXoooooooo....++++++++",
"++++++++....ooooooooXXXXXXXXXXXXooooooooXXXXoooooooo....++++++++",
"++++....ooooooooXXXXoooooooo....XXXXXXXXooooooooXXXXoooo....++++",
"++++....ooooooooXXXXoooooooo....XXXXXXXXooooooooXXXXoooo....++++",
"++++....ooooooooXXXXoooooooo....XXXXXXXXooooooooXXXXoooo....++++",
"++++....ooooooooXXXXoooooooo....XXXXXXXXooooooooXXXXoooo....++++",
"....XXXXoooooooo........ooooooooooooXXXXooooooooXXXXXXXXoooo....",
"....XXXXoooooooo........ooooooooooooXXXXooooooooXXXXXXXXoooo....",
"....XXXXoooooooo........ooooooooooooXXXXooooooooXXXXXXXXoooo....",
"....XXXXoooooooo........ooooooooooooXXXXooooooooXXXXXXXXoooo....",
"....ooooXXXXXXXXooooXXXXXXXX........XXXXXXXXXXXXoooo....XXXX....",
"....ooooXXXXXXXXooooXXXXXXXX........XXXXXXXXXXXXoooo....XXXX....",
"....ooooXXXXXXXXooooXXXXXXXX........XXXXXXXXXXXXoooo....XXXX....",
"....ooooXXXXXXXXooooXXXXXXXX........XXXXXXXXXXXXoooo....XXXX....",
"....XXXX........XXXXXXXX....XXXXXXXXooooXXXX........XXXX........",
"....XXXX........XXXXXXXX....XXXXXXXXooooXXXX........XXXX........",
"....XXXX........XXXXXXXX....XXXXXXXXooooXXXX........XXXX........",
"....XXXX........XXXXXXXX....XXXXXXXXooooXXXX........XXXX........",
"........XXXXXXXX........XXXXXXXX........XXXXXXXXXXXX............",
"........XXXXXXXX........XXXXXXXX........XXXXXXXXXXXX............",
"........XXXXXXXX........XXXXXXXX........XXXXXXXXXXXX............",
"........XXXXXXXX........XXXXXXXX........XXXXXXXXXXXX............",
"++++........XXXXXXXX........................................++++",
"++++........XXXXXXXX........................................++++",
"++++........XXXXXXXX........................................++++",
"++++........XXXXXXXX........................................++++",
"++++++++................................................++++++++",
"++++++++................................................++++++++",
"++++++++................................................++++++++",
"++++++++................................................++++++++",
"++++++++++++........................................++++++++++++",
"++++++++++++........................................++++++++++++",
"++++++++++++........................................++++++++++++",
"++++++++++++........................................++++++++++++",
"++++++++++++++++++++        OOOOOOOOOOOO    ++++++++++++++++++++",
"++++++++++++++++++++        OOOOOOOOOOOO    ++++++++++++++++++++",
"++++++++++++++++++++        OOOOOOOOOOOO    ++++++++++++++++++++",
"++++++++++++++++++++        OOOOOOOOOOOO    ++++++++++++++++++++",
"++++++++++++++++    OOOO    OOOO    OOOOOOOO    ++++++++++++++++",
"++++++++++++++++    OOOO    OOOO    OOOOOOOO    ++++++++++++++++",
"++++++++++++++++    OOOO    OOOO    OOOOOOOO    ++++++++++++++++",
"++++++++++++++++    OOOO    OOOO    OOOOOOOO    ++++++++++++++++"
};
