/* XPM */
static char *result[] = {
/* columns rows colors chars-per-pixel */
"32 32 10 1 ",
"g c #FFC30E",
"h c #FFD154",
"i c #F57AF5",
"j c #FFDF8F",
"k c #FCAEFC",
". c black",
"X c #8C4121",
"o c #FFC30E",
"O c #FFEA61",
"+ c white",
/* pixels */
"kkiikkiikkiik......ikkiikkiikkii",
"ggggggggggggg......ggggggggggggg",
"jjjjjjhgjjj..ooooXX..jhgjjjjjjjj",
"jjjjjjhgjjj..ooooXX..jhgjjjjjjjj",
"jjjjjjhgj..++++XXooXX..gjjjjjjjj",
"hhhhhhhgh..++++XXooXX..ghhhhhhhh",
"ggggggggg..OOOOXXooXX..ggggggggg",
"iikkiikki..OOOOXXooXX..kiikkiikk",
"kkiikki..++++XXooooooXX..kiikkii",
"ggggggg..++++XXooooooXX..ggggggg",
"jjjjjjh..++++XXooXXOOXX..jjjjjjj",
"jjjjjjh..++++XXooXXOOXX..jjjjjjj",
"jjjjjjh..++++XXooXXOOXX..jjjjjjj",
"hhhhhhh..++++XXooXXOOXX..hhhhhhh",
"ggggggg..++OOXXOOXXOOXX..ggggggg",
"iikkiik..++OOXXOOXXOOXX..ikkiikk",
"kkiikki..OOOOXXOOXXOOXX..kiikkii",
"ggggggg..OOOOXXOOXXOOXX..ggggggg",
"jjjjjjh..OOOOXXOOooOOXX..jjjjjjj",
"jjjjjjh..OOOOXXOOooOOXX..jjjjjjj",
"jjjjjjh..OOOOXXOOooOOXX..jjjjjjj",
"hhhhhhh..OOOOXXOOooOOXX..hhhhhhh",
"ggggggg..OOOOXXOOOOOOXX..ggggggg",
"iikkiik..OOOOXXOOOOOOXX..ikkiikk",
"kkiikkiik..ooooXXOOXX..ikkiikkii",
"ggggggggg..ooooXXOOXX..ggggggggg",
"jjjjjjhgj..OOOOXXOOXX..gjjjjjjjj",
"jjjjjjhgj..OOOOXXOOXX..gjjjjjjjj",
"jjjjjjhgjjj..ooooXX..jhgjjjjjjjj",
"hhhhhhhghhh..ooooXX..hhghhhhhhhh",
"ggggggggggggg......ggggggggggggg",
"iikkiikkiikki......kiikkiikkiikk"
};
