/* XPM */
static char *result[] = {
/* columns rows colors chars-per-pixel */
"32 32 10 1 ",
"+ c black",
". c #8C4121",
"X c #FFC30E",
"o c #FFEA61",
"O c white",
"g c #FFC30E",
"h c #FFD154",
"i c #F57AF5",
"j c #FFDF8F",
"k c #FCAEFC",
/* pixels */
"kkiikkiikkiik++++++ikkiikkiikkii",
"ggggggggggggg++++++ggggggggggggg",
"jjjjjjhgjjj++XX....++jhgjjjjjjjj",
"jjjjjjhgjjj++XX....++jhgjjjjjjjj",
"jjjjjjhgj++OOooooXXXX++gjjjjjjjj",
"hhhhhhhgh++OOooooXXXX++ghhhhhhhh",
"ggggggggg++OOXXoo....++ggggggggg",
"iikkiikki++OOXXoo....++kiikkiikk",
"kkiikki++OOoo..ooooXXXX++kiikkii",
"ggggggg++OOoo..ooooXXXX++ggggggg",
"jjjjjjh++OO..oo..ooXXXX++jjjjjjj",
"jjjjjjh++OO..oo..ooXXXX++jjjjjjj",
"jjjjjjh++oo..ooXXooXXXX++jjjjjjj",
"hhhhhhh++oo..ooXXooXXXX++hhhhhhh",
"ggggggg++oo..ooXXooXXXX++ggggggg",
"iikkiik++oo..ooXXooXXXX++ikkiikk",
"kkiikki++oo..ooXXooXXXX++kiikkii",
"ggggggg++oo..ooXXooXXXX++ggggggg",
"jjjjjjh++oo..ooXXOOXXXX++jjjjjjj",
"jjjjjjh++oo..ooXXOOXXXX++jjjjjjj",
"jjjjjjh++oo..ooOOOOXXXX++jjjjjjj",
"hhhhhhh++oo..ooOOOOXXXX++hhhhhhh",
"ggggggg++ooXXOOOOooXXXX++ggggggg",
"iikkiik++ooXXOOOOooXXXX++ikkiikk",
"kkiikkiik++OOOOoo....++ikkiikkii",
"ggggggggg++OOOOoo....++ggggggggg",
"jjjjjjhgj++OOooooXXXX++gjjjjjjjj",
"jjjjjjhgj++OOooooXXXX++gjjjjjjjj",
"jjjjjjhgjjj++XX....++jhgjjjjjjjj",
"hhhhhhhghhh++XX....++hhghhhhhhhh",
"ggggggggggggg++++++ggggggggggggg",
"iikkiikkiikki++++++kiikkiikkiikk"
};
