/* XPM */
static char *result[] = {
/* columns rows colors chars-per-pixel */
"32 32 10 1 ",
"+ c black",
". c #8C4121",
"X c #FFC20E",
"o c #FFEA61",
"O c white",
"g c #FFC30E",
"h c #FFD154",
"i c #F57AF5",
"j c #FFDF8F",
"k c #FCAEFC",
/* pixels */
"kkiikkiikkii++++++++kkiikkiikkii",
"gggggggggggg++++++++gggggggggggg",
"jjjjjjhg++++XXXXXXXX++++jjjjjjjj",
"jjjjjjhg++++XXXXXXXX++++jjjjjjjj",
"jjjjjj++XXXXOOoooooo....++jjjjjj",
"hhhhhh++XXXXOOoooooo....++hhhhhh",
"gggg++XXOOOOoooooooooooo..++gggg",
"iikk++XXOOOOoooooooooooo..++iikk",
"kk++XXOOoooo........oooooo..++ii",
"gg++XXOOoooo........oooooo..++gg",
"jj++XXOOoo..XXXXXXXX..oooo..++jj",
"jj++XXOOoo..XXXXXXXX..oooo..++jj",
"++XXOOoo..XXXXXXXXooooXXoooo..++",
"++XXOOoo..XXXXXXXXooooXXoooo..++",
"++XXoooo..XXXXXXooooooXXoooo..++",
"++XXoooo..XXXXXXooooooXXoooo..++",
"++XXoooo..XXXXooooooOOXXoooo..++",
"++XXoooo..XXXXooooooOOXXoooo..++",
"++XXoooo..XXooooooOOOOXXoooo..++",
"++XXoooo..XXooooooOOOOXXoooo..++",
"jj++XXoooo..ooooOOOOXXoooo..++jj",
"hh++XXoooo..ooooOOOOXXoooo..++hh",
"gg++XXooooooXXXXXXXXoooooo..++gg",
"ii++XXooooooXXXXXXXXoooooo..++kk",
"kkii++XXoooooooooooooooo..++kkii",
"gggg++XXoooooooooooooooo..++gggg",
"jjjjjj++XXXXoooooooo....++jjjjjj",
"jjjjjj++XXXXoooooooo....++jjjjjj",
"jjjjjjhg++++XXXXXXXX++++jjjjjjjj",
"hhhhhhhg++++XXXXXXXX++++hhhhhhhh",
"gggggggggggg++++++++gggggggggggg",
"iikkiikkiikk++++++++iikkiikkiikk"
};
