/* XPM */
static char *result[] = {
/* columns rows colors chars-per-pixel */
"32 32 10 1 ",
"0 c black",
". c #8C4121",
"X c #FFC30E",
"o c #FFEA61",
"O c white",
"g c #FFC30E",
"h c #FFD154",
"i c #F57AF5",
"j c #FFDF8F",
"k c #FCAEFC",
/* pixels */
"kkiikkiikkii00000000kkiikkiikkii",
"gggggggggggg00000000gggggggggggg",
"jjjjjjhg0000oo......0000jjjjjjjj",
"jjjjjjhg0000oo......0000jjjjjjjj",
"jjjjjj00OO....XXXXoo....00jjjjjj",
"hhhhhh00OO....XXXXoo....00hhhhhh",
"gggg00OO..XXXXoooooooooo..00gggg",
"iikk00OO..XXXXoooooooooo..00iikk",
"kkii00OO..XXoooo....oooo..00kkii",
"gggg00OO..XXoooo....oooo..00gggg",
"jj00OO..XXoooo..XXXX..oooo..00jj",
"jj00OO..XXoooo..XXXX..oooo..00jj",
"jj00OO..XXoo..XXXXXXooXXoo..00jj",
"hh00OO..XXoo..XXXXXXooXXoo..00hh",
"gg00OO..XXoo..XXXXooooXXoo..00gg",
"ii00OO..XXoo..XXXXooooXXoo..00kk",
"kk00OO..XXoo..XXooooooXXoo..00ii",
"gg00OO..XXoo..XXooooooXXoo..00gg",
"jj00oo..XXoo..ooooooooXXoo..00jj",
"jj00oo..XXoo..ooooooooXXoo..00jj",
"jj00oo..XXooooXXooooXXoooo..00jj",
"hh00oo..XXooooXXooooXXoooo..00hh",
"gggg00oo..XXooooXXXXoooo..00gggg",
"iikk00oo..XXooooXXXXoooo..00iikk",
"kkii00oo..XXXXoooooooooo..00kkii",
"gggg00oo..XXXXoooooooooo..00gggg",
"jjjjjj00oo....XXXXXX....00jjjjjj",
"jjjjjj00oo....XXXXXX....00jjjjjj",
"jjjjjjhg0000oo......0000jjjjjjjj",
"hhhhhhhg0000oo......0000hhhhhhhh",
"gggggggggggg00000000gggggggggggg",
"iikkiikkiikk00000000iikkiikkiikk"
};
