/* XPM */
static char *result[] = {
/* columns rows colors chars-per-pixel */
"32 32 11 1 ",
"g c #FFC30E",
"h c #FFD154",
"i c #F57AF5",
"j c #FFDF8F",
"k c #FCAEFC",
". c black",
"X c #22B14C",
"o c #4D6DF3",
"O c #00B7EF",
"+ c #E6B798",
"@ c white",
/* pixels */
"kkiik....kiikkiikkiikki....ikkii",
"ggggg....gggggggggggggg....ggggg",
"jjj..@@@@..............@@@@..jjj",
"jjj..@@@@..............@@@@..jjj",
"jjj..@@@@@@@@@@@@@@@@@@@@@@..jjj",
"hhh..@@@@@@@@@@@@@@@@@@@@@@..hhh",
"ggg..@@@@++++++++++++++@@@@..ggg",
"iik..@@@@++++++++++++++@@@@..ikk",
"kki..@@++++++++++++++++++@@..kii",
"ggg..@@++++++++++++++++++@@..ggg",
"jjj..@@++..++++++++++..++@@..jjj",
"jjj..@@++..++++++++++..++@@..jjj",
"jjj..@@++++++......++++++@@..jjj",
"hhh..@@++++++......++++++@@..hhh",
"ggg..@@@@++++++++++++++@@@@..ggg",
"iik..@@@@++++++++++++++@@@@..ikk",
"k..XXXX@@@@@@@@@@@@@@@@@@XXXX..i",
"g..XXXX@@@@@@@@@@@@@@@@@@XXXX..g",
"j..++XXOOOOOOOOOOOOOOOOOOXX++..j",
"j..++XXOOOOOOOOOOOOOOOOOOXX++..j",
"j..++XXOOOOOOOOOOOOOOOOOOXX++..j",
"h..++XXOOOOOOOOOOOOOOOOOOXX++..h",
"g..++OOOOOOOOOOOOOOOOOOOOOO++..g",
"i..++OOOOOOOOOOOOOOOOOOOOOO++..k",
"kki..OOOOOOOOOOOOOOOOOOOOOO..kii",
"ggg..OOOOOOOOOOOOOOOOOOOOOO..ggg",
"jjj..oooooooooooooooooooooo..jjj",
"jjj..oooooooooooooooooooooo..jjj",
"jjj..oooooo..........oooooo..jjj",
"hhh..oooooo..........oooooo..hhh",
"ggggg......gggggggggg......ggggg",
"iikki......kiikkiikki......kiikk"
};
