/* XPM */
static char *result[] = {
/* columns rows colors chars-per-pixel */
"32 32 11 1 ",
"g c #FFC30E",
"h c #FFD154",
"i c #F57AF5",
"j c #FFDF8F",
"k c #FCAEFC",
". c black",
"X c #ED1C24",
"o c #FFF200",
"O c #002FEB",
"+ c #99D9EA",
"@ c white",
/* pixels */
"kkiikkiikkiikki..kiikkiikkiikkii",
"gggggg.ggggggg.oo.ggggggg.gggggg",
"jjjjj.o.jjjjjj.oo.jjjjhg.o.jjjjj",
"jjjjj.o.jjjjj.oooo.jjjhg.o.jjjjj",
"jjjjj.oo.jjjj.oXXo.jjjh.oo.jjjjj",
"hhhhh.Xoo.hh.oXXXXo.hh.ooX.hhhhh",
"ggggg.XXoo..ooXXXXoo..ooXX.ggggg",
"iikki.XooooooooXXooooooooX.kiikk",
"kkiik.oooooooooooooooooooo.ikkii",
"ggggg.@@++@@@++++++@@@++@@.ggggg",
"jjjjj.@@++...++++++...++@@.jjjjj",
"jjjjj.@@++...++++++...++@@.jjjjj",
"jjjj..@@++...++++++...++@@..jjjj",
"hhh.@@@@++++++++++++++++@@@@.hhh",
"ggg.@@@@@@@@@@@++@@@@@@@@@@@.ggg",
"iik.@@@@@@@@@@@++@@@@@@@@@@@.ikk",
"kki.OO@@@@@@@@@++@@@@@@@@@OO.kii",
"ggg.OO@@@@@@...++...@@@@@@OO.ggg",
"jjj.OOO@@@@@...++...@@@@@OOO.jjj",
"jjj.OOO@@@..@@@++@@@..@@@OOO.jjj",
"jjj.OO.O@@..@@@@@@@@..@@O.OO.jjj",
"hhh.OO.O@@@@@@@@@@@@@@@@O.OO.hhh",
"ggg.++.OO@@@@@@@@@@@@@@OO.++.ggg",
"iik.++.OOOO@@@@@@@@@@OOOO.++.ikk",
"kkii..OOOOOO@@@@@@@@OOOOOO..kkii",
"ggggg.OOOOOOOO@@@@OOOOOOOO.ggggg",
"jjjjj.OOOOOOOOO@@OOOOOOOOO.jjjjj",
"jjjjj.OOOOOOOOOOOOOOOOOOOO.jjjjj",
"jjjjj.OOOOOOOOOOOOOOOOOOOO.jjjjj",
"hhhhh.OOOOOOOOOOOOOOOOOOOO.hhhhh",
"ggggg.OOOOOOOOOOOOOOOOOOOO.ggggg",
"iikki......................kiikk"
};
