/* XPM */
static char *result[] = {
/* columns rows colors chars-per-pixel */
"64 64 18 1 ",
"  c #73402A",
". c #125450",
"X c #ED1C24",
"o c #A8E61D",
"O c #FFC30E",
"+ c #FFF200",
"@ c #FFD154",
"# c #774EF2",
"$ c #BF1FBF",
"% c #E04AE0",
"& c #F57AF5",
"* c #34C2B9",
"= c #00B7EF",
"- c #FFDF8F",
"; c #FFA3FF",
": c #FCAEFC",
"> c #AAFAF5",
", c white",
/* pixels */
"::::&&&&::::&&&&::::&&&&::::$$$$$$$$&&&&::::&&&&::::&&&&::::&&&&",
"::::&&&&::::&&&&::::&&&&::::$$$$$$$$&&&&::::&&&&::::&&&&::::&&&&",
"OOOOOOOOOOOOOOOOOOOOOOOOOOOO$$$$$$$$OOOOOOOOOOOOOOOOOOOOOOOOOOOO",
"OOOOOOOOOOOOOOOOOOOOOOOOOOOO$$$$$$$$OOOOOOOOOOOOOOOOOOOOOOOOOOOO",
"------------@@OO----$$$$$$$$;;;;;;;;$$$$$$$$@@OO----------------",
"------------@@OO----$$$$$$$$;;;;;;;;$$$$$$$$@@OO----------------",
"------------@@OO----$$$$$$$$;;;;;;;;$$$$$$$$@@OO----------------",
"------------@@OO----$$$$$$$$;;;;;;;;$$$$$$$$@@OO----------------",
"------------@@OO$$$$;;;;;;;;;;;;;;;;;;;;;;;;$$$$----------------",
"------------@@OO$$$$;;;;;;;;;;;;;;;;;;;;;;;;$$$$----------------",
"@@@@@@@@@@@@@@OO$$$$;;;;;;;;;;;;;;;;;;;;;;;;$$$$@@@@@@@@@@@@@@@@",
"@@@@@@@@@@@@@@OO$$$$;;;;;;;;;;;;;;;;;;;;;;;;$$$$@@@@@@@@@@@@@@@@",
"OOOOOOOOOOOO$$$$%%%%;;;;;;;;;;;;%%%%;;;;;;;;%%%%$$$$OOOOOOOOOOOO",
"OOOOOOOOOOOO$$$$%..............................%$$$$OOOOOOOOOOOO",
"&&&&::::&&&&$$$$%..............................%$$$$::::&&&&::::",
"&&&&::::&&&&$$$..******************************..$$$::::&&&&::::",
"::::&&&&$$$$;;;..******************************..;;;$$$$::::&&&&",
"::::&&&&$$$$;;;..**>>>>>>>>>>>>>>>>>>>>>>>>>>**..;;;$$$$::::&&&&",
"OOOOOOOO$$$$;;;..**>>>>>>>>>>>>>>>>>>>>>>>>>>**..;;;$$$$OOOOOOOO",
"OOOOOOOO$$$$;;;..**>>>>>>>>>>>>>>>>>>>>>>>>>>**..;;;$$$$OOOOOOOO",
"--------$$$$;;;..**>>>>>>>>>>>>>>>>>>>>>>>>>>**..;;;$$$$--------",
"--------$$$$;;;..**>>>>>>>>>>>>>>>>>>>>>>>>>>**..;;;$$$$--------",
"--------$$$$;;;..**>>>>>>>>>>>>>>>>>>>>>>>>>>**..;;;$$$$--------",
"--------$$$$;;;..**>>>>>>>>>>>>>>>>>>>>>>>>>>**..;;;$$$$--------",
"----$$$$;;;;;;;..**>>>>>>>>>>>>>>>>>>>>>>>>>>**..%%%;;;;$$$$----",
"----$$$$;;;;;;;..**>>>>>>>>>>>>>>>>>>>>>>>>>>**..%%%;;;;$$$$----",
"----$$$$;;;;;;;..**>>>>>>>>>>>>>>>>>>>>>>>>>>**..%%%;;;;$$$$@@@@",
"----$$$$;;;;;;;..**>>>>>>>>>>>>>>>>>>>>>>>>>>**..%%%;;;;$$$$@@@@",
"$$$$%%%%;;;;;;;..**>>>>>>>>>>>>>>>>>>>>>>>>>>**..%%%%%%%;;;;$$$$",
"$$$$%%%%;;;;;;;..**>>>>>>>>>>>>>>>>>>>>>>>>>>**..%%%%%%%;;;;$$$$",
"$$$$%%%%;;;;;;;..**>>>>>>>>>>>>>>>>>>>>>>>>>>**..%%%%%%%;;;;$$$$",
"$$$$%%%%;;;;;;;..**>>>>>>>>>>>>>>>>>>>>>>>>>>**..%%%%%%%;;;;$$$$",
"$$$$;;;;%%%%%%%..**>>>>>>>>>>>>>>>>>>>>>>>>>>**..;;;$$$$%%%%$$$$",
"$$$$;;;;%%%%%%%..**>>>>>>>>>>>>>>>>>>>>>>>>>>**..;;;$$$$%%%%$$$$",
"$$$$;;;;%%%%%%%..**>>>>>>>>>>>>>>>>>>>>>>>>>>**..;;;$$$$%%%%$$$$",
"$$$$;;;;%%%%%%%..**>>>>>>>>>>>>>>>>>>>>>>>>>>**..;;;$$$$%%%%$$$$",
"$$$$%%%%$$$$$$$..**>>>>>>>>>>>>>>>>>>>>>>>>>>**..$$$%%%%$$$$$$$$",
"$$$$%%%%$$$$$$$..******************************..$$$%%%%$$$$$$$$",
"$$$$%%%%$$$$$$$..******************************..$$$%%%%$$$$$$$$",
"$$$$%%%%$$$$$$$..****.........*********##******..$$$%%%%$$$$$$$$",
"$$$$$$$$%%%%%%%..****.........*********##******..%%%$$$$$$$$$$$$",
"$$$$$$$$%%%%%%%..******************************..%%%$$$$$$$$$$$$",
"$$$$$$$$%%%%%%%..******************************..%%%$$$$$$$$$$$$",
"$$$$$$$$%%%%%%%..******++**********************..%%%$$$$$$$$$$$$",
"OOOO$$$$$$$$%%%..******++**********************..$$$$$$$$$$$OOOO",
"OOOO$$$$$$$$%%%..****++++++********==**oo******..$$$$$$$$$$$OOOO",
"&&&&$$$$$$$$%%%..****++++++********==**oo******..$$$$$$$$$$$::::",
"&&&&$$$$$$$$%%%..******++************XX********..$$$$$$$$$$$::::",
"::::&&&&$$$$$$$..******++************XX********..$$$$$$$::::&&&&",
"::::&&&&$$$$$$$..******************************..$$$$$$$::::&&&&",
"OOOOOOOO$$$$$$$..******************************..$$$$$$$OOOOOOOO",
"OOOOOOOO$$$$$$$$$..............................$$$$$$$$$OOOOOOOO",
"------------$$$$$..............................$$$$$------------",
"------------$$$$$$$$$$$$$$$$$$$$$$$$$$$$$$$$$$$$$$$$------------",
"------------$$$$$$$$$$$$$$$$$$$$$$$$$$$$$$$$$$$$$$$$------------",
"------------$$$$$$$$$$$$$$$$$$$$$$$$$$$$$$$$$$$$$$$$------------",
"------------@@OO----        ,,,,,,,,,,,,    @@OO----------------",
"------------@@OO----        ,,,,,,,,,,,,    @@OO----------------",
"@@@@@@@@@@@@@@OO@@@@        ,,,,,,,,,,,,    @@OO@@@@@@@@@@@@@@@@",
"@@@@@@@@@@@@@@OO@@@@        ,,,,,,,,,,,,    @@OO@@@@@@@@@@@@@@@@",
"OOOOOOOOOOOOOOOO    ,,,,    ,,,,    ,,,,,,,,    OOOOOOOOOOOOOOOO",
"OOOOOOOOOOOOOOOO    ,,,,    ,,,,    ,,,,,,,,    OOOOOOOOOOOOOOOO",
"&&&&::::&&&&::::    ,,,,    ,,,,    ,,,,,,,,    &&&&::::&&&&::::",
"&&&&::::&&&&::::    ,,,,    ,,,,    ,,,,,,,,    &&&&::::&&&&::::"
};
