/* XPM */
static char *result[] = {
/* columns rows colors chars-per-pixel */
"64 64 9 1 ",
"  c black",
". c #8C4121",
"X c #FFD454",
"o c #FFDF8F",
"O c #FFEA61",
"+ c #F57AF5",
"@ c #FFEBBD",
"# c #FCAEFC",
"$ c white",
/* pixels */
"####++++####++++####++++####++++####++++####++++####++++####++++",
"####++++####++++####++++####++++####++++####++++####++++####++++",
"XXXXXXXXXXXXXXXXXXXXXXXXXXXXXXXXXXXXXXXXXXXXXXXXXXXXXXXXXXXXXXXX",
"XXXXXXXXXXXXXXXXXXXXXXXXXXXXXXXXXXXXXXXXXXXXXXXXXXXXXXXXXXXXXXXX",
"@@@@@@@@@@@@ooXX@@@@@@@@@@@@@@@@@@@@@@@@@@@@ooXX@@@@@@@@@@@@@@@@",
"@@@@@@@@@@@@ooXX@@@@@@@@@@@@@@@@@@@@@@@@@@@@ooXX@@@@@@@@@@@@@@@@",
"@@@@@@@@@@@@ooXX@@@@@@@@@@@@@@@@@@@@@@@@@@@@ooXX@@@@@@@@@@@@@@@@",
"@@@@@@@@@@@@ooXX@@@@@@@@@@@@@@@@@@@@@@@@@@@@ooXX@@@@@@@@@@@@@@@@",
"@@@@@@@@@@@@ooXX@@@@@@@@@@@@@@@@@@@@@@@@@@@@ooXX@@@@@@@@@@@@@@@@",
"@@@@@@@@@@@@ooXX@@@@@@@@@@@@@@@@@@@@@@@@@@@@ooXX@@@@@@@@@@@@@@@@",
"ooooooooooooooXXooooooooooooooooooooooooooooooXXoooooooooooooooo",
"ooooooooooooooXXooooooooooooooooooooooooooooooXXoooooooooooooooo",
"XXXXXXXXXXXXXXXXXXXXXXXXXXXXXXXXXXXXXXXXXXXXXXXXXXXXXXXXXXXXXXXX",
"XXXXXXXXXXXXXXXXXXXXXXXXXXXXXXXXXXXXXXXXXXXXXXXXXXXXXXXXXXXXXXXX",
"++++####++++####++++####++++####++++####++++####++++####++++####",
"++++####++++####++++####++++#      +####++++####++++####++++####",
"####++++####++++####++++####+      #++++####++++####++++####++++",
"####++++####++++####++++###  XXXXXX  +++####++++####++++####++++",
"XXXXXXXXXXXXXXXXXXXXXXXXXXX  XXXXXX  XXXXXXXXXXXXXXXXXXXXXXXXXXX",
"XXXXXXXXXXXXXXXXXXXXXXXXXXX  OOOOOO  XXXXXXXXXXXXXXXXXXXXXXXXXXX",
"@@@@@@@@@@@@ooXX@@@@@@@@@@@  OOOOOO  @@@@@@@ooXX@@@@@@@@@@@@@@@@",
"@@@@@@@@@@@@ooXX@@@@@@@@@@@  OOOOOO  @@@@@@@ooXX@@@@@@@@@@@@@@@@",
"@@@@@@@@@@@@ooXX@@@@@@@@@@@  OOOOOO  @@@@@@@ooXX@@@@@@@@@@@@@@@@",
"@@@@@@@@@@@@ooXX@@@@@@@@@@@  $$$$$$  @@@@@@@ooXX@@@@@@@@@@@@@@@@",
"@@@@@@@@@@@@ooXX@@@@@@@@@@@  $$$$$$  @@@@@@@ooXX@@@@@@@@@@@@@@@@",
"@@@@@@@@@@@@ooXX@@@@@@@@@@@  $$$$$$  @@@@@@@ooXX@@@@@@@@@@@@@@@@",
"ooooooooooooooXXooooooooooo  $$$$$$  oooooooooXXoooooooooooooooo",
"ooooooooooooooXXooooooooooo  $$$$$$  oooooooooXXoooooooooooooooo",
"XXXXXXXXXXXXXXXXXXXXXXXXXXX  $$$$$$  XXXXXXXXXXXXXXXXXXXXXXXXXXX",
"XXXXXXXXXXXXXXXXXXXXXXXXXXX  OOOOOO  XXXXXXXXXXXXXXXXXXXXXXXXXXX",
"++++####++++####++++####+++  OOOOOO  ###++++####++++####++++####",
"++++####++++####++++####+++  OOOOOO  ###++++####++++####++++####",
"####++++####++++####++++###  OOOOOO  +++####++++####++++####++++",
"####++++####++++####++++###  XXXXXX  +++####++++####++++####++++",
"XXXXXXXXXXXXXXXXXXXXXXXXXXX  XXXXXX  XXXXXXXXXXXXXXXXXXXXXXXXXXX",
"XXXXXXXXXXXXXXXXXXXXXXXXXXX  XXXXXX  XXXXXXXXXXXXXXXXXXXXXXXXXXX",
"@@@@@@@@@@@@ooXX@@@@@@@@@@@  XXXXXX  @@@@@@@ooXX@@@@@@@@@@@@@@@@",
"@@@@@@@@@@@@ooXX@@@@@@@@@@@  XXXXXX  @@@@@@@ooXX@@@@@@@@@@@@@@@@",
"@@@@@@@@@@@@ooXX@@@@@@@@@@@  XXXXXX  @@@@@@@ooXX@@@@@@@@@@@@@@@@",
"@@@@@@@@@@@@ooXX@@@@@@@@@@@  ......  @@@@@@@ooXX@@@@@@@@@@@@@@@@",
"@@@@@@@@@@@@ooXX@@@@@@@@@@@  ......  @@@@@@@ooXX@@@@@@@@@@@@@@@@",
"@@@@@@@@@@@@ooXX@@@@@@@@@@@  XXXXXX  @@@@@@@ooXX@@@@@@@@@@@@@@@@",
"ooooooooooooooXXooooooooooo  XXXXXX  oooooooooXXoooooooooooooooo",
"ooooooooooooooXXooooooooooo  ......  oooooooooXXoooooooooooooooo",
"XXXXXXXXXXXXXXXXXXXXXXXXXXX  ......  XXXXXXXXXXXXXXXXXXXXXXXXXXX",
"XXXXXXXXXXXXXXXXXXXXXXXXXXXXX      XXXXXXXXXXXXXXXXXXXXXXXXXXXXX",
"++++####++++####++++####++++#      +####++++####++++####++++####",
"++++####++++####++++####++++####++++####++++####++++####++++####",
"####++++####++++####++++####++++####++++####++++####++++####++++",
"####++++####++++####++++####++++####++++####++++####++++####++++",
"XXXXXXXXXXXXXXXXXXXXXXXXXXXXXXXXXXXXXXXXXXXXXXXXXXXXXXXXXXXXXXXX",
"XXXXXXXXXXXXXXXXXXXXXXXXXXXXXXXXXXXXXXXXXXXXXXXXXXXXXXXXXXXXXXXX",
"@@@@@@@@@@@@ooXX@@@@@@@@@@@@@@@@@@@@@@@@@@@@ooXX@@@@@@@@@@@@@@@@",
"@@@@@@@@@@@@ooXX@@@@@@@@@@@@@@@  @@@@@@@@@@@ooXX@@@@@@@@@@@@@@@@",
"@@@@@@@@@@@@ooXX@@@@@@@@@@@@@@    @@@@@@@@@@ooXX@@@@@@@@@@@@@@@@",
"@@@@@@@@@@@@ooXX@@@@@@@@@@@@@@    @@@@@@@@@@ooXX@@@@@@@@@@@@@@@@",
"@@@@@@@@@@@@ooXX@@@@@@@@@@@@@@    @@@@@@@@@@ooXX@@@@@@@@@@@@@@@@",
"@@@@@@@@@@@@ooXX@@@@@@@@@@@@@@    @@@@@@@@@@ooXX@@@@@@@@@@@@@@@@",
"ooooooooooooooXXooooooooooooooo  oooooooooooooXXoooooooooooooooo",
"ooooooooooooooXXooooooooooooooooooooooooooooooXXoooooooooooooooo",
"XXXXXXXXXXXXXXXXXXXXXXXXXXXXXXXXXXXXXXXXXXXXXXXXXXXXXXXXXXXXXXXX",
"XXXXXXXXXXXXXXXXXXXXXXXXXXXXXXXXXXXXXXXXXXXXXXXXXXXXXXXXXXXXXXXX",
"++++####++++####++++####++++####++++####++++####++++####++++####",
"++++####++++####++++####++++####++++####++++####++++####++++####"
};
