/* XPM */
static char *result[] = {
/* columns rows colors chars-per-pixel */
"64 64 10 1 ",
"  c black",
". c #8C4121",
"X c #FFC30E",
"o c #FFEA61",
"O c white",
"g c #FFD454",
"h c #FFDF8F",
"i c #F57AF5",
"j c #FFEBBD",
"k c #FCAEFC",
/* pixels */
"kkkkiiiikkkkiiiikkkkiiii                kkkkiiiikkkkiiiikkkkiiii",
"kkkkiiiikkkkiiiikkkkiiii                kkkkiiiikkkkiiiikkkkiiii",
"gggggggggggggggggggggggg                gggggggggggggggggggggggg",
"gggggggggggggggggggggggg                gggggggggggggggggggggggg",
"jjjjjjjjjjjjhhgg        XXXXXXXXXXXX....        jjjjjjjjjjjjjjjj",
"jjjjjjjjjjjjhhgg        XXXXXXXXXXXX....        jjjjjjjjjjjjjjjj",
"jjjjjjjjjjjjhhgg        XXXXXXXXXXXX....        jjjjjjjjjjjjjjjj",
"jjjjjjjjjjjjhhgg        XXXXXXXXXXXX....        jjjjjjjjjjjjjjjj",
"jjjjjjjjjjjj    XXXXXXXXOOOOooooooooooooOOOO....    jjjjjjjjjjjj",
"jjjjjjjjjjjj    XXXXXXXXOOOOooooooooooooOOOO....    jjjjjjjjjjjj",
"hhhhhhhhhhhh    XXXXXXXXOOOOooooooooooooOOOO....    hhhhhhhhhhhh",
"hhhhhhhhhhhh    XXXXXXXXOOOOooooooooooooOOOO....    hhhhhhhhhhhh",
"gggggggg    XXXXOOOOOOOOooooooooooooOOOOOOOOOOOO....    gggggggg",
"gggggggg    XXXXOOOOOOOOooooooooooooOOOOOOOOOOOO....    gggggggg",
"iiiikkkk    XXXXOOOOOOOOooooooooooooOOOOOOOOOOOO....    kkkkiiii",
"iiiikkkk    XXXXOOOOOOOOooooooooooooOOOOOOOOOOOO....    kkkkiiii",
"kkkkiiii    XXXXOOOOoooo........XXXXOOOOOOOOoooo....    iiiikkkk",
"kkkkiiii    XXXXOOOOoooo........XXXXOOOOOOOOoooo....    iiiikkkk",
"gggggggg    XXXXOOOOoooo........XXXXOOOOOOOOoooo....    gggggggg",
"gggggggg    XXXXOOOOoooo........XXXXOOOOOOOOoooo....    gggggggg",
"jjjj    XXXXOOOOoooo....OOOOOOOOOOOOXXXXooooooooXXXX....    jjjj",
"jjjj    XXXXOOOOoooo....OOOOOOOOOOOOXXXXooooooooXXXX....    jjjj",
"jjjj    XXXXOOOOoooo....OOOOOOOOOOOOXXXXooooooooXXXX....    jjjj",
"jjjj    XXXXOOOOoooo....OOOOOOOOOOOOXXXXooooooooXXXX....    jjjj",
"jjjj    XXXXooooXXXXOOOOOOOOOOOOOOOOooooXXXXooooXXXX....    jjjj",
"jjjj    XXXXooooXXXXOOOOOOOOOOOOOOOOooooXXXXooooXXXX....    jjjj",
"hhhh    XXXXooooXXXXOOOOOOOOOOOOOOOOooooXXXXooooXXXX....    hhhh",
"hhhh    XXXXooooXXXXOOOOOOOOOOOOOOOOooooXXXXooooXXXX....    hhhh",
"gggg    XXXXooooXXXXOOOOOOOOOOOOooooooooXXXXooooXXXX....    gggg",
"gggg    XXXXooooXXXXOOOOOOOOOOOOooooooooXXXXooooXXXX....    gggg",
"iiii    XXXXooooXXXXOOOOOOOOOOOOooooooooXXXXooooXXXX....    kkkk",
"iiii    XXXXooooXXXXOOOOOOOOOOOOooooooooXXXXooooXXXX....    kkkk",
"kkkk    XXXXOOOOXXXXOOOOOOOOooooooooooooXXXXooooXXXX....    iiii",
"kkkk    XXXXOOOOXXXXOOOOOOOOooooooooooooXXXXooooXXXX....    iiii",
"gggg    XXXXOOOOXXXXOOOOOOOOooooooooooooXXXXooooXXXX....    gggg",
"gggg    XXXXOOOOXXXXOOOOOOOOooooooooooooXXXXooooXXXX....    gggg",
"jjjj    OOOOOOOOXXXXOOOOooooooooooooooooXXXXooooXXXX....    jjjj",
"jjjj    OOOOOOOOXXXXOOOOooooooooooooooooXXXXooooXXXX....    jjjj",
"jjjj    OOOOOOOOXXXXOOOOooooooooooooooooXXXXooooXXXX....    jjjj",
"jjjj    OOOOOOOOXXXXOOOOooooooooooooooooXXXXooooXXXX....    jjjj",
"jjjj    OOOOOOOOOOOOXXXXoooooooooooo....ooooooooXXXX....    jjjj",
"jjjj    OOOOOOOOOOOOXXXXoooooooooooo....ooooooooXXXX....    jjjj",
"hhhh    OOOOOOOOOOOOXXXXoooooooooooo....ooooooooXXXX....    hhhh",
"hhhh    OOOOOOOOOOOOXXXXoooooooooooo....ooooooooXXXX....    hhhh",
"gggggggg    OOOOooooooooXXXX........ooooooooXXXX....    gggggggg",
"gggggggg    OOOOooooooooXXXX........ooooooooXXXX....    gggggggg",
"iiiikkkk    OOOOooooooooXXXX........ooooooooXXXX....    iiiikkkk",
"iiiikkkk    OOOOooooooooXXXX........ooooooooXXXX....    iiiikkkk",
"kkkkiiii    ....ooooooooooooooooooooooooooooXXXX....    kkkkiiii",
"kkkkiiii    ....ooooooooooooooooooooooooooooXXXX....    kkkkiiii",
"gggggggg    ....ooooooooooooooooooooooooooooXXXX....    gggggggg",
"gggggggg    ....ooooooooooooooooooooooooooooXXXX....    gggggggg",
"jjjjjjjjjjjj    ........ooooooooooooXXXXXXXX....    jjjjjjjjjjjj",
"jjjjjjjjjjjj    ........ooooooooooooXXXXXXXX....    jjjjjjjjjjjj",
"jjjjjjjjjjjj    ........ooooooooooooXXXXXXXX....    jjjjjjjjjjjj",
"jjjjjjjjjjjj    ........ooooooooooooXXXXXXXX....    jjjjjjjjjjjj",
"jjjjjjjjjjjjhhgg        XXXXXXXXXXXX....        jjjjjjjjjjjjjjjj",
"jjjjjjjjjjjjhhgg        XXXXXXXXXXXX....        jjjjjjjjjjjjjjjj",
"hhhhhhhhhhhhhhgg        XXXXXXXXXXXX....        hhhhhhhhhhhhhhhh",
"hhhhhhhhhhhhhhgg        XXXXXXXXXXXX....        hhhhhhhhhhhhhhhh",
"gggggggggggggggggggggggg                gggggggggggggggggggggggg",
"gggggggggggggggggggggggg                gggggggggggggggggggggggg",
"iiiikkkkiiiikkkkiiiikkkk                iiiikkkkiiiikkkkiiiikkkk",
"iiiikkkkiiiikkkkiiiikkkk                iiiikkkkiiiikkkkiiiikkkk"
};
