/* XPM */
static char *result[] = {
/* columns rows colors chars-per-pixel */
"64 64 10 1 ",
"  c black",
". c #8C4121",
"X c #FFC30E",
"o c #FFEA61",
"O c white",
"g c #FFD454",
"h c #FFDF8F",
"i c #F57AF5",
"j c #FFEBBD",
"k c #FCAEFC",
/* pixels */
"kkkkiiiikkkkiiiikkkkiiiikk            iikkkkiiiikkkkiiiikkkkiiii",
"kkkkiiiikkkkiiiikkkkiiiikk            iikkkkiiiikkkkiiiikkkkiiii",
"gggggggggggggggggggggggggg            gggggggggggggggggggggggggg",
"gggggggggggggggggggggggggg            gggggggggggggggggggggggggg",
"jjjjjjjjjjjjhhggjjjjjj    XXXX........    jjhhggjjjjjjjjjjjjjjjj",
"jjjjjjjjjjjjhhggjjjjjj    XXXX........    jjhhggjjjjjjjjjjjjjjjj",
"jjjjjjjjjjjjhhggjjjjjj    XXXX........    jjhhggjjjjjjjjjjjjjjjj",
"jjjjjjjjjjjjhhggjjjjjj    XXXX........    jjhhggjjjjjjjjjjjjjjjj",
"jjjjjjjjjjjjhhggjj    OOOOooooooooXXXXXXXX    ggjjjjjjjjjjjjjjjj",
"jjjjjjjjjjjjhhggjj    OOOOooooooooXXXXXXXX    ggjjjjjjjjjjjjjjjj",
"hhhhhhhhhhhhhhgghh    OOOOooooooooXXXXXXXX    gghhhhhhhhhhhhhhhh",
"hhhhhhhhhhhhhhgghh    OOOOooooooooXXXXXXXX    gghhhhhhhhhhhhhhhh",
"gggggggggggggggggg    OOOOXXXXoooo........    gggggggggggggggggg",
"gggggggggggggggggg    OOOOXXXXoooo........    gggggggggggggggggg",
"iiiikkkkiiiikkkkii    OOOOXXXXoooo........    kkiiiikkkkiiiikkkk",
"iiiikkkkiiiikkkkii    OOOOXXXXoooo........    kkiiiikkkkiiiikkkk",
"kkkkiiiikkkkii    OOOOoooo....ooooooooXXXXXXXX    kkiiiikkkkiiii",
"kkkkiiiikkkkii    OOOOoooo....ooooooooXXXXXXXX    kkiiiikkkkiiii",
"gggggggggggggg    OOOOoooo....ooooooooXXXXXXXX    gggggggggggggg",
"gggggggggggggg    OOOOoooo....ooooooooXXXXXXXX    gggggggggggggg",
"jjjjjjjjjjjjhh    OOOO....oooo....ooooXXXXXXXX    jjjjjjjjjjjjjj",
"jjjjjjjjjjjjhh    OOOO....oooo....ooooXXXXXXXX    jjjjjjjjjjjjjj",
"jjjjjjjjjjjjhh    OOOO....oooo....ooooXXXXXXXX    jjjjjjjjjjjjjj",
"jjjjjjjjjjjjhh    OOOO....oooo....ooooXXXXXXXX    jjjjjjjjjjjjjj",
"jjjjjjjjjjjjhh    oooo....ooooXXXXooooXXXXXXXX    jjjjjjjjjjjjjj",
"jjjjjjjjjjjjhh    oooo....ooooXXXXooooXXXXXXXX    jjjjjjjjjjjjjj",
"hhhhhhhhhhhhhh    oooo....ooooXXXXooooXXXXXXXX    hhhhhhhhhhhhhh",
"hhhhhhhhhhhhhh    oooo....ooooXXXXooooXXXXXXXX    hhhhhhhhhhhhhh",
"gggggggggggggg    oooo....ooooXXXXooooXXXXXXXX    gggggggggggggg",
"gggggggggggggg    oooo....ooooXXXXooooXXXXXXXX    gggggggggggggg",
"iiiikkkkiiiikk    oooo....ooooXXXXooooXXXXXXXX    iikkkkiiiikkkk",
"iiiikkkkiiiikk    oooo....ooooXXXXooooXXXXXXXX    iikkkkiiiikkkk",
"kkkkiiiikkkkii    oooo....ooooXXXXooooXXXXXXXX    kkiiiikkkkiiii",
"kkkkiiiikkkkii    oooo....ooooXXXXooooXXXXXXXX    kkiiiikkkkiiii",
"gggggggggggggg    oooo....ooooXXXXooooXXXXXXXX    gggggggggggggg",
"gggggggggggggg    oooo....ooooXXXXooooXXXXXXXX    gggggggggggggg",
"jjjjjjjjjjjjhh    oooo....ooooXXXXooooXXXXXXXX    jjjjjjjjjjjjjj",
"jjjjjjjjjjjjhh    oooo....ooooXXXXooooXXXXXXXX    jjjjjjjjjjjjjj",
"jjjjjjjjjjjjhh    oooo....ooooXXXXOOOOXXXXXXXX    jjjjjjjjjjjjjj",
"jjjjjjjjjjjjhh    oooo....ooooXXXXOOOOXXXXXXXX    jjjjjjjjjjjjjj",
"jjjjjjjjjjjjhh    oooo....ooooOOOOOOOOXXXXXXXX    jjjjjjjjjjjjjj",
"jjjjjjjjjjjjhh    oooo....ooooOOOOOOOOXXXXXXXX    jjjjjjjjjjjjjj",
"hhhhhhhhhhhhhh    oooo....ooooOOOOOOOOXXXXXXXX    hhhhhhhhhhhhhh",
"hhhhhhhhhhhhhh    oooo....ooooOOOOOOOOXXXXXXXX    hhhhhhhhhhhhhh",
"gggggggggggggg    ooooXXXXOOOOOOOOooooXXXXXXXX    gggggggggggggg",
"gggggggggggggg    ooooXXXXOOOOOOOOooooXXXXXXXX    gggggggggggggg",
"iiiikkkkiiiikk    ooooXXXXOOOOOOOOooooXXXXXXXX    iikkkkiiiikkkk",
"iiiikkkkiiiikk    ooooXXXXOOOOOOOOooooXXXXXXXX    iikkkkiiiikkkk",
"kkkkiiiikkkkiiiikk    OOOOOOOOoooo........    iikkkkiiiikkkkiiii",
"kkkkiiiikkkkiiiikk    OOOOOOOOoooo........    iikkkkiiiikkkkiiii",
"gggggggggggggggggg    OOOOOOOOoooo........    gggggggggggggggggg",
"gggggggggggggggggg    OOOOOOOOoooo........    gggggggggggggggggg",
"jjjjjjjjjjjjhhggjj    OOOOooooooooXXXXXXXX    ggjjjjjjjjjjjjjjjj",
"jjjjjjjjjjjjhhggjj    OOOOooooooooXXXXXXXX    ggjjjjjjjjjjjjjjjj",
"jjjjjjjjjjjjhhggjj    OOOOooooooooXXXXXXXX    ggjjjjjjjjjjjjjjjj",
"jjjjjjjjjjjjhhggjj    OOOOooooooooXXXXXXXX    ggjjjjjjjjjjjjjjjj",
"jjjjjjjjjjjjhhggjjjjjj    XXXX........    jjhhggjjjjjjjjjjjjjjjj",
"jjjjjjjjjjjjhhggjjjjjj    XXXX........    jjhhggjjjjjjjjjjjjjjjj",
"hhhhhhhhhhhhhhgghhhhhh    XXXX........    hhhhgghhhhhhhhhhhhhhhh",
"hhhhhhhhhhhhhhgghhhhhh    XXXX........    hhhhgghhhhhhhhhhhhhhhh",
"gggggggggggggggggggggggggg            gggggggggggggggggggggggggg",
"gggggggggggggggggggggggggg            gggggggggggggggggggggggggg",
"iiiikkkkiiiikkkkiiiikkkkii            kkiiiikkkkiiiikkkkiiiikkkk",
"iiiikkkkiiiikkkkiiiikkkkii            kkiiiikkkkiiiikkkkiiiikkkk"
};
