/* XPM */
static char *result[] = {
/* columns rows colors chars-per-pixel */
"64 64 9 1 ",
"  c black",
". c #8C4121",
"X c #FFD454",
"o c #FFDF8F",
"O c #FFEA61",
"+ c #F57AF5",
"@ c #FFEBBD",
"# c #FCAEFC",
"$ c white",
/* pixels */
"####++++####++++####++++####++++####++++####++++####++++####++++",
"####++++####++++####++++####++++####++++####++++####++++####++++",
"XXXXXXXXXXXXXXXXXXXXXXXXXXXXXXXXXXXXXXXXXXXXXXXXXXXXXXXXXXXXXXXX",
"XXXXXXXXXXXXXXXXXXXXXXXXXXXXXXXXXXXXXXXXXXXXXXXXXXXXXXXXXXXXXXXX",
"@@@@@@@@@@@@ooXX@@@@@@@@@@@@@@@@@@@@@@@@@@@@ooXX@@@@@@@@@@@@@@@@",
"@@@@@@@@@@@@ooXX@@@@@@@@@@@@@@@@@@@@@@@@@@@@ooXX@@@@@@@@@@@@@@@@",
"@@@@@@@@@@@@ooXX@@@@@@@@@@@@@@@@@@@@@@@@@@@@ooXX@@@@@@@@@@@@@@@@",
"@@@@@@@@@@@@ooXX@@@@@@@@@@@@@@@@@@@@@@@@@@@@ooXX@@@@@@@@@@@@@@@@",
"@@@@@@@@@@@@ooXX@@@@@@@@@@@@@@@@@@@@@@@@@@@@ooXX@@@@@@@@@@@@@@@@",
"@@@@@@@@@@@@ooXX@@@@@@@@@@@@@@@@@@@@@@@@@@@@ooXX@@@@@@@@@@@@@@@@",
"ooooooooooooooXXooooooooooooooooooooooooooooooXXoooooooooooooooo",
"ooooooooooooooXXooooooooooooooooooooooooooooooXXoooooooooooooooo",
"XXXXXXXXXXXXXXXXXXXXXXXXXXXXXXXXXXXXXXXXXXXXXXXXXXXXXXXXXXXXXXXX",
"XXXXXXXXXXXXXXXXXXXXXXXXXXXXXXXXXXXXXXXXXXXXXXXXXXXXXXXXXXXXXXXX",
"++++####++++####++++####++++####++++####++++####++++####++++####",
"++++####++++####++++####++++        ####++++####++++####++++####",
"####++++####++++####++++####        ++++####++++####++++####++++",
"####++++####++++####++++    OO......    ####++++####++++####++++",
"XXXXXXXXXXXXXXXXXXXXXXXX    OO......    XXXXXXXXXXXXXXXXXXXXXXXX",
"XXXXXXXXXXXXXXXXXXXXXX  $$....XXXXOO....  XXXXXXXXXXXXXXXXXXXXXX",
"@@@@@@@@@@@@ooXX@@@@@@  $$....XXXXOO....  @@ooXX@@@@@@@@@@@@@@@@",
"@@@@@@@@@@@@ooXX@@@@  $$..XXXXOOOOOOOOOO..  ooXX@@@@@@@@@@@@@@@@",
"@@@@@@@@@@@@ooXX@@@@  $$..XXXXOOOOOOOOOO..  ooXX@@@@@@@@@@@@@@@@",
"@@@@@@@@@@@@ooXX@@@@  $$..XXOOOO....OOOO..  ooXX@@@@@@@@@@@@@@@@",
"@@@@@@@@@@@@ooXX@@@@  $$..XXOOOO....OOOO..  ooXX@@@@@@@@@@@@@@@@",
"@@@@@@@@@@@@ooXX@@  $$..OOOOOO..XXXX..OOOO..  XX@@@@@@@@@@@@@@@@",
"ooooooooooooooXXoo  $$..OOOOOO..XXXX..OOOO..  XXoooooooooooooooo",
"ooooooooooooooXXoo  $$..OOOO..XXXXXXOOXXOO..  XXoooooooooooooooo",
"XXXXXXXXXXXXXXXXXX  $$..OOOO..XXXXXXOOXXOO..  XXXXXXXXXXXXXXXXXX",
"XXXXXXXXXXXXXXXXXX  $$..OOOO..XXXXOOOOXXOO..  XXXXXXXXXXXXXXXXXX",
"++++####++++####++  $$..OOOO..XXXXOOOOXXOO..  ##++++####++++####",
"++++####++++####++  $$..OOOO..XXOOOOOOXXOO..  ##++++####++++####",
"####++++####++++##  $$..OOOO..XXOOOOOOXXOO..  ++####++++####++++",
"####++++####++++##  OO..OOOO..OOOOOOOOXXOO..  ++####++++####++++",
"XXXXXXXXXXXXXXXXXX  OO..OOOO..OOOOOOOOXXOO..  XXXXXXXXXXXXXXXXXX",
"XXXXXXXXXXXXXXXXXX  OO..OOOOOOXXOOOOXXOOOO..  XXXXXXXXXXXXXXXXXX",
"@@@@@@@@@@@@ooXX@@  OO..OOOOOOXXOOOOXXOOOO..  XX@@@@@@@@@@@@@@@@",
"@@@@@@@@@@@@ooXX@@@@  OO..XXOOOOXXXXOOOO..  ooXX@@@@@@@@@@@@@@@@",
"@@@@@@@@@@@@ooXX@@@@  OO..XXOOOOXXXXOOOO..  ooXX@@@@@@@@@@@@@@@@",
"@@@@@@@@@@@@ooXX@@@@  OO..XXXXOOOOOOOOOO..  ooXX@@@@@@@@@@@@@@@@",
"@@@@@@@@@@@@ooXX@@@@  OO..XXXXOOOOOOOOOO..  ooXX@@@@@@@@@@@@@@@@",
"@@@@@@@@@@@@ooXX@@@@@@  OO....XXXXXX....  @@ooXX@@@@@@@@@@@@@@@@",
"ooooooooooooooXXoooooo  OO....XXXXXX....  ooooXXoooooooooooooooo",
"ooooooooooooooXXoooooooo    OO......    ooooooXXoooooooooooooooo",
"XXXXXXXXXXXXXXXXXXXXXXXX    OO......    XXXXXXXXXXXXXXXXXXXXXXXX",
"XXXXXXXXXXXXXXXXXXXXXXXXXXXX        XXXXXXXXXXXXXXXXXXXXXXXXXXXX",
"++++####++++####++++####++++        ####++++####++++####++++####",
"++++####++++####++++####++++####++++####++++####++++####++++####",
"####++++####++++####++++####++++####++++####++++####++++####++++",
"####++++####++++####++++####++++####++++####++++####++++####++++",
"XXXXXXXXXXXXXXXXXXXXXXXXXXXXXXXXXXXXXXXXXXXXXXXXXXXXXXXXXXXXXXXX",
"XXXXXXXXXXXXXXXXXXXXXXXXXXXXXXXXXXXXXXXXXXXXXXXXXXXXXXXXXXXXXXXX",
"@@@@@@@@@@@@ooXX@@@@@@@@@@@@@@@@@@@@@@@@@@@@ooXX@@@@@@@@@@@@@@@@",
"@@@@@@@@@@@@ooXX@@@@@@@@@@@@@@@@      @@@@@@ooXX@@@@@@@@@@@@@@@@",
"@@@@@@@@@@@@ooXX@@@@@@@@@@@@@@         @@@@@ooXX@@@@@@@@@@@@@@@@",
"@@@@@@@@@@@@ooXX@@@@@@@@@@@@          @@@@@@ooXX@@@@@@@@@@@@@@@@",
"@@@@@@@@@@@@ooXX@@@@@@@@@@          @@@@@@@@ooXX@@@@@@@@@@@@@@@@",
"@@@@@@@@@@@@ooXX@@@@@@@@@         @@@@@@@@@@ooXX@@@@@@@@@@@@@@@@",
"ooooooooooooooXXoooooooooo     oooooooooooooooXXoooooooooooooooo",
"ooooooooooooooXXooooooooooooooooooooooooooooooXXoooooooooooooooo",
"XXXXXXXXXXXXXXXXXXXXXXXXXXXXXXXXXXXXXXXXXXXXXXXXXXXXXXXXXXXXXXXX",
"XXXXXXXXXXXXXXXXXXXXXXXXXXXXXXXXXXXXXXXXXXXXXXXXXXXXXXXXXXXXXXXX",
"++++####++++####++++####++++####++++####++++####++++####++++####",
"++++####++++####++++####++++####++++####++++####++++####++++####"
};
