/* XPM */
static char *result[] = {
/* columns rows colors chars-per-pixel */
"64 64 9 1 ",
"  c black",
". c #8C4121",
"X c #FFD454",
"o c #FFDF8F",
"O c #FFEA61",
"+ c #F57AF5",
"@ c #FFEBBD",
"# c #FCAEFC",
"$ c white",
/* pixels */
"####++++####++++####++++####++++####++++####++++####++++####++++",
"####++++####++++####++++####++++####++++####++++####++++####++++",
"XXXXXXXXXXXXXXXXXXXXXXXXXXXXXXXXXXXXXXXXXXXXXXXXXXXXXXXXXXXXXXXX",
"XXXXXXXXXXXXXXXXXXXXXXXXXXXXXXXXXXXXXXXXXXXXXXXXXXXXXXXXXXXXXXXX",
"@@@@@@@@@@@@ooXX@@@@@@@@@@@@@@@@@@@@@@@@@@@@ooXX@@@@@@@@@@@@@@@@",
"@@@@@@@@@@@@ooXX@@@@@@@@@@@@@@@@@@@@@@@@@@@@ooXX@@@@@@@@@@@@@@@@",
"@@@@@@@@@@@@ooXX@@@@@@@@@@@@@@@@@@@@@@@@@@@@ooXX@@@@@@@@@@@@@@@@",
"@@@@@@@@@@@@ooXX@@@@@@@@@@@@@@@@@@@@@@@@@@@@ooXX@@@@@@@@@@@@@@@@",
"@@@@@@@@@@@@ooXX@@@@@@@@@@@@@@@@@@@@@@@@@@@@ooXX@@@@@@@@@@@@@@@@",
"@@@@@@@@@@@@ooXX@@@@@@@@@@@@@@@@@@@@@@@@@@@@ooXX@@@@@@@@@@@@@@@@",
"ooooooooooooooXXooooooooooooooooooooooooooooooXXoooooooooooooooo",
"ooooooooooooooXXooooooooooooooooooooooooooooooXXoooooooooooooooo",
"XXXXXXXXXXXXXXXXXXXXXXXXXXXXXXXXXXXXXXXXXXXXXXXXXXXXXXXXXXXXXXXX",
"XXXXXXXXXXXXXXXXXXXXXXXXXXXXXXXXXXXXXXXXXXXXXXXXXXXXXXXXXXXXXXXX",
"++++####++++####++++####++++####++++####++++####++++####++++####",
"++++####++++####++++####++++        ####++++####++++####++++####",
"####++++####++++####++++####        ++++####++++####++++####++++",
"####++++####++++####++++    XXXXXXXX    ####++++####++++####++++",
"XXXXXXXXXXXXXXXXXXXXXXXX    XXXXXXXX    XXXXXXXXXXXXXXXXXXXXXXXX",
"XXXXXXXXXXXXXXXXXXXXXX  XXXX$$OOOOOO....  XXXXXXXXXXXXXXXXXXXXXX",
"@@@@@@@@@@@@ooXX@@@@@@  XXXX$$OOOOOO....  @@ooXX@@@@@@@@@@@@@@@@",
"@@@@@@@@@@@@ooXX@@@@  XX$$$$OOOOOOOOOOOO..  ooXX@@@@@@@@@@@@@@@@",
"@@@@@@@@@@@@ooXX@@@@  XX$$$$OOOOOOOOOOOO..  ooXX@@@@@@@@@@@@@@@@",
"@@@@@@@@@@@@ooXX@@  XX$$OOOO........OOOOOO..  XX@@@@@@@@@@@@@@@@",
"@@@@@@@@@@@@ooXX@@  XX$$OOOO........OOOOOO..  XX@@@@@@@@@@@@@@@@",
"@@@@@@@@@@@@ooXX@@  XX$$OO..XXXXXXXX..OOOO..  XX@@@@@@@@@@@@@@@@",
"ooooooooooooooXXoo  XX$$OO..XXXXXXXX..OOOO..  XXoooooooooooooooo",
"ooooooooooooooXX  XX$$OO..XXXXXXXXOOOOXXOOOO..  oooooooooooooooo",
"XXXXXXXXXXXXXXXX  XX$$OO..XXXXXXXXOOOOXXOOOO..  XXXXXXXXXXXXXXXX",
"XXXXXXXXXXXXXXXX  XXOOOO..XXXXXXOOOOOOXXOOOO..  XXXXXXXXXXXXXXXX",
"++++####++++####  XXOOOO..XXXXXXOOOOOOXXOOOO..  ++++####++++####",
"++++####++++####  XXOOOO..XXXXOOOOOO$$XXOOOO..  ++++####++++####",
"####++++####++++  XXOOOO..XXXXOOOOOO$$XXOOOO..  ####++++####++++",
"####++++####++++  XXOOOO..XXOOOOOO$$$$XXOOOO..  ####++++####++++",
"XXXXXXXXXXXXXXXX  XXOOOO..XXOOOOOO$$$$XXOOOO..  XXXXXXXXXXXXXXXX",
"XXXXXXXXXXXXXXXXXX  XXOOOO..OOOO$$$$XXOOOO..  XXXXXXXXXXXXXXXXXX",
"@@@@@@@@@@@@ooXX@@  XXOOOO..OOOO$$$$XXOOOO..  XX@@@@@@@@@@@@@@@@",
"@@@@@@@@@@@@ooXX@@  XXOOOOOOXXXXXXXXOOOOOO..  XX@@@@@@@@@@@@@@@@",
"@@@@@@@@@@@@ooXX@@  XXOOOOOOXXXXXXXXOOOOOO..  XX@@@@@@@@@@@@@@@@",
"@@@@@@@@@@@@ooXX@@@@  XXOOOOOOOOOOOOOOOO..  ooXX@@@@@@@@@@@@@@@@",
"@@@@@@@@@@@@ooXX@@@@  XXOOOOOOOOOOOOOOOO..  ooXX@@@@@@@@@@@@@@@@",
"@@@@@@@@@@@@ooXX@@@@@@  XXXXOOOOOOOO....  @@ooXX@@@@@@@@@@@@@@@@",
"ooooooooooooooXXoooooo  XXXXOOOOOOOO....  ooooXXoooooooooooooooo",
"ooooooooooooooXXoooooooo    XXXXXXXX    ooooooXXoooooooooooooooo",
"XXXXXXXXXXXXXXXXXXXXXXXX    XXXXXXXX    XXXXXXXXXXXXXXXXXXXXXXXX",
"XXXXXXXXXXXXXXXXXXXXXXXXXXXX        XXXXXXXXXXXXXXXXXXXXXXXXXXXX",
"++++####++++####++++####++++        ####++++####++++####++++####",
"++++####++++####++++####++++####++++####++++####++++####++++####",
"####++++####++++####++++####++++####++++####++++####++++####++++",
"####++++####++++####++++####++++####++++####++++####++++####++++",
"XXXXXXXXXXXXXXXXXXXXXXXXXXXXXXXXXXXXXXXXXXXXXXXXXXXXXXXXXXXXXXXX",
"XXXXXXXXXXXXXXXXXXXXXXXXXXXXXXXXXXXXXXXXXXXXXXXXXXXXXXXXXXXXXXXX",
"@@@@@@@@@@@@ooXX@@@@@@@@@@@@@@@@@@@@@@@@@@@@ooXX@@@@@@@@@@@@@@@@",
"@@@@@@@@@@@@ooXX@@@@@@@@@@@@@@@@@@@@@@@@@@@@ooXX@@@@@@@@@@@@@@@@",
"@@@@@@@@@@@@ooXX@@@@@@                    @@ooXX@@@@@@@@@@@@@@@@",
"@@@@@@@@@@@@ooXX@@@@@                      @ooXX@@@@@@@@@@@@@@@@",
"@@@@@@@@@@@@ooXX@@@@@                      @ooXX@@@@@@@@@@@@@@@@",
"@@@@@@@@@@@@ooXX@@@@@@                    @@ooXX@@@@@@@@@@@@@@@@",
"ooooooooooooooXXooooooooooooooooooooooooooooooXXoooooooooooooooo",
"ooooooooooooooXXooooooooooooooooooooooooooooooXXoooooooooooooooo",
"XXXXXXXXXXXXXXXXXXXXXXXXXXXXXXXXXXXXXXXXXXXXXXXXXXXXXXXXXXXXXXXX",
"XXXXXXXXXXXXXXXXXXXXXXXXXXXXXXXXXXXXXXXXXXXXXXXXXXXXXXXXXXXXXXXX",
"++++####++++####++++####++++####++++####++++####++++####++++####",
"++++####++++####++++####++++####++++####++++####++++####++++####"
};
