/* XPM */
static char *result[] = {
/* columns rows colors chars-per-pixel */
"64 64 9 1 ",
"  c black",
". c #8C4121",
"X c #FFD454",
"o c #FFDF8F",
"O c #FFEA61",
"+ c #F57AF5",
"@ c #FFEBBD",
"# c #FCAEFC",
"$ c white",
/* pixels */
"####++++####++++####++++####++++####++++####++++####++++####++++",
"####++++####++++####++++####++++####++++####++++####++++####++++",
"XXXXXXXXXXXXXXXXXXXXXXXXXXXXXXXXXXXXXXXXXXXXXXXXXXXXXXXXXXXXXXXX",
"XXXXXXXXXXXXXXXXXXXXXXXXXXXXXXXXXXXXXXXXXXXXXXXXXXXXXXXXXXXXXXXX",
"@@@@@@@@@@@@ooXX@@@@@@@@@@@@@@@@@@@@@@@@@@@@ooXX@@@@@@@@@@@@@@@@",
"@@@@@@@@@@@@ooXX@@@@@@@@@@@@@@@@@@@@@@@@@@@@ooXX@@@@@@@@@@@@@@@@",
"@@@@@@@@@@@@ooXX@@@@@@@@@@@@@@@@@@@@@@@@@@@@ooXX@@@@@@@@@@@@@@@@",
"@@@@@@@@@@@@ooXX@@@@@@@@@@@@@@@@@@@@@@@@@@@@ooXX@@@@@@@@@@@@@@@@",
"@@@@@@@@@@@@ooXX@@@@@@@@@@@@@@@@@@@@@@@@@@@@ooXX@@@@@@@@@@@@@@@@",
"@@@@@@@@@@@@ooXX@@@@@@@@@@@@@@@@@@@@@@@@@@@@ooXX@@@@@@@@@@@@@@@@",
"ooooooooooooooXXooooooooooooooooooooooooooooooXXoooooooooooooooo",
"ooooooooooooooXXooooooooooooooooooooooooooooooXXoooooooooooooooo",
"XXXXXXXXXXXXXXXXXXXXXXXXXXXXXXXXXXXXXXXXXXXXXXXXXXXXXXXXXXXXXXXX",
"XXXXXXXXXXXXXXXXXXXXXXXXXXXXXXXXXXXXXXXXXXXXXXXXXXXXXXXXXXXXXXXX",
"++++####++++####++++####++++####++++####++++####++++####++++####",
"++++####++++####++++####++++#      +####++++####++++####++++####",
"####++++####++++####++++####+      #++++####++++####++++####++++",
"####++++####++++####++++###  XX....  +++####++++####++++####++++",
"XXXXXXXXXXXXXXXXXXXXXXXXXXX  XX....  XXXXXXXXXXXXXXXXXXXXXXXXXXX",
"XXXXXXXXXXXXXXXXXXXXXXXXX  $$OOOOXXXX  XXXXXXXXXXXXXXXXXXXXXXXXX",
"@@@@@@@@@@@@ooXX@@@@@@@@@  $$OOOOXXXX  @@@@@ooXX@@@@@@@@@@@@@@@@",
"@@@@@@@@@@@@ooXX@@@@@@@@@  $$XXOO....  @@@@@ooXX@@@@@@@@@@@@@@@@",
"@@@@@@@@@@@@ooXX@@@@@@@@@  $$XXOO....  @@@@@ooXX@@@@@@@@@@@@@@@@",
"@@@@@@@@@@@@ooXX@@@@@@@  $$OO..OOOOXXXX  @@@ooXX@@@@@@@@@@@@@@@@",
"@@@@@@@@@@@@ooXX@@@@@@@  $$OO..OOOOXXXX  @@@ooXX@@@@@@@@@@@@@@@@",
"@@@@@@@@@@@@ooXX@@@@@@@  $$..OO..OOXXXX  @@@ooXX@@@@@@@@@@@@@@@@",
"ooooooooooooooXXooooooo  $$..OO..OOXXXX  oooooXXoooooooooooooooo",
"ooooooooooooooXXooooooo  OO..OOXXOOXXXX  oooooXXoooooooooooooooo",
"XXXXXXXXXXXXXXXXXXXXXXX  OO..OOXXOOXXXX  XXXXXXXXXXXXXXXXXXXXXXX",
"XXXXXXXXXXXXXXXXXXXXXXX  OO..OOXXOOXXXX  XXXXXXXXXXXXXXXXXXXXXXX",
"++++####++++####++++###  OO..OOXXOOXXXX  +++####++++####++++####",
"++++####++++####++++###  OO..OOXXOOXXXX  +++####++++####++++####",
"####++++####++++####+++  OO..OOXXOOXXXX  ###++++####++++####++++",
"####++++####++++####+++  OO..OOXX$$XXXX  ###++++####++++####++++",
"XXXXXXXXXXXXXXXXXXXXXXX  OO..OOXX$$XXXX  XXXXXXXXXXXXXXXXXXXXXXX",
"XXXXXXXXXXXXXXXXXXXXXXX  OO..OO$$$$XXXX  XXXXXXXXXXXXXXXXXXXXXXX",
"@@@@@@@@@@@@ooXX@@@@@@@  OO..OO$$$$XXXX  @@@ooXX@@@@@@@@@@@@@@@@",
"@@@@@@@@@@@@ooXX@@@@@@@  OOXX$$$$OOXXXX  @@@ooXX@@@@@@@@@@@@@@@@",
"@@@@@@@@@@@@ooXX@@@@@@@  OOXX$$$$OOXXXX  @@@ooXX@@@@@@@@@@@@@@@@",
"@@@@@@@@@@@@ooXX@@@@@@@@@  $$$$OO....  @@@@@ooXX@@@@@@@@@@@@@@@@",
"@@@@@@@@@@@@ooXX@@@@@@@@@  $$$$OO....  @@@@@ooXX@@@@@@@@@@@@@@@@",
"@@@@@@@@@@@@ooXX@@@@@@@@@  $$OOOOXXXX  @@@@@ooXX@@@@@@@@@@@@@@@@",
"ooooooooooooooXXooooooooo  $$OOOOXXXX  oooooooXXoooooooooooooooo",
"ooooooooooooooXXooooooooooo  XX....  oooooooooXXoooooooooooooooo",
"XXXXXXXXXXXXXXXXXXXXXXXXXXX  XX....  XXXXXXXXXXXXXXXXXXXXXXXXXXX",
"XXXXXXXXXXXXXXXXXXXXXXXXXXXXX      XXXXXXXXXXXXXXXXXXXXXXXXXXXXX",
"++++####++++####++++####++++#      +####++++####++++####++++####",
"++++####++++####++++####++++####++++####++++####++++####++++####",
"####++++####++++####++++####++++####++++####++++####++++####++++",
"####++++####++++####++++####++++####++++####++++####++++####++++",
"XXXXXXXXXXXXXXXXXXXXXXXXXXXXXXXXXXXXXXXXXXXXXXXXXXXXXXXXXXXXXXXX",
"XXXXXXXXXXXXXXXXXXXXXXXXXXX XXXXXXXXXXXXXXXXXXXXXXXXXXXXXXXXXXXX",
"@@@@@@@@@@@@ooXX@@@@@@@@@@@@  @@@@@@@@@@@@@@ooXX@@@@@@@@@@@@@@@@",
"@@@@@@@@@@@@ooXX@@@@@@@@@@@@     @@@@@@@@@@@ooXX@@@@@@@@@@@@@@@@",
"@@@@@@@@@@@@ooXX@@@@@@@@@@@@@     @@@@@@@@@@ooXX@@@@@@@@@@@@@@@@",
"@@@@@@@@@@@@ooXX@@@@@@@@@@@@@     @@@@@@@@@@ooXX@@@@@@@@@@@@@@@@",
"@@@@@@@@@@@@ooXX@@@@@@@@@@@@@@     @@@@@@@@@ooXX@@@@@@@@@@@@@@@@",
"@@@@@@@@@@@@ooXX@@@@@@@@@@@@@@     @@@@@@@@@ooXX@@@@@@@@@@@@@@@@",
"ooooooooooooooXXooooooooooooooo     ooooooooooXXoooooooooooooooo",
"ooooooooooooooXXoooooooooooooooooo  ooooooooooXXoooooooooooooooo",
"XXXXXXXXXXXXXXXXXXXXXXXXXXXXXXXXXXXX XXXXXXXXXXXXXXXXXXXXXXXXXXX",
"XXXXXXXXXXXXXXXXXXXXXXXXXXXXXXXXXXXXXXXXXXXXXXXXXXXXXXXXXXXXXXXX",
"++++####++++####++++####++++####++++####++++####++++####++++####",
"++++####++++####++++####++++####++++####++++####++++####++++####"
};
