/* XPM */
static char *result[] = {
/* columns rows colors chars-per-pixel */
"64 64 7 1 ",
"o c #00B7EF",
"@ c white",
"g c #FFD454",
"h c #FFDF8F",
"i c #F57AF5",
"j c #FFEBBD",
"k c #FCAEFC",
/* pixels */
"kkkkiiiikkkkiiiikkkkiiiikkkkiiiikkooooiikkooiiiikkkkiiiikkkkiiii",
"kkkkiiiikkkkiiiikkkkiiiikkkkiiiikkooooiikkooiiiikkkkiiiikkkkiiii",
"ggggggggggggggggggggggggggggggggooggggoooogggggggggggggggggggggg",
"ggggggggggggggggggggggggggggggggooggggoooogggggggggggggggggggggg",
"jjjjjjjjjjjjhhggjjjjjjjjjjjjoo@@@@@@jjjjjjjjhhoooooojjjjjjjjjjjj",
"jjjjjjjjjjjjhhggjjjjjjjjjjjjoo@@@@@@jjjjjjjjhhoooooojjjjjjjjjjjj",
"jjjjjjjjjjjjhhggjjjjjjjjjj@@@@oooooooojjjjjjhhggoooooojjjjjjjjjj",
"jjjjjjjjjjjjhhggjjjjjjjjjj@@@@oooooooojjjjjjhhggoooooojjjjjjjjjj",
"jjjjjjjjjjoohhoojjjjjjoooooooooooooooooooojjhhggjjjjoooojjjjjjjj",
"jjjjjjjjjjoohhoojjjjjjoooooooooooooooooooojjhhggjjjjoooojjjjjjjj",
"hhhhhhoooooohhoohhooooooooooo@@@@@@@@@@@oooooooooohhhhhhhhhhhhhh",
"hhhhhhoooooohhoohhooooooooooo@@@@@@@@@@@oooooooooohhhhhhhhhhhhhh",
"ggggggooooggggooggooooo@@@@@@ooooooooooo@@@@ooggggoogggggggggggg",
"ggggggooooggggooggooooo@@@@@@ooooooooooo@@@@ooggggoogggggggggggg",
"iiiiooooiiiiookkooo@@@@ooooooooooooooooooooo@@@@iiiiooooiiiikkkk",
"iiiiooooiiiiookkooo@@@@ooooooooooooooooooooo@@@@iiiiooooiiiikkkk",
"kkkkiiiikkooiiiio@@oooooooo@@@@@@@@@@@@@@@ooooookkkkiiiikkkkiiii",
"kkkkiiiikkooiiiio@@oooooooo@@@@@@@@@@@@@@@ooooookkkkiiiikkkkiiii",
"ggggggggggooggooo@@oooo@@@@ooooooooooooooo@@oooooogggggggggggggg",
"ggggggggggooggooo@@oooo@@@@ooooooooooooooo@@oooooogggggggggggggg",
"oojjjjjjjjooooo@@oooo@@ooooooooooooooooooooo@@oooooo@@jjjjjjjjjj",
"oojjjjjjjjooooo@@oooo@@ooooooooooooooooooooo@@oooooo@@jjjjjjjjjj",
"jjoojjjjjjooo@@oooo@@ooooooo@@@@@@@@@@@@@@oooo@@oooo@@jjjjjjjjjj",
"jjoojjjjjjooo@@oooo@@ooooooo@@@@@@@@@@@@@@oooo@@oooo@@jjjjjjjjjj",
"jjoojjjjooooo@@oooo@@ooooo@@oooooooooooooo@@oooo@@oooo@@jjjjjjjj",
"jjoojjjjooooo@@oooo@@ooooo@@oooooooooooooo@@oooo@@oooo@@jjjjjjjj",
"oojjjjooooo@@oooo@@ooooo@@oooo@@@@@@@@oooo@@oooo@@oooo@@oohhhhhh",
"oojjjjooooo@@oooo@@ooooo@@oooo@@@@@@@@oooo@@oooo@@oooo@@oohhhhhh",
"oogg@@ooooo@@oooo@@ooooo@@oo@@oooooooo@@oo@@oooo@@oooo@@oooogggg",
"oogg@@ooooo@@oooo@@ooooo@@oo@@oooooooo@@oo@@oooo@@oooo@@oooogggg",
"iioo@@ooooo@@oooo@@ooooo@@oo@@oo@@oooo@@oo@@oooo@@oooo@@ooookkkk",
"iioo@@ooooo@@oooo@@ooooo@@oo@@oo@@oooo@@oo@@oooo@@oooo@@ooookkkk",
"kkkk@@ooooo@@oooo@@ooooo@@oo@@oooo@@oo@@oo@@oooo@@oooo@@oooo@@ii",
"kkkk@@ooooo@@oooo@@ooooo@@oo@@oooo@@oo@@oo@@oooo@@oooo@@oooo@@ii",
"ggggoo@@ooo@@oooo@@ooooo@@oooo@@@@oooo@@oo@@oooo@@oooo@@ooooggoo",
"ggggoo@@ooo@@oooo@@ooooo@@oooo@@@@oooo@@oo@@oooo@@oooo@@ooooggoo",
"jjjjjj@@ooooo@@oooo@@ooooo@@oooooooo@@oooo@@oooo@@oooo@@oojjjjoo",
"jjjjjj@@ooooo@@oooo@@ooooo@@oooooooo@@oooo@@oooo@@oooo@@oojjjjoo",
"jjjjjjjjooooo@@oooo@@ooooooo@@@@@@@@@@oooo@@oooo@@oooo@@jjjjoojj",
"jjjjjjjjooooo@@oooo@@ooooooo@@@@@@@@@@oooo@@oooo@@oooo@@jjjjoojj",
"jjjjjjjjjjooooo@@oooo@@ooooooooooooooooo@@oooooo@@oooojjjjjjoojj",
"jjjjjjjjjjooooo@@oooo@@ooooooooooooooooo@@oooooo@@oooojjjjjjoojj",
"hhhhhhhhhhooooooo@@oooo@@@@@@@@@@@@@@@@@oooo@@@@oooooohhhhhhhhoo",
"hhhhhhhhhhooooooo@@oooo@@@@@@@@@@@@@@@@@oooo@@@@oooooohhhhhhhhoo",
"ggggggggggggggooo@@@@ooooooooooooooooooooo@@@@ooooggoogggggggggg",
"ggggggggggggggooo@@@@ooooooooooooooooooooo@@@@ooooggoogggggggggg",
"iiiikkkkiiiikkooooooo@@ooooooooooooooooo@@ooooooooiiookkiiiikkkk",
"iiiikkkkiiiikkooooooo@@ooooooooooooooooo@@ooooooooiiookkiiiikkkk",
"kkkkiiiiooooiiiikkooooo@@@@@@@@@@@@@@@@@ooooooiikkkkooiikkkkiiii",
"kkkkiiiiooooiiiikkooooo@@@@@@@@@@@@@@@@@ooooooiikkkkooiikkkkiiii",
"ggggggggggggoogggggg@@ooooooooooooooooooooooggggggooggggoooogggg",
"ggggggggggggoogggggg@@ooooooooooooooooooooooggggggooggggoooogggg",
"jjjjjjoooojjhhoooooooo@@@@oooooooooooooo@@jjhhggoojjjjoooojjjjjj",
"jjjjjjoooojjhhoooooooo@@@@oooooooooooooo@@jjhhggoojjjjoooojjjjjj",
"jjjjjjjjoooohhggjjjjjjjjoo@@@@@@@@@@@@@@oojjhhggoojjoooooojjjjjj",
"jjjjjjjjoooohhggjjjjjjjjoo@@@@@@@@@@@@@@oojjhhggoojjoooooojjjjjj",
"jjjjjjjjoooohhggjjjjjjjjjjoooooooooooojjjjjjhhggjjjjoojjjjjjjjjj",
"jjjjjjjjoooohhggjjjjjjjjjjoooooooooooojjjjjjhhggjjjjoojjjjjjjjjj",
"hhhhhhhhhhoooogghhhhhhhhhhhhoooooooohhhhhhhhhhgghhhhhhhhhhhhhhhh",
"hhhhhhhhhhoooogghhhhhhhhhhhhoooooooohhhhhhhhhhgghhhhhhhhhhhhhhhh",
"ggggggggggggggggggggggoooogggg@@gggggggggggggggggggggggggggggggg",
"ggggggggggggggggggggggoooogggg@@gggggggggggggggggggggggggggggggg",
"iiiikkkkiiiikkkkiiiiookkiiooookkiiiikkkkiiiikkkkiiiikkkkiiiikkkk",
"iiiikkkkiiiikkkkiiiiookkiiooookkiiiikkkkiiiikkkkiiiikkkkiiiikkkk"
};
