/* XPM */
static char *result[] = {
/* columns rows colors chars-per-pixel */
"64 64 11 1 ",
"  c black",
". c #ED1C24",
"X c #FFF200",
"o c #002FEB",
"O c #99D9EA",
"+ c white",
"g c #FFD454",
"h c #FFDF8F",
"i c #F57AF5",
"j c #FFEBBD",
"k c #FCAEFC",
/* pixels */
"kkkkiiiikkkkiiiikkkkiiiikkkkii    kkiiiikkkkiiiikkkkiiiikkkkiiii",
"kkkkiiiikkkkiiiikkkkiiiikkkkii    kkiiiikkkkiiiikkkkiiiikkkkiiii",
"gggggggggggg  gggggggggggggg  XXXX  gggggggggggggg  gggggggggggg",
"gggggggggggg  gggggggggggggg  XXXX  gggggggggggggg  gggggggggggg",
"jjjjjjjjjj  XX  jjjjjjjjjjjj  XXXX  jjjjjjjjhhgg  XX  jjjjjjjjjj",
"jjjjjjjjjj  XX  jjjjjjjjjjjj  XXXX  jjjjjjjjhhgg  XX  jjjjjjjjjj",
"jjjjjjjjjj  XX  jjjjjjjjjj  XXXXXXXX  jjjjjjhhgg  XX  jjjjjjjjjj",
"jjjjjjjjjj  XX  jjjjjjjjjj  XXXXXXXX  jjjjjjhhgg  XX  jjjjjjjjjj",
"jjjjjjjjjj  XXXX  jjjjjjjj  XX....XX  jjjjhhgg  XXXX  jjjjjjjjjj",
"jjjjjjjjjj  XXXX  jjjjjjjj  XX....XX  jjjjhhgg  XXXX  jjjjjjjjjj",
"hhhhhhhhhh  ..XXXX  hhhh  XX........XX  hhhh  XXXX..  hhhhhhhhhh",
"hhhhhhhhhh  ..XXXX  hhhh  XX........XX  hhhh  XXXX..  hhhhhhhhhh",
"gggggggggg  ....XXXX    XXXX........XXXX    XXXX....  gggggggggg",
"gggggggggg  ....XXXX    XXXX........XXXX    XXXX....  gggggggggg",
"iiiikkkkii  ..XXXXXXXXXXXXXXXX....XXXXXXXXXXXXXXXX..  kkiiiikkkk",
"iiiikkkkii  ..XXXXXXXXXXXXXXXX....XXXXXXXXXXXXXXXX..  kkiiiikkkk",
"kkkkiiiikk  XXXXXXXXXXXXXXXXXXXXXXXXXXXXXXXXXXXXXXXX  iikkkkiiii",
"kkkkiiiikk  XXXXXXXXXXXXXXXXXXXXXXXXXXXXXXXXXXXXXXXX  iikkkkiiii",
"gggggggggg  ++++OOOO++++++OOOOOOOOOOOO++++++OOOO++++  gggggggggg",
"gggggggggg  ++++OOOO++++++OOOOOOOOOOOO++++++OOOO++++  gggggggggg",
"jjjjjjjjjj  ++++OOOO      OOOOOOOOOOOO      OOOO++++  jjjjjjjjjj",
"jjjjjjjjjj  ++++OOOO      OOOOOOOOOOOO      OOOO++++  jjjjjjjjjj",
"jjjjjjjjjj  ++++OOOO      OOOOOOOOOOOO      OOOO++++  jjjjjjjjjj",
"jjjjjjjjjj  ++++OOOO      OOOOOOOOOOOO      OOOO++++  jjjjjjjjjj",
"jjjjjjjjjj  ++++OOOO      OOOOOOOOOOOO      OOOO++++  jjjjjjjjjj",
"jjjjjjjjjj  ++++OOOO      OOOOOOOOOOOO      OOOO++++  jjjjjjjjjj",
"hhhhhhhh    ++++OOOOOOOOOOOOOOOOOOOOOOOOOOOOOOOO++++    hhhhhhhh",
"hhhhhhhh    ++++OOOOOOOOOOOOOOOOOOOOOOOOOOOOOOOO++++    hhhhhhhh",
"gggggg  ++++++++++++++++++++++OOOO++++++++++++++++++++++  gggggg",
"gggggg  ++++++++++++++++++++++OOOO++++++++++++++++++++++  gggggg",
"iiiikk  ++++++++++++++++++++++OOOO++++++++++++++++++++++  iikkkk",
"iiiikk  ++++++++++++++++++++++OOOO++++++++++++++++++++++  iikkkk",
"kkkkii  ++++++++++++++++++++++OOOO++++++++++++++++++++++  kkiiii",
"kkkkii  ++++++++++++++++++++++OOOO++++++++++++++++++++++  kkiiii",
"gggggg  oooo++++++++++++++++++OOOO++++++++++++++++++oooo  gggggg",
"gggggg  oooo++++++++++++++++++OOOO++++++++++++++++++oooo  gggggg",
"jjjjjj  oooo++++++++++++      OOOO      ++++++++++++oooo  jjjjjj",
"jjjjjj  oooo++++++++++++      OOOO      ++++++++++++oooo  jjjjjj",
"jjjjjj  oooooo++++++++++      OOOO      ++++++++++oooooo  jjjjjj",
"jjjjjj  oooooo++++++++++      OOOO      ++++++++++oooooo  jjjjjj",
"jjjjjj  oooooo++++++    ++++++OOOO++++++    ++++++oooooo  jjjjjj",
"jjjjjj  oooooo++++++    ++++++OOOO++++++    ++++++oooooo  jjjjjj",
"hhhhhh  oooo  oo++++    ++++++++++++++++    ++++oo  oooo  hhhhhh",
"hhhhhh  oooo  oo++++    ++++++++++++++++    ++++oo  oooo  hhhhhh",
"gggggg  oooo  oo++++++++++++++++++++++++++++++++oo  oooo  gggggg",
"gggggg  oooo  oo++++++++++++++++++++++++++++++++oo  oooo  gggggg",
"iiiikk  OOOO  oooo++++++++++++++++++++++++++++oooo  OOOO  iikkkk",
"iiiikk  OOOO  oooo++++++++++++++++++++++++++++oooo  OOOO  iikkkk",
"kkkkii  OOOO  oooooooo++++++++++++++++++++oooooooo  OOOO  kkiiii",
"kkkkii  OOOO  oooooooo++++++++++++++++++++oooooooo  OOOO  kkiiii",
"gggggggg    oooooooooooo++++++++++++++++oooooooooooo    gggggggg",
"gggggggg    oooooooooooo++++++++++++++++oooooooooooo    gggggggg",
"jjjjjjjjjj  oooooooooooooooo++++++++oooooooooooooooo  jjjjjjjjjj",
"jjjjjjjjjj  oooooooooooooooo++++++++oooooooooooooooo  jjjjjjjjjj",
"jjjjjjjjjj  oooooooooooooooooo++++oooooooooooooooooo  jjjjjjjjjj",
"jjjjjjjjjj  oooooooooooooooooo++++oooooooooooooooooo  jjjjjjjjjj",
"jjjjjjjjjj  oooooooooooooooooooooooooooooooooooooooo  jjjjjjjjjj",
"jjjjjjjjjj  oooooooooooooooooooooooooooooooooooooooo  jjjjjjjjjj",
"hhhhhhhhhh  oooooooooooooooooooooooooooooooooooooooo  hhhhhhhhhh",
"hhhhhhhhhh  oooooooooooooooooooooooooooooooooooooooo  hhhhhhhhhh",
"gggggggggg  oooooooooooooooooooooooooooooooooooooooo  gggggggggg",
"gggggggggg  oooooooooooooooooooooooooooooooooooooooo  gggggggggg",
"iiiikkkkii                                            kkiiiikkkk",
"iiiikkkkii                                            kkiiiikkkk"
};
