/* XPM */
static char *result[] = {
/* columns rows colors chars-per-pixel */
"64 64 10 1 ",
"  c black",
". c #8C4121",
"X c #FFC30E",
"o c #FFEA61",
"O c white",
"g c #FFD454",
"h c #FFDF8F",
"i c #F57AF5",
"j c #FFEBBD",
"k c #FCAEFC",
/* pixels */
"kkkkiiiikkkkiiiikkkkiiii                kkkkiiiikkkkiiiikkkkiiii",
"kkkkiiiikkkkiiiikkkkiiii                kkkkiiiikkkkiiiikkkkiiii",
"gggggggggggggggggggggggg                gggggggggggggggggggggggg",
"gggggggggggggggggggggggg                gggggggggggggggggggggggg",
"jjjjjjjjjjjjhhgg        OOOO............        jjjjjjjjjjjjjjjj",
"jjjjjjjjjjjjhhgg        OOOO............        jjjjjjjjjjjjjjjj",
"jjjjjjjjjjjjhhgg        OOOO............        jjjjjjjjjjjjjjjj",
"jjjjjjjjjjjjhhgg        OOOO............        jjjjjjjjjjjjjjjj",
"jjjjjjjjjjjj    OOOO........XXXXXXXXoooo........    jjjjjjjjjjjj",
"jjjjjjjjjjjj    OOOO........XXXXXXXXoooo........    jjjjjjjjjjjj",
"hhhhhhhhhhhh    OOOO........XXXXXXXXoooo........    hhhhhhhhhhhh",
"hhhhhhhhhhhh    OOOO........XXXXXXXXoooo........    hhhhhhhhhhhh",
"gggggggg    OOOO....XXXXXXXXoooooooooooooooooooo....    gggggggg",
"gggggggg    OOOO....XXXXXXXXoooooooooooooooooooo....    gggggggg",
"iiiikkkk    OOOO....XXXXXXXXoooooooooooooooooooo....    kkkkiiii",
"iiiikkkk    OOOO....XXXXXXXXoooooooooooooooooooo....    kkkkiiii",
"kkkkiiii    OOOO....XXXXoooooooo........oooooooo....    iiiikkkk",
"kkkkiiii    OOOO....XXXXoooooooo........oooooooo....    iiiikkkk",
"gggggggg    OOOO....XXXXoooooooo........oooooooo....    gggggggg",
"gggggggg    OOOO....XXXXoooooooo........oooooooo....    gggggggg",
"jjjj    OOOO....XXXXoooooooo....XXXXXXXX....oooooooo....    jjjj",
"jjjj    OOOO....XXXXoooooooo....XXXXXXXX....oooooooo....    jjjj",
"jjjj    OOOO....XXXXoooooooo....XXXXXXXX....oooooooo....    jjjj",
"jjjj    OOOO....XXXXoooooooo....XXXXXXXX....oooooooo....    jjjj",
"jjjj    OOOO....XXXXoooo....XXXXXXXXXXXXooooXXXXoooo....    jjjj",
"jjjj    OOOO....XXXXoooo....XXXXXXXXXXXXooooXXXXoooo....    jjjj",
"hhhh    OOOO....XXXXoooo....XXXXXXXXXXXXooooXXXXoooo....    hhhh",
"hhhh    OOOO....XXXXoooo....XXXXXXXXXXXXooooXXXXoooo....    hhhh",
"gggg    OOOO....XXXXoooo....XXXXXXXXooooooooXXXXoooo....    gggg",
"gggg    OOOO....XXXXoooo....XXXXXXXXooooooooXXXXoooo....    gggg",
"iiii    OOOO....XXXXoooo....XXXXXXXXooooooooXXXXoooo....    kkkk",
"iiii    OOOO....XXXXoooo....XXXXXXXXooooooooXXXXoooo....    kkkk",
"kkkk    OOOO....XXXXoooo....XXXXooooooooooooXXXXoooo....    iiii",
"kkkk    OOOO....XXXXoooo....XXXXooooooooooooXXXXoooo....    iiii",
"gggg    OOOO....XXXXoooo....XXXXooooooooooooXXXXoooo....    gggg",
"gggg    OOOO....XXXXoooo....XXXXooooooooooooXXXXoooo....    gggg",
"jjjj    oooo....XXXXoooo....ooooooooooooooooXXXXoooo....    jjjj",
"jjjj    oooo....XXXXoooo....ooooooooooooooooXXXXoooo....    jjjj",
"jjjj    oooo....XXXXoooo....ooooooooooooooooXXXXoooo....    jjjj",
"jjjj    oooo....XXXXoooo....ooooooooooooooooXXXXoooo....    jjjj",
"jjjj    oooo....XXXXooooooooXXXXooooooooXXXXoooooooo....    jjjj",
"jjjj    oooo....XXXXooooooooXXXXooooooooXXXXoooooooo....    jjjj",
"hhhh    oooo....XXXXooooooooXXXXooooooooXXXXoooooooo....    hhhh",
"hhhh    oooo....XXXXooooooooXXXXooooooooXXXXoooooooo....    hhhh",
"gggggggg    oooo....XXXXooooooooXXXXXXXXoooooooo....    gggggggg",
"gggggggg    oooo....XXXXooooooooXXXXXXXXoooooooo....    gggggggg",
"iiiikkkk    oooo....XXXXooooooooXXXXXXXXoooooooo....    iiiikkkk",
"iiiikkkk    oooo....XXXXooooooooXXXXXXXXoooooooo....    iiiikkkk",
"kkkkiiii    oooo....XXXXXXXXoooooooooooooooooooo....    kkkkiiii",
"kkkkiiii    oooo....XXXXXXXXoooooooooooooooooooo....    kkkkiiii",
"gggggggg    oooo....XXXXXXXXoooooooooooooooooooo....    gggggggg",
"gggggggg    oooo....XXXXXXXXoooooooooooooooooooo....    gggggggg",
"jjjjjjjjjjjj    oooo........XXXXXXXXXXXX........    jjjjjjjjjjjj",
"jjjjjjjjjjjj    oooo........XXXXXXXXXXXX........    jjjjjjjjjjjj",
"jjjjjjjjjjjj    oooo........XXXXXXXXXXXX........    jjjjjjjjjjjj",
"jjjjjjjjjjjj    oooo........XXXXXXXXXXXX........    jjjjjjjjjjjj",
"jjjjjjjjjjjjhhgg        oooo............        jjjjjjjjjjjjjjjj",
"jjjjjjjjjjjjhhgg        oooo............        jjjjjjjjjjjjjjjj",
"hhhhhhhhhhhhhhgg        oooo............        hhhhhhhhhhhhhhhh",
"hhhhhhhhhhhhhhgg        oooo............        hhhhhhhhhhhhhhhh",
"gggggggggggggggggggggggg                gggggggggggggggggggggggg",
"gggggggggggggggggggggggg                gggggggggggggggggggggggg",
"iiiikkkkiiiikkkkiiiikkkk                iiiikkkkiiiikkkkiiiikkkk",
"iiiikkkkiiiikkkkiiiikkkk                iiiikkkkiiiikkkkiiiikkkk"
};
