/* XPM */
static char *result[] = {
/* columns rows colors chars-per-pixel */
"64 64 5 1 ",
"g c #FFD454",
"h c #FFDF8F",
"i c #F57AF5",
"j c #FFEBBD",
"k c #FCAEFC",
/* pixels */
"kkkkiiiikkkkiiiikkkkiiiikkkkiiiikkkkiiiikkkkiiiikkkkiiiikkkkiiii",
"kkkkiiiikkkkiiiikkkkiiiikkkkiiiikkkkiiiikkkkiiiikkkkiiiikkkkiiii",
"gggggggggggggggggggggggggggggggggggggggggggggggggggggggggggggggg",
"gggggggggggggggggggggggggggggggggggggggggggggggggggggggggggggggg",
"jjjjjjjjjjjjhhggjjjjjjjjjjjjjjjjjjjjjjjjjjjjhhggjjjjjjjjjjjjjjjj",
"jjjjjjjjjjjjhhggjjjjjjjjjjjjjjjjjjjjjjjjjjjjhhggjjjjjjjjjjjjjjjj",
"jjjjjjjjjjjjhhggjjjjjjjjjjjjjjjjjjjjjjjjjjjjhhggjjjjjjjjjjjjjjjj",
"jjjjjjjjjjjjhhggjjjjjjjjjjjjjjjjjjjjjjjjjjjjhhggjjjjjjjjjjjjjjjj",
"jjjjjjjjjjjjhhggjjjjjjjjjjjjjjjjjjjjjjjjjjjjhhggjjjjjjjjjjjjjjjj",
"jjjjjjjjjjjjhhggjjjjjjjjjjjjjjjjjjjjjjjjjjjjhhggjjjjjjjjjjjjjjjj",
"hhhhhhhhhhhhhhgghhhhhhhhhhhhhhhhhhhhhhhhhhhhhhgghhhhhhhhhhhhhhhh",
"hhhhhhhhhhhhhhgghhhhhhhhhhhhhhhhhhhhhhhhhhhhhhgghhhhhhhhhhhhhhhh",
"gggggggggggggggggggggggggggggggggggggggggggggggggggggggggggggggg",
"gggggggggggggggggggggggggggggggggggggggggggggggggggggggggggggggg",
"iiiikkkkiiiikkkkiiiikkkkiiiikkkkiiiikkkkiiiikkkkiiiikkkkiiiikkkk",
"iiiikkkkiiiikkkkiiiikkkkiiiikkkkiiiikkkkiiiikkkkiiiikkkkiiiikkkk",
"kkkkiiiikkkkiiiikkkkiiiikkkkiiiikkkkiiiikkkkiiiikkkkiiiikkkkiiii",
"kkkkiiiikkkkiiiikkkkiiiikkkkiiiikkkkiiiikkkkiiiikkkkiiiikkkkiiii",
"gggggggggggggggggggggggggggggggggggggggggggggggggggggggggggggggg",
"gggggggggggggggggggggggggggggggggggggggggggggggggggggggggggggggg",
"jjjjjjjjjjjjhhggjjjjjjjjjjjjjjjjjjjjjjjjjjjjhhggjjjjjjjjjjjjjjjj",
"jjjjjjjjjjjjhhggjjjjjjjjjjjjjjjjjjjjjjjjjjjjhhggjjjjjjjjjjjjjjjj",
"jjjjjjjjjjjjhhggjjjjjjjjjjjjjjjjjjjjjjjjjjjjhhggjjjjjjjjjjjjjjjj",
"jjjjjjjjjjjjhhggjjjjjjjjjjjjjjjjjjjjjjjjjjjjhhggjjjjjjjjjjjjjjjj",
"jjjjjjjjjjjjhhggjjjjjjjjjjjjjjjjjjjjjjjjjjjjhhggjjjjjjjjjjjjjjjj",
"jjjjjjjjjjjjhhggjjjjjjjjjjjjjjjjjjjjjjjjjjjjhhggjjjjjjjjjjjjjjjj",
"hhhhhhhhhhhhhhgghhhhhhhhhhhhhhhhhhhhhhhhhhhhhhgghhhhhhhhhhhhhhhh",
"hhhhhhhhhhhhhhgghhhhhhhhhhhhhhhhhhhhhhhhhhhhhhgghhhhhhhhhhhhhhhh",
"gggggggggggggggggggggggggggggggggggggggggggggggggggggggggggggggg",
"gggggggggggggggggggggggggggggggggggggggggggggggggggggggggggggggg",
"iiiikkkkiiiikkkkiiiikkkkiiiikkkkiiiikkkkiiiikkkkiiiikkkkiiiikkkk",
"iiiikkkkiiiikkkkiiiikkkkiiiikkkkiiiikkkkiiiikkkkiiiikkkkiiiikkkk",
"kkkkiiiikkkkiiiikkkkiiiikkkkiiiikkkkiiiikkkkiiiikkkkiiiikkkkiiii",
"kkkkiiiikkkkiiiikkkkiiiikkkkiiiikkkkiiiikkkkiiiikkkkiiiikkkkiiii",
"gggggggggggggggggggggggggggggggggggggggggggggggggggggggggggggggg",
"gggggggggggggggggggggggggggggggggggggggggggggggggggggggggggggggg",
"jjjjjjjjjjjjhhggjjjjjjjjjjjjjjjjjjjjjjjjjjjjhhggjjjjjjjjjjjjjjjj",
"jjjjjjjjjjjjhhggjjjjjjjjjjjjjjjjjjjjjjjjjjjjhhggjjjjjjjjjjjjjjjj",
"jjjjjjjjjjjjhhggjjjjjjjjjjjjjjjjjjjjjjjjjjjjhhggjjjjjjjjjjjjjjjj",
"jjjjjjjjjjjjhhggjjjjjjjjjjjjjjjjjjjjjjjjjjjjhhggjjjjjjjjjjjjjjjj",
"jjjjjjjjjjjjhhggjjjjjjjjjjjjjjjjjjjjjjjjjjjjhhggjjjjjjjjjjjjjjjj",
"jjjjjjjjjjjjhhggjjjjjjjjjjjjjjjjjjjjjjjjjjjjhhggjjjjjjjjjjjjjjjj",
"hhhhhhhhhhhhhhgghhhhhhhhhhhhhhhhhhhhhhhhhhhhhhgghhhhhhhhhhhhhhhh",
"hhhhhhhhhhhhhhgghhhhhhhhhhhhhhhhhhhhhhhhhhhhhhgghhhhhhhhhhhhhhhh",
"gggggggggggggggggggggggggggggggggggggggggggggggggggggggggggggggg",
"gggggggggggggggggggggggggggggggggggggggggggggggggggggggggggggggg",
"iiiikkkkiiiikkkkiiiikkkkiiiikkkkiiiikkkkiiiikkkkiiiikkkkiiiikkkk",
"iiiikkkkiiiikkkkiiiikkkkiiiikkkkiiiikkkkiiiikkkkiiiikkkkiiiikkkk",
"kkkkiiiikkkkiiiikkkkiiiikkkkiiiikkkkiiiikkkkiiiikkkkiiiikkkkiiii",
"kkkkiiiikkkkiiiikkkkiiiikkkkiiiikkkkiiiikkkkiiiikkkkiiiikkkkiiii",
"gggggggggggggggggggggggggggggggggggggggggggggggggggggggggggggggg",
"gggggggggggggggggggggggggggggggggggggggggggggggggggggggggggggggg",
"jjjjjjjjjjjjhhggjjjjjjjjjjjjjjjjjjjjjjjjjjjjhhggjjjjjjjjjjjjjjjj",
"jjjjjjjjjjjjhhggjjjjjjjjjjjjjjjjjjjjjjjjjjjjhhggjjjjjjjjjjjjjjjj",
"jjjjjjjjjjjjhhggjjjjjjjjjjjjjjjjjjjjjjjjjjjjhhggjjjjjjjjjjjjjjjj",
"jjjjjjjjjjjjhhggjjjjjjjjjjjjjjjjjjjjjjjjjjjjhhggjjjjjjjjjjjjjjjj",
"jjjjjjjjjjjjhhggjjjjjjjjjjjjjjjjjjjjjjjjjjjjhhggjjjjjjjjjjjjjjjj",
"jjjjjjjjjjjjhhggjjjjjjjjjjjjjjjjjjjjjjjjjjjjhhggjjjjjjjjjjjjjjjj",
"hhhhhhhhhhhhhhgghhhhhhhhhhhhhhhhhhhhhhhhhhhhhhgghhhhhhhhhhhhhhhh",
"hhhhhhhhhhhhhhgghhhhhhhhhhhhhhhhhhhhhhhhhhhhhhgghhhhhhhhhhhhhhhh",
"gggggggggggggggggggggggggggggggggggggggggggggggggggggggggggggggg",
"gggggggggggggggggggggggggggggggggggggggggggggggggggggggggggggggg",
"iiiikkkkiiiikkkkiiiikkkkiiiikkkkiiiikkkkiiiikkkkiiiikkkkiiiikkkk",
"iiiikkkkiiiikkkkiiiikkkkiiiikkkkiiiikkkkiiiikkkkiiiikkkkiiiikkkk"
};
